<svg width="38" height="37" viewBox="0 0 38 37" fill="none" xmlns="http://www.w3.org/2000/svg">
<path d="M16 0C24.84 0 32 3.58 32 8C32 12.42 24.84 16 16 16C7.16 16 0 12.42 0 8C0 3.58 7.16 0 16 0ZM0 12C0 16.42 7.16 20 16 20C24.84 20 32 16.42 32 12V18.16L30 18C24.82 18 20.4 21.28 18.72 25.88L16 26C7.16 26 0 22.42 0 18V12ZM0 22C0 26.42 7.16 30 16 30H18C18 32.1 18.54 34.08 19.5 35.8L16 36C7.16 36 0 32.42 0 28V22ZM28 36.16L22.5 30.16L24.82 27.84L28 31L35.18 23.84L37.5 26.66L28 36.16Z" fill="#198754"/>
</svg>
