<svg width="76" height="66" viewBox="0 0 76 66" fill="none" xmlns="http://www.w3.org/2000/svg">
<path d="M67.5625 16.875C64.0687 16.875 61.1125 19.0922 59.9703 22.25H51.4375V11.5H46.0625V3.4375H40.6875V11.5H35.3125V3.4375H29.9375V11.5H24.5625V22.25H11.125V16.4047C14.2828 15.2625 16.5 12.3062 16.5 8.8125C16.5 4.37812 12.8719 0.75 8.4375 0.75C4.00312 0.75 0.375 4.37812 0.375 8.8125C0.375 12.3062 2.59219 15.2625 5.75 16.4047V27.625H24.5625V33H5.75V44.2203C2.59219 45.3625 0.375 48.3187 0.375 51.8125C0.375 56.2469 4.00312 59.875 8.4375 59.875C12.8719 59.875 16.5 56.2469 16.5 51.8125C16.5 48.3187 14.2828 45.3625 11.125 44.2203V38.375H24.5625V49.125H29.9375V57.1875H35.3125V49.125H40.6875V57.1875H46.0625V49.125H51.4375V38.375H56.8125V49.5953C53.6547 50.7375 51.4375 53.6937 51.4375 57.1875C51.4375 61.6219 55.0656 65.25 59.5 65.25C63.9344 65.25 67.5625 61.6219 67.5625 57.1875C67.5625 53.6937 65.3453 50.7375 62.1875 49.5953V33H51.4375V27.625H59.9703C61.1125 30.7828 64.0687 33 67.5625 33C71.9969 33 75.625 29.3719 75.625 24.9375C75.625 20.5031 71.9969 16.875 67.5625 16.875ZM8.4375 11.5C6.95937 11.5 5.75 10.2906 5.75 8.8125C5.75 7.33437 6.95937 6.125 8.4375 6.125C9.91562 6.125 11.125 7.33437 11.125 8.8125C11.125 10.2906 9.91562 11.5 8.4375 11.5ZM8.4375 54.5C6.95937 54.5 5.75 53.2906 5.75 51.8125C5.75 50.3344 6.95937 49.125 8.4375 49.125C9.91562 49.125 11.125 50.3344 11.125 51.8125C11.125 53.2906 9.91562 54.5 8.4375 54.5ZM46.0625 43.75H29.9375V16.875H46.0625V43.75ZM59.5 54.5C60.9781 54.5 62.1875 55.7094 62.1875 57.1875C62.1875 58.6656 60.9781 59.875 59.5 59.875C58.0219 59.875 56.8125 58.6656 56.8125 57.1875C56.8125 55.7094 58.0219 54.5 59.5 54.5ZM67.5625 27.625C66.0844 27.625 64.875 26.4156 64.875 24.9375C64.875 23.4594 66.0844 22.25 67.5625 22.25C69.0406 22.25 70.25 23.4594 70.25 24.9375C70.25 26.4156 69.0406 27.625 67.5625 27.625Z" fill="#3170B5"/>
</svg>
