<svg width="40" height="32" viewBox="0 0 40 32" fill="none" xmlns="http://www.w3.org/2000/svg">
<path d="M4 0C2.93913 0 1.92172 0.421427 1.17157 1.17157C0.421427 1.92172 0 2.93913 0 4V14H12.26C13.18 10.48 16.36 8 20 8C23.64 8 26.82 10.48 27.74 14H40V4C40 2.93913 39.5786 1.92172 38.8284 1.17157C38.0783 0.421427 37.0609 0 36 0H4ZM20 12C18.9391 12 17.9217 12.4214 17.1716 13.1716C16.4214 13.9217 16 14.9391 16 16C16 17.0609 16.4214 18.0783 17.1716 18.8284C17.9217 19.5786 18.9391 20 20 20C21.0609 20 22.0783 19.5786 22.8284 18.8284C23.5786 18.0783 24 17.0609 24 16C24 14.9391 23.5786 13.9217 22.8284 13.1716C22.0783 12.4214 21.0609 12 20 12ZM0 18V28C0 29.0609 0.421427 30.0783 1.17157 30.8284C1.92172 31.5786 2.93913 32 4 32H36C37.0609 32 38.0783 31.5786 38.8284 30.8284C39.5786 30.0783 40 29.0609 40 28V18H27.74C26.82 21.52 23.64 24 20 24C16.36 24 13.18 21.52 12.26 18H0Z" fill="#F26769"/>
</svg>
