<svg version="1.2" xmlns="http://www.w3.org/2000/svg" viewBox="0 0 460 460" width="460" height="460">
	<title>eye-svgrepo-com-svg</title>
	<style>
		.s0 { fill: #ffd7e4 } 
		.s1 { fill: #b3dee5 } 
		.s2 { fill: #0b389c } 
		.s3 { fill: #4370d9 } 
		.s4 { fill: #07215c } 
		.s5 { fill: #7acbd9 } 
		.s6 { fill: #7797e3 } 
		.s7 { fill: #355ccc } 
	</style>
	<g id="Layer">
		<path id="Layer" class="s0" d="m172.1 333.3c-51.6-15.9-97.1-52.4-126.7-103.3 29.6-50.9 75.1-87.5 126.7-103.3-36.5 20.9-62 59.3-62 103.3 0 44 25.5 82.4 62 103.3z"/>
		<path id="Layer" class="s1" d="m414.6 230c-28.4 48.8-71.3 84.4-120.2 101.2 33.3-21.3 55.5-58.7 55.5-101.2 0-42.5-22.1-79.9-55.5-101.2 48.9 16.8 91.9 52.4 120.2 101.2z"/>
		<path id="Layer" class="s2" d="m294.4 331.2c-20 6.8-41 10.6-62.4 10.8v-57.2c30.2 0 52.8-24.6 52.8-54.8q0-2.4-0.2-4.8c11-6.3 18.4-18.2 18.4-31.7 0-20.2-16.3-36.5-36.5-36.5-13.5 0-24.5 7.4-30.2 18.4q-2.1-0.2-4.3-0.2v-57.2c21.4 0.2 42.4 4 62.4 10.8 33.4 21.3 55.5 58.7 55.5 101.2 0 42.5-22.2 79.9-55.5 101.2z"/>
		<path id="Layer" class="s3" d="m232 284.8v57.2q-1 0-2 0c-19.8 0-39.3-3-57.9-8.7-36.5-20.9-62-59.3-62-103.3 0-44 25.5-82.4 62-103.3 18.6-5.7 38.1-8.7 57.9-8.7q1 0 2 0v57.2c-30.2 0-56.8 24.6-56.8 54.8 0 30.2 26.6 54.8 56.8 54.8z"/>
		<path id="Layer" class="s4" d="m232 175.2q2.2 0 4.3 0.2c-2.7 5.3-4.3 11.5-4.3 18.1 0 20.1 14.4 36.5 34.5 36.5 6.6 0 12.7-1.8 18.1-4.8q0.2 2.4 0.2 4.8c0 30.2-22.6 54.8-52.8 54.8-30.2 0-56.8-24.6-56.8-54.8 0-30.2 26.6-54.8 56.8-54.8z"/>
		<path id="Layer" class="s5" d="m232 193.5c0-6.6 1.6-12.8 4.3-18.1 5.7-11 16.7-18.4 30.2-18.4 20.2 0 36.5 16.3 36.5 36.5 0 13.5-7.4 25.4-18.4 31.7-5.4 3-11.5 4.8-18.1 4.8-20.1 0-34.5-16.4-34.5-36.5z"/>
		<path id="Layer" class="s6" d="m0 230l4.9-9.3c22.2-42.4 54.3-78.1 92.8-103.1 39.9-25.9 85.6-39.6 132.3-39.6 46.7 0 92.4 13.7 132.3 39.6 38.5 25 70.5 60.7 92.8 103.1l4.9 9.3h-45.4c-28.3-48.8-71.3-84.4-120.2-101.2-20-6.8-41-10.6-62.4-10.8q-1 0-2 0c-19.8 0-39.3 3-57.9 8.7-51.6 15.8-97.1 52.4-126.7 103.3z"/>
		<path id="Layer" class="s7" d="m460 230l-4.9 9.3c-22.2 42.4-54.3 78.1-92.8 103.1-39.9 25.9-85.6 39.6-132.3 39.6-46.7 0-92.4-13.7-132.3-39.6-38.5-25-70.5-60.7-92.8-103.1l-4.9-9.3h45.4c29.6 50.9 75.1 87.4 126.7 103.3 18.6 5.7 38.1 8.7 57.9 8.7q1 0 2 0c21.4-0.2 42.4-4 62.4-10.8 48.9-16.8 91.8-52.4 120.2-101.2z"/>
	</g>
</svg>