<svg width="51" height="60" viewBox="0 0 51 60" fill="none" xmlns="http://www.w3.org/2000/svg">
<path d="M31 20.375H19.375C18.2125 20.375 17.4375 19.6 17.4375 18.4375C17.4375 17.275 18.2125 16.5 19.375 16.5H31C32.1625 16.5 32.9375 17.275 32.9375 18.4375C32.9375 19.6 32.1625 20.375 31 20.375Z" fill="#6FB494"/>
<path d="M12.3996 11.8187H38.1684C38.7496 11.8187 39.5246 11.4312 39.7184 10.85C40.1059 10.2687 40.1059 9.6875 39.9121 8.9125C37.0059 3.1 32.1621 0 25.1871 0C18.2121 0 13.3684 3.1 10.6559 9.1062C10.2684 9.6875 10.2684 10.4625 10.6559 11.0437C11.0434 11.625 11.6246 11.8187 12.3996 11.8187Z" fill="white"/>
<path d="M17.4379 38.3937V41.3C15.6941 41.6875 13.9504 42.2688 12.4004 42.85C15.5004 44.7875 20.1504 45.95 25.1879 45.95C30.2254 45.95 34.8754 44.7875 37.9754 42.85C36.4254 42.2688 34.6816 41.6875 32.9379 41.3V38.3937C34.6816 37.0375 36.2316 35.1 37.5879 32.9687C37.9754 32.3875 37.9754 31.6125 37.5879 31.0313C37.2004 30.45 36.6191 30.0625 35.8441 30.0625H14.5316C13.7566 30.0625 13.1754 30.45 12.7879 31.0313C12.4004 31.6125 12.4004 32.3875 12.7879 32.9687C14.3379 35.1 15.6941 37.0375 17.4379 38.3937Z" fill="white"/>
<path d="M41.85 44.9814C38.1688 48.0814 32.1625 50.0189 25.1875 50.0189C18.4063 50.0189 12.4 48.0814 8.525 44.9814C3.68125 48.0814 0.58125 52.3439 0 56.9939C0 57.5752 0.19375 58.1564 0.3875 58.5439C0.58125 58.9314 1.55 59.1252 1.9375 59.1252H48.4375C49.0187 59.1252 49.6 58.9314 49.7938 58.5439C49.9875 58.1564 50.375 57.5752 50.1812 56.9939C49.7938 52.1502 46.5 47.8877 41.85 44.9814Z" fill="white"/>
<path d="M36.2313 33.9375H14.1438C9.4938 33.9375 5.8125 30.2563 5.8125 25.6062V17.0813C5.8125 12.4313 9.4938 8.75 14.1438 8.75H36.425C40.8812 8.75 44.5625 12.4313 44.5625 17.0813V25.8C44.5625 30.2563 40.8813 33.9375 36.2313 33.9375ZM14.1438 12.625C11.625 12.625 9.6875 14.5625 9.6875 17.0813V25.8C9.6875 28.125 11.625 30.0625 14.1438 30.0625H36.425C38.9437 30.0625 40.8813 28.125 40.8813 25.6062V17.0813C40.6875 14.5625 38.75 12.625 36.2313 12.625H14.1438Z" fill="#4BB092"/>
</svg>
