<svg width="38" height="46" viewBox="0 0 38 46" fill="none" xmlns="http://www.w3.org/2000/svg">
<path d="M18.8401 8.00248C23.7828 8.00248 28.4901 9.88544 32.0206 13.4159C39.317 20.7123 39.317 32.716 32.0206 40.0123C27.784 44.4843 21.8998 46.1319 16.251 45.4258L17.4279 40.7184C21.4291 41.1892 25.6657 39.777 28.7255 36.7172C34.1389 31.3038 34.1389 22.3598 28.7255 16.711C26.1364 14.122 22.3706 12.7098 18.8401 12.7098V23.5367L7.0717 11.7683L18.8401 0V8.00248ZM5.42414 40.0123C-0.695403 33.8928 -1.63687 24.4781 2.59973 17.1817L6.13024 20.7122C3.5412 25.8903 4.48267 32.4806 8.95464 36.7172C10.1315 37.894 11.5437 38.8355 13.1913 39.5416L11.7791 44.2489C9.42537 43.3075 7.30707 41.8953 5.42414 40.0123Z" fill="#98B7DA"/>
</svg>
