<svg width="47" height="69" viewBox="0 0 47 69" fill="none" xmlns="http://www.w3.org/2000/svg">
<path d="M33.6824 52.2029C36.9374 49.5636 38.6702 46.037 39.6149 42.0437C39.8215 41.1754 39.9248 40.0662 41.3783 40.6399C41.5619 40.7126 41.9329 40.3913 42.1815 40.2039C44.5798 38.3487 45.9071 34.2177 45.0656 31.2419C44.3809 28.813 43.4552 28.3999 41.1717 29.578C40.728 29.0043 41.0455 28.3693 41.0799 27.7956C41.3094 23.7946 41.6078 19.7975 40.8351 15.8118C40.2308 12.6983 38.9341 9.88692 37.2205 7.26679C35.3654 4.42864 32.4622 3.1664 29.3486 2.27135C29.3486 2.05715 29.3486 1.84677 29.3486 1.63257C36.3637 2.89099 39.3778 7.98207 41.2023 14.1288C42.4187 18.2216 42.17 22.4367 41.8946 26.6289C41.8296 27.6311 41.7799 28.289 43.176 28.1283C44.2202 28.0059 44.8628 28.8972 45.3295 29.7616C47.4485 33.6631 45.2453 39.7984 41.0723 41.4432C40.445 41.6918 40.3493 42.1317 40.2155 42.5639C39.2439 45.7195 38.3183 48.8254 35.7823 51.2619C34.7763 52.2297 35.2238 54.0465 35.0173 55.4771L34.4053 55.4694C34.4856 54.6165 34.5659 53.7597 34.6463 52.9067C34.6692 52.3788 34.3288 52.4324 33.9807 52.4898L33.6785 52.2067L33.6824 52.2029Z" fill="#0C1C2D"/>
<path d="M33.682 53.1591C35.6404 51.5565 37.159 49.5254 38.2032 47.2228C38.7234 46.0753 39.1288 44.878 39.4501 43.6617C39.6146 43.0344 39.6643 41.6765 40.4523 41.4661C40.6856 41.4049 40.9381 41.4546 41.1637 41.5235C41.4736 41.6191 41.5921 41.5924 41.8675 41.4011C42.2959 41.0989 42.6899 40.7432 43.038 40.353C43.7915 39.5077 44.3461 38.4903 44.7248 37.4269C45.1035 36.3636 45.3024 35.2352 45.3215 34.0992C45.3406 32.856 45.4057 31.5632 45.0805 30.3468C44.8625 29.5283 44.5144 28.3655 43.6117 28.0633C43.2292 27.9333 42.8085 27.9906 42.426 28.0977C42.1429 28.1781 41.8714 28.289 41.6036 28.4114C41.5271 28.4458 41.2441 28.6409 41.1676 28.6218C41.1293 28.6103 41.0643 28.4573 41.0452 28.4229C41.0222 28.3808 41.0031 28.3349 40.9916 28.2852C40.8386 27.7803 40.8233 28.2163 40.9419 29.5818V29.7119C40.9801 29.2529 41.0719 28.8054 41.0987 28.3425C41.1331 27.7191 41.1714 27.0918 41.2058 26.4683C41.2708 25.2634 41.3206 24.0585 41.332 22.8498C41.3588 20.3368 41.3473 17.8085 40.9151 15.3222C40.5326 13.1076 39.7867 10.9732 38.7655 8.97272C37.8207 7.12142 36.7306 5.28159 35.0743 3.97727C33.4181 2.67294 31.3679 1.90029 29.3407 1.30742L29.3483 2.26367V1.62489L29.3368 2.58114C31.3794 2.95599 33.3454 3.70569 35.0246 4.94117C36.5546 6.06572 37.7824 7.54217 38.7425 9.17544C39.76 10.9044 40.4867 12.7863 41.0758 14.6988C41.4927 16.0528 41.7796 17.4336 41.9326 18.8412C42.0091 19.5527 42.0588 20.2641 42.0817 20.9794C42.0817 21.075 42.1085 21.7597 42.097 21.2319C42.1009 21.4422 42.0894 21.6526 42.0817 21.863C42.0703 22.257 42.055 22.6548 42.0358 23.0487C41.9746 24.3263 41.8522 25.6 41.8484 26.8814C41.8484 27.5661 41.5615 28.9316 42.5293 29.0808C43.0571 29.1611 43.5391 28.9698 44.0478 29.2299C44.5183 29.4709 44.851 29.9146 45.1188 30.3545C45.6122 31.1577 45.9259 32.0528 46.0597 32.9861C46.098 33.2462 46.1095 33.5063 46.1324 33.7664C45.9794 32.0604 46.1554 32.4009 46.1133 32.9555C46.1056 33.0358 46.098 33.1161 46.0903 33.1926C46.033 33.7128 45.9335 34.2254 45.7958 34.7303C45.5395 35.6636 45.1456 36.5625 44.6292 37.381C44.1128 38.1996 43.497 38.9072 42.7549 39.4962C42.4222 39.7602 42.0703 39.9935 41.6954 40.1886C41.2632 40.4181 40.7315 40.529 40.4561 40.9689C40.1578 41.447 40.0583 42.1011 39.8938 42.6289C39.6949 43.2639 39.4922 43.895 39.2665 44.5223C38.7999 45.8113 38.2453 47.0736 37.4917 48.2249C37.1207 48.7948 36.7 49.3341 36.2371 49.8314C35.7743 50.3286 35.3689 50.6959 35.2082 51.3767C35.082 51.9046 35.0858 52.4592 35.0782 52.9985C35.0743 53.3351 35.082 53.6755 35.0629 54.0121C35.0629 54.0427 35.0629 54.4673 35.0131 54.5132C34.9519 54.5706 34.4968 54.5055 34.4011 54.5055V56.418C34.5082 55.2897 34.6498 54.1613 34.6498 53.0253C34.6498 52.7078 34.6498 52.3903 34.6459 52.0728C34.6459 51.9351 34.6651 51.7248 34.5733 51.61C34.4738 51.4838 34.3246 51.4876 34.1831 51.4991C34.1296 51.4991 34.0263 51.545 33.9804 51.5297C33.9077 51.5067 33.7356 51.3002 33.6782 51.2466C33.7624 51.327 33.6706 52.069 33.6706 52.2029C33.6706 52.4286 33.6706 52.6542 33.6706 52.8799C33.6706 52.9296 33.6476 53.1324 33.6782 53.1591C33.7356 53.2127 33.9039 53.4192 33.9804 53.4422C34.0454 53.4613 34.2099 53.404 34.2787 53.4078C34.5503 53.4231 34.6345 53.5493 34.6383 53.8247V51.9466C34.5618 52.7996 34.4815 53.6564 34.4011 54.5094C34.3858 54.6891 34.3858 56.4219 34.4011 56.4219C34.5465 56.4219 34.7186 56.4525 34.8601 56.4295C35.0552 56.3989 35.0246 56.376 35.0437 56.1656C35.0667 55.917 35.0743 55.6683 35.082 55.4197C35.0935 54.7962 35.059 54.1651 35.1585 53.5493C35.3574 52.3253 36.4437 51.61 37.1398 50.6538C38.666 48.5538 39.4348 46.0446 40.1884 43.5928C40.3337 43.1262 40.4676 42.7016 40.9304 42.4606C41.3703 42.2311 41.8178 42.0628 42.2347 41.7912C43.0533 41.2557 43.7533 40.5481 44.3232 39.7525C45.4898 38.1231 46.1095 36.1494 46.1439 34.1527C46.1821 31.9916 46.2051 29.6583 44.7286 27.9027C44.3653 27.4704 43.8871 27.1491 43.3057 27.1606C42.9041 27.1683 42.3724 27.3021 42.0588 26.9694C41.9517 26.8546 41.9249 26.7246 41.8828 26.583C41.8675 26.5257 41.8752 26.4683 41.8637 26.4109C41.8331 26.2579 41.8408 28.1742 41.8714 27.8223C41.8828 27.6732 41.8905 27.5202 41.8981 27.371C41.9479 26.6098 41.9938 25.8525 42.032 25.0913C42.1774 22.1231 42.2539 19.0784 41.8293 16.1293C41.4812 13.7157 40.7124 11.3289 39.6988 9.11424C38.8687 7.30502 37.7977 5.59142 36.3748 4.19147C34.8831 2.72649 33.0433 1.67844 31.0428 1.08174C30.4843 0.913441 29.9144 0.78339 29.3368 0.680115C29.3483 0.680115 29.3254 1.62872 29.3292 1.63637V2.27514C29.3292 2.34016 29.2871 3.21609 29.3407 3.23139C31.2838 3.79749 33.2192 4.50894 34.8525 5.72912C36.6464 7.06787 37.8054 8.99949 38.8037 10.9694C39.9091 13.1496 40.6665 15.4791 41.0184 17.8965C41.1255 18.6309 41.202 19.3691 41.2479 20.1073C41.267 20.4171 41.2823 20.7308 41.2938 21.0444C41.2976 21.1707 41.3014 21.2931 41.3053 21.4193C41.3091 21.7597 41.3129 21.7903 41.3129 21.5073C41.3129 21.645 41.3091 21.7827 41.3053 21.9204C41.2747 23.2629 41.1982 24.6055 41.1217 25.9481C41.0834 26.5754 40.9763 27.1912 40.9342 27.8109C40.8922 28.4305 40.9036 29.0999 40.9266 29.731C40.9342 29.9184 40.9419 30.0982 41.0107 30.2742C41.1561 30.6375 41.2517 30.4922 41.5386 30.3583C41.9134 30.1862 42.3036 30.0255 42.709 29.949C44.3308 29.6507 44.9199 31.4102 45.1723 32.6916C45.2144 32.8981 45.245 33.1085 45.268 33.3227C45.2833 33.4833 45.2871 33.6478 45.3024 33.8085V32.6265C45.2947 32.7489 45.2871 32.8713 45.2794 32.9937C45.2374 33.491 45.1532 33.9844 45.0385 34.4702C44.8128 35.3997 44.4609 36.2985 43.9828 37.1247C43.5046 37.9509 42.9156 38.67 42.1774 39.2591C42.0091 39.393 41.8369 39.5498 41.6457 39.6416C41.42 39.7487 41.3282 39.6645 41.0949 39.6033C40.7506 39.5115 40.3758 39.5001 40.1042 39.7678C39.8518 40.0164 39.7753 40.4028 39.6949 40.7317C39.5725 41.2481 39.454 41.7606 39.3086 42.2694C38.9873 43.4054 38.5819 44.5223 38.077 45.5895C37.0404 47.785 35.5601 49.7205 33.6782 51.262C33.5826 51.3423 33.6706 52.0843 33.6706 52.2182C33.6706 52.3521 33.7777 53.0941 33.6782 53.1745L33.682 53.1591Z" fill="#0C1C2D"/>
<path d="M1.45609 35.6101C1.98777 37.3504 2.78337 39.4121 4.32484 39.917C7.44987 40.9459 7.06354 43.6617 7.93564 45.7731C9.94377 50.65 13.6961 54.3985 18.3205 55.7602C23.163 57.1869 28.866 57.6306 32.9435 52.792C33.1424 52.5548 33.4369 52.3942 33.6855 52.1991C33.785 52.2947 33.8844 52.3865 33.9877 52.4821C33.9609 52.5969 33.9456 52.7116 33.9456 52.8302C33.762 53.0062 33.567 53.1706 33.4025 53.3619C29.0382 58.4185 23.3045 57.3208 17.8118 56.5749C15.666 56.2842 14.1819 54.1422 12.1087 52.6849C12.1087 56.3454 12.4683 59.8185 12.0513 62.9244C11.688 63.2419 11.6612 63.2648 11.6382 63.2839C11.6727 63.238 11.7415 63.1921 11.7415 63.1424C11.8257 59.7726 11.7147 56.4104 11.3169 53.0597C11.2251 52.2947 11.1563 51.5488 10.5175 50.9942C8.36404 49.1276 7.22802 46.7102 6.62367 43.9639C6.33297 42.6404 5.7401 41.6842 4.3325 40.8618C2.0681 39.5345 0.824969 37.1286 0.308594 34.4702C0.430994 34.4549 0.549572 34.4281 0.664322 34.3861C1.2419 34.5888 1.06977 35.2811 1.45992 35.6062L1.45609 35.6101Z" fill="#0C1C2D"/>
<path d="M1.45601 36.5663C1.86911 37.9127 2.37019 39.4886 3.50239 40.4143C4.07231 40.8809 4.81819 40.9957 5.43401 41.3935C5.93891 41.7186 6.34818 42.1585 6.64271 42.6825C7.22793 43.7114 7.35799 44.9163 7.69076 46.0332C8.11534 47.4714 8.88799 48.856 9.71419 50.0992C11.4125 52.6657 13.7687 54.8307 16.5992 56.0853C17.9265 56.6743 19.357 57.0492 20.7837 57.3246C22.2105 57.6 23.641 57.7415 25.0792 57.6574C26.701 57.5617 28.3037 57.1639 29.7419 56.3913C30.5145 55.9744 31.2298 55.4618 31.8762 54.8689C32.2167 54.5553 32.5341 54.2187 32.844 53.8706C33.0237 53.6679 33.2112 53.5034 33.433 53.3428C33.4751 53.3122 33.6625 53.1553 33.6931 53.1553C33.762 53.1553 33.9494 53.3963 33.9953 53.4384V51.5259C33.915 51.9964 33.5554 52.2488 33.2456 52.5931C32.9358 52.9373 32.6259 53.2471 32.2932 53.5455C31.6773 54.0925 31.0041 54.5706 30.2774 54.9569C28.9272 55.676 27.4278 56.0623 25.9054 56.2C24.3831 56.3377 22.8072 56.2421 21.2695 56.07C20.4624 55.982 19.6554 55.8711 18.8521 55.7602C18.0489 55.6492 17.3221 55.5842 16.6145 55.2476C14.8932 54.4252 13.6539 52.8264 12.1163 51.7286C12.1813 51.7745 12.1048 52.6313 12.1086 52.6849C12.1086 54.5629 12.1737 56.4334 12.2272 58.3114C12.2349 58.5448 12.2387 58.7819 12.2463 59.0152C12.2463 59.1338 12.2502 59.2486 12.254 59.3671C12.254 59.6655 12.254 59.6349 12.254 59.2753C12.1813 59.6999 12.2272 60.178 12.1966 60.6103C12.1813 60.8474 12.1622 61.0807 12.1392 61.3179C12.1239 61.4862 12.1469 61.819 12.0627 61.9643C11.9901 62.0944 11.772 62.2206 11.6496 62.3239V64.2364C11.8141 64.0566 11.7606 63.8233 11.7644 63.5899C11.772 63.2916 11.7759 62.9894 11.7797 62.6911C11.7873 61.9452 11.7912 61.1993 11.7873 60.4496C11.7835 59.107 11.7567 57.7606 11.6917 56.4181C11.6267 55.0755 11.5196 53.7826 11.3742 52.4707C11.3169 51.9543 11.2824 51.415 11.1141 50.9215C10.9191 50.344 10.4983 50.0265 10.0737 49.6172C8.50166 48.0949 7.48039 46.1288 6.89134 44.0365C6.62741 43.0994 6.50501 42.1355 5.93891 41.317C5.37281 40.4984 4.48924 40.0662 3.69364 39.4733C1.78114 38.0504 0.771335 35.7937 0.319985 33.5101V35.4226C0.511235 35.392 0.648936 35.3117 0.824887 35.415C0.954937 35.4915 1.03526 35.6292 1.09264 35.7631C1.21504 36.0423 1.24181 36.3368 1.47131 36.5587C1.38334 36.4745 1.47896 35.7401 1.47896 35.6024C1.47896 35.3767 1.47896 35.1511 1.47896 34.9254C1.47896 34.8757 1.50191 34.6768 1.47131 34.6462C1.24181 34.4205 1.21504 34.1298 1.09264 33.8506C1.03909 33.732 0.974061 33.6134 0.870785 33.5331C0.68336 33.3839 0.534185 33.4795 0.319985 33.514C0.274085 33.5216 0.289385 35.2658 0.319985 35.4265C0.679535 37.2357 1.37186 39.0181 2.61881 40.4066C3.86576 41.7951 5.65586 42.2732 6.36349 44.0212C6.70774 44.8666 6.82631 45.7999 7.11319 46.6681C7.40006 47.5364 7.80169 48.4544 8.29129 49.273C8.78089 50.0915 9.38524 50.8642 10.0776 51.5335C10.4218 51.8663 10.8005 52.1417 11.0147 52.5816C11.2289 53.0215 11.2748 53.5302 11.3322 54.016C11.6573 56.7661 11.8141 59.5469 11.7491 62.3162V62.1862C11.73 62.2397 11.6955 62.2894 11.6496 62.3277C11.5425 62.4424 11.642 63.1233 11.642 63.2839C11.642 63.5096 11.642 63.7353 11.642 63.961C11.642 64.003 11.6688 64.2211 11.6496 64.2402C11.8409 64.0757 12.0207 63.961 12.0819 63.72C12.1928 63.3031 12.1775 62.8058 12.2043 62.3736C12.2731 61.2873 12.2731 60.201 12.2693 59.1147C12.2655 58.0284 12.2463 56.9918 12.2157 55.9285C12.2004 55.3815 12.1813 54.8345 12.1622 54.2875C12.1545 53.9815 12.1431 53.6717 12.1392 53.3657C12.1392 53.2395 12.1354 53.1171 12.1316 52.9909C12.1316 52.9794 12.1278 52.3827 12.1278 52.6849L12.1201 53.6411C13.1873 54.4023 14.1015 55.3356 15.1113 56.1618C15.5779 56.5405 16.0713 56.9 16.6145 57.1601C17.1576 57.4202 17.7123 57.5158 18.3013 57.5962C20.6193 57.9175 22.9563 58.2732 25.3011 58.1546C27.6458 58.036 29.9561 57.3361 31.8303 55.8481C32.362 55.4236 32.8478 54.9493 33.303 54.4444C33.4751 54.2531 33.8499 54.0083 33.957 53.7865C34.0641 53.5646 34.0068 53.0941 34.0068 52.8493C34.0068 52.6045 34.0068 52.3597 34.0068 52.1111C34.0068 51.9543 34.0565 51.7018 33.9991 51.5565C33.9723 51.48 33.8691 51.3805 33.7964 51.3346C33.674 51.2581 33.7658 51.2581 33.6319 51.2887C33.5554 51.304 33.4368 51.4303 33.3718 51.4762C32.8287 51.8701 32.4309 52.4477 31.9374 52.9029C30.2238 54.4941 28.0551 55.4389 25.7371 55.6913C23.4192 55.9438 21.2389 55.588 19.0778 55.0143C16.9167 54.4405 14.767 53.3925 12.9807 51.8778C11.1945 50.3631 9.61474 48.2938 8.52844 46.102C8.05796 45.1573 7.70606 44.2087 7.46126 43.1836C7.24706 42.2923 7.04816 41.3705 6.54708 40.5864C6.29463 40.1924 5.97334 39.8558 5.59466 39.5842C5.11654 39.24 4.58486 39.0985 4.06083 38.8537C3.06633 38.3832 2.48111 37.316 2.06801 36.3483C1.83469 35.7975 1.64343 35.2276 1.46748 34.6576C1.54781 34.9139 1.45984 35.3461 1.45984 35.6139C1.45984 35.9008 1.38333 36.2947 1.46748 36.5701L1.45601 36.5663Z" fill="#0C1C2D"/>
<path d="M29.3405 1.62874C29.3405 1.84294 29.3405 2.05332 29.3405 2.26752C25.8788 1.55607 22.4363 1.53312 18.9135 1.98829C11.7531 2.91012 7.92045 7.24767 6.05003 13.8114C5.0976 17.1544 4.90253 20.574 5.10908 24.028C5.21618 25.8487 5.30797 27.6655 5.4189 29.7043C4.0725 28.989 2.90587 28.1551 1.9764 29.8037C1.21522 30.6949 1.3338 31.9342 0.813602 33.0129C-0.203848 31.1654 1.48297 27.9945 3.44138 28.1628C4.74188 28.2775 4.58505 27.7726 4.53533 26.9617C4.32878 23.3471 3.996 19.7095 4.78395 16.1331C7.31992 4.63519 12.323 0.729871 25.4045 0.959371C26.7203 0.982321 28.0285 1.39542 29.3366 1.62874H29.3405Z" fill="#0C1C2D"/>
<path d="M29.3292 1.62876V2.26753L29.3406 1.31128C25.7604 0.588357 22.0349 0.546281 18.4279 1.10091C15.9608 1.47958 13.5625 2.35933 11.5773 3.89698C7.22831 7.26298 5.47263 13.1344 5.10926 18.409C4.83003 22.475 5.19723 26.5678 5.41526 30.6299V28.7518C4.67703 28.3579 3.63663 27.589 2.76071 28.0174C2.32083 28.2316 2.05308 28.6983 1.79298 29.0923C1.43726 29.6316 1.33016 30.2818 1.18481 30.8977C1.12743 31.1425 1.06623 31.3911 0.982085 31.6321C0.97061 31.6665 0.832907 32.0643 0.806132 32.0605C0.764057 32.0528 0.687555 31.808 0.672255 31.7698C0.595755 31.567 0.549857 31.3567 0.519257 31.1386C0.381557 30.1403 0.404505 33.2845 0.52308 32.2708C0.542205 32.1178 0.568981 31.9687 0.607231 31.8195C0.817606 30.955 1.30721 30.0982 2.03013 29.5666C2.32848 29.3485 2.66891 29.1841 3.03993 29.1343C3.44538 29.0808 3.98088 29.272 4.34426 29.0234C4.55463 28.8781 4.55846 28.6294 4.56611 28.3961C4.58523 27.7076 4.59289 27.0115 4.55081 26.323C4.47049 24.9421 4.37103 23.5613 4.32131 22.1805C4.31366 21.9969 4.30983 21.8133 4.30218 21.6297C4.29836 21.4729 4.35956 20.7002 4.29071 21.5379C4.32131 21.1439 4.31366 20.7461 4.33661 20.3483C4.38633 19.5642 4.47048 18.7801 4.60053 18.0074C4.93331 16.049 5.48029 14.0906 6.17644 12.2317C6.73106 10.7552 7.41956 9.32083 8.32608 8.02798C10.032 5.59528 12.4724 3.92758 15.2952 3.03636C17.1848 2.43966 19.1661 2.15661 21.136 2.01891C22.3179 1.93476 23.5037 1.90798 24.6894 1.91563C26.2883 1.92711 27.7686 2.30578 29.3292 2.59266C29.2297 2.57353 29.4554 0.703107 29.3292 0.680157C27.868 0.412407 26.4642 0.0184331 24.9687 0.00313315C23.8365 -0.00834185 22.7004 0.0107812 21.5682 0.0758062C19.6978 0.186731 17.8197 0.420057 16.0067 0.913482C13.0117 1.72821 10.361 3.33471 8.50586 5.85538C7.53813 7.17118 6.80756 8.64763 6.22616 10.17C5.47646 12.1284 4.89506 14.2092 4.56229 16.2785C4.08416 19.2735 4.20656 22.3909 4.37104 25.4088C4.41311 26.1738 4.46284 26.9426 4.50874 27.7076C4.52021 27.918 4.52786 28.1284 4.54698 28.3387V27.547C4.58906 26.7475 4.58523 26.4951 4.53551 26.7858C4.52021 26.8126 4.53168 26.8508 4.51256 26.8776C4.47431 26.9388 4.45901 27 4.40546 27.0535C4.11476 27.3442 3.58308 27.1989 3.22736 27.2065C2.80661 27.218 2.40499 27.3825 2.06456 27.6235C1.28426 28.1743 0.767882 29.0999 0.572807 30.0217C0.461882 30.5534 0.481005 31.1004 0.481005 31.6397C0.481005 32.2096 0.431284 32.814 0.568984 33.3763C0.588109 33.4489 0.718156 33.973 0.798481 33.9768C0.897931 33.9768 1.09684 33.1391 1.11979 33.0358C1.26896 32.4391 1.35693 31.8157 1.63616 31.261C1.87713 30.7867 2.25581 30.1747 2.74923 29.9338C3.15086 29.7387 3.59456 29.8152 3.99618 29.9644C4.48961 30.148 4.94478 30.4234 5.40761 30.672C5.36171 30.649 5.41526 29.8879 5.41526 29.842C5.41526 29.4939 5.42673 29.142 5.40761 28.7939C5.31581 27.1033 5.22783 25.4088 5.13221 23.7181C5.10926 23.3356 5.08631 22.957 5.06718 22.5745C5.05571 22.3641 5.04806 22.1499 5.04423 21.9395C5.04423 21.8209 5.03658 21.7024 5.03658 21.5838C5.01746 20.945 5.01746 22.1575 5.03658 21.6565C5.07101 20.7538 5.11691 19.8549 5.22019 18.9522C5.53766 16.1638 6.27206 13.3753 7.53431 10.8547C8.51351 8.89626 9.86373 7.12146 11.6079 5.78271C13.4554 4.36746 15.6586 3.51066 17.9383 3.10138C21.6753 2.42818 25.6113 2.48173 29.3292 3.23143C29.3139 3.23143 29.3406 2.28283 29.3368 2.27518V1.63641C29.3368 1.56373 29.3368 0.680157 29.3253 0.680157C29.3139 0.680157 29.3139 1.62876 29.3177 1.63641L29.3292 1.62876Z" fill="#0C1C2D"/>
<path d="M34.4053 55.4656L35.0173 55.4733C34.9102 58.5448 34.8184 61.6162 35.1359 64.6839C34.9943 64.6762 34.8528 64.6648 34.7113 64.6571C34.0113 61.6124 34.2332 58.5409 34.4053 55.4695V55.4656Z" fill="#0C1C2D"/>
<path d="M34.4053 56.4219L35.0173 56.4295V54.5515C34.8872 58.2388 34.7648 61.9605 35.1359 65.6401V63.7276C35.0747 63.7238 34.761 63.7353 34.7113 63.7009C34.6616 63.6664 34.6118 63.238 34.6004 63.173C34.5392 62.8517 34.4856 62.5304 34.4397 62.2053C34.3403 61.4862 34.2829 60.7594 34.2561 60.0327C34.2485 59.7994 34.3058 59.1415 34.2446 60.0136C34.2561 59.8414 34.2523 59.6655 34.2561 59.4895C34.2676 59.1644 34.2791 58.8393 34.2944 58.5142C34.3288 57.8065 34.3709 57.0951 34.4091 56.3875C34.4321 55.9973 34.4168 55.6033 34.4168 55.2094C34.4168 55.0219 34.4282 54.8269 34.4129 54.6394C34.4129 54.6241 34.4129 54.452 34.4053 54.5438C34.2905 56.5481 34.2102 58.5448 34.2255 60.5529C34.2293 61.4173 34.2523 62.2856 34.3288 63.1462C34.3747 63.6473 34.4359 64.1484 34.52 64.6418C34.5583 64.879 34.6042 65.1123 34.6539 65.3456C34.6845 65.4833 34.673 65.5598 34.784 65.6134C34.8566 65.6478 35.0632 65.6325 35.1359 65.6363C35.1282 65.6363 35.1512 63.8921 35.1359 63.7238C35.0058 62.4424 34.9331 61.1534 34.9293 59.8644C34.9293 60.0365 34.9293 59.807 34.9293 59.7573C34.9293 59.566 34.9331 59.3748 34.937 59.1835C34.9408 58.8852 34.9484 58.5868 34.9561 58.2847C34.9714 57.6535 34.9943 57.0186 35.0173 56.3875C35.0211 56.2306 35.0364 54.5094 35.0173 54.5094L34.4053 54.5017C34.4053 54.5017 34.3823 56.4142 34.4053 56.4142V56.4219Z" fill="#0C1C2D"/>
<path d="M0.66088 34.3899C0.54613 34.432 0.427558 34.4626 0.305158 34.474C0.0833082 34.3363 -0.138543 34.0839 0.136857 33.9271C0.546132 33.6937 0.59203 34.103 0.66088 34.3899Z" fill="#0C1C2D"/>
<path d="M0.660769 33.4336C0.580444 33.4642 0.496297 33.4872 0.412147 33.5025C0.389197 33.5063 0.370072 33.5101 0.347122 33.5139C0.339472 33.5139 0.327997 33.5178 0.316522 33.5178C0.305047 33.5178 0.301223 33.5178 0.293572 33.5101C0.266797 33.491 0.236195 33.4719 0.213245 33.4528C0.12527 33.3839 0.0258241 33.2883 0.0143491 33.1697V33.2041C0.0143491 33.12 0.0143449 33.1965 0.0219949 33.4336V35.021L0.0143491 35.0554C0.0219991 34.9598 0.106144 34.9062 0.182644 34.8642C0.247669 34.8297 0.327997 34.803 0.400672 34.8221C0.526897 34.8527 0.576623 35.0019 0.611048 35.1128C0.633998 35.1893 0.649298 35.2696 0.664598 35.3499C0.664598 35.3232 0.668423 35.2964 0.664598 35.2658C0.664598 35.2008 0.664598 35.1357 0.664598 35.0669C0.664598 34.8412 0.664598 34.6156 0.664598 34.3899C0.664598 34.1642 0.664598 33.9385 0.664598 33.7128V33.5637C0.664598 33.5216 0.664596 33.4757 0.656946 33.4336C0.630171 33.3189 0.611048 33.2041 0.568973 33.0932C0.534548 33.0052 0.473344 32.9134 0.373894 32.902C0.312694 32.8943 0.251497 32.9134 0.197947 32.9364C0.129097 32.967 0.0564199 33.0091 0.0219949 33.0817C0.0181699 33.0932 0.0105204 33.1085 0.0105204 33.12C0.0105204 33.1353 0.0105225 33.1544 0.00669749 33.1697C0.00287249 33.2539 0.00669375 33.3418 0.00286875 33.426C-0.00095625 33.9041 -0.00095625 34.3822 0.00286875 34.8603C0.00286875 34.9368 -0.000954616 35.0172 0.0105204 35.0937C0.0219954 35.1587 0.0640741 35.2199 0.109974 35.2696C0.140574 35.3002 0.171174 35.3308 0.205599 35.3576C0.224724 35.3729 0.240024 35.3844 0.259149 35.3958C0.266799 35.4035 0.278269 35.4073 0.289744 35.415C0.301219 35.4226 0.305044 35.4264 0.320344 35.4226C0.435094 35.4073 0.549844 35.3805 0.660769 35.3385C0.660769 35.3117 0.664594 35.2849 0.660769 35.2543C0.660769 35.1893 0.660769 35.1243 0.660769 35.0554C0.660769 34.8297 0.660769 34.6041 0.660769 34.3784C0.660769 34.1527 0.660769 33.927 0.660769 33.7014V33.5522C0.660769 33.5101 0.660773 33.4642 0.653123 33.4222L0.660769 33.4336Z" fill="#0C1C2D"/>
<path d="M34.7109 64.6571C34.8525 64.6648 34.994 64.6762 35.1355 64.6839C35.3612 64.8369 35.5371 65.1697 35.3115 65.2691C34.7607 65.5101 34.7607 65.0167 34.7109 64.6571Z" fill="#0C1C2D"/>
<path d="M34.7107 65.6134L35.0128 65.6325H35.0855C35.1085 65.6401 35.1276 65.6363 35.1467 65.6516C35.1735 65.6707 35.2041 65.6937 35.227 65.7205C35.315 65.8084 35.403 65.927 35.4106 66.0532V66.0303L35.403 65.1085V65.1161L35.4106 64.1943V64.1713C35.403 64.2823 35.3074 64.3205 35.2156 64.3473C35.1314 64.3741 35.0396 64.3894 34.9555 64.3549C34.8139 64.2976 34.7719 64.1216 34.7489 63.9877C34.7336 63.8921 34.7221 63.7965 34.7107 63.697C34.7107 63.7238 34.7068 63.7506 34.7107 63.7812C34.7107 63.8462 34.7107 63.9112 34.7107 63.9801C34.7107 64.2058 34.7107 64.4314 34.7107 64.6571C34.7107 64.8828 34.7107 65.1085 34.7107 65.3341C34.7107 65.4259 34.703 65.5216 34.7183 65.6134C34.7374 65.7434 34.7451 65.8773 34.7795 66.0073C34.8063 66.1106 34.8522 66.2254 34.9593 66.2713C35.0167 66.2942 35.0817 66.2942 35.1429 66.2827C35.185 66.2751 35.227 66.2636 35.2691 66.2483C35.3074 66.233 35.3456 66.2177 35.3762 66.1909C35.3992 66.168 35.4106 66.1412 35.4183 66.1106C35.4298 66.0571 35.4259 65.9959 35.4259 65.9423C35.4336 65.4412 35.4336 64.9363 35.4259 64.4353C35.4259 64.332 35.4298 64.2249 35.4183 64.1216C35.4183 64.1025 35.4106 64.0872 35.4068 64.0681C35.3953 64.0298 35.3762 63.9916 35.3533 63.9571C35.3265 63.9151 35.2959 63.873 35.2615 63.8347C35.227 63.7965 35.1888 63.7582 35.1467 63.7353C35.1199 63.72 35.074 63.7276 35.0434 63.7238L34.9402 63.7162L34.7145 63.7009C34.7145 63.7009 34.703 64.5844 34.7068 64.6571C34.7068 64.8828 34.7068 65.1085 34.7068 65.3341C34.7068 65.3609 34.7068 65.6134 34.7145 65.6134H34.7107Z" fill="#0C1C2D"/>
<path d="M33.9424 52.834C33.9424 52.7155 33.9577 52.6007 33.9845 52.486C34.3287 52.4286 34.673 52.375 34.65 52.9029C34.4129 52.8799 34.1795 52.857 33.9424 52.834Z" fill="#0C1C2D"/>
<path d="M33.9459 53.6602C33.9459 53.8094 33.9459 53.6832 33.9459 53.6488V53.6832C33.9459 53.622 33.9574 53.557 33.9689 53.4958C33.9689 53.4843 33.9727 53.469 33.9765 53.4575C33.9842 53.4422 33.9842 53.4422 33.9995 53.4422C34.0186 53.4422 34.0339 53.4346 34.053 53.4346C34.1219 53.4231 34.1907 53.4154 34.2596 53.4116C34.3705 53.4078 34.4967 53.4269 34.5694 53.5187C34.6191 53.5837 34.6383 53.6641 34.6421 53.7444V53.71C34.6421 53.71 34.6421 53.7291 34.6421 53.7406C34.6727 54.3602 34.665 51.3614 34.6421 51.9849V51.9505C34.4088 51.9275 34.1754 51.9046 33.9383 51.8816C33.9383 51.8816 33.9306 52.2067 33.9306 52.1608C33.9306 52.3865 33.9306 52.6122 33.9306 52.8379C33.9306 53.0635 33.9306 53.2892 33.9306 53.5149C33.9306 53.5417 33.9306 53.7941 33.9383 53.7941C34.1754 53.8171 34.4087 53.84 34.6459 53.863V53.8285C34.6574 53.5914 34.6535 53.3542 34.6574 53.1171C34.6574 52.7155 34.665 52.31 34.6497 51.9084C34.6497 51.8472 34.6421 51.786 34.6268 51.7286C34.6076 51.6559 34.5694 51.5909 34.5044 51.5488C34.3782 51.4685 34.1984 51.4991 34.0607 51.5221C34.0377 51.5221 34.0071 51.5221 33.988 51.5335C33.9765 51.5374 33.9803 51.5335 33.9765 51.5488C33.9727 51.5603 33.9689 51.5756 33.9689 51.5871C33.965 51.6062 33.9612 51.6253 33.9574 51.6483C33.9383 51.7707 33.9344 51.8931 33.9344 52.0155C33.9268 52.4515 33.9268 52.8876 33.9344 53.3236C33.9344 53.469 33.9306 53.6182 33.9383 53.7635V53.7979C33.9459 53.7559 33.9459 53.71 33.9459 53.6679V53.6602Z" fill="#0C1C2D"/>
<path d="M37.358 67.3652C37.0291 67.3843 36.7498 67.3002 36.5586 67.0095L36.6733 66.8947C36.9832 66.9292 37.2509 67.0248 37.381 67.3384L37.3542 67.3652H37.358Z" fill="#0C1C2D"/>
<path d="M37.3578 66.409C37.2048 66.4166 37.0479 66.4052 36.9064 66.3478C36.7649 66.2904 36.6463 66.1833 36.5583 66.0533V67.9658C36.5583 67.9658 36.5928 67.9313 36.6119 67.916C36.631 67.9007 36.654 67.8625 36.6731 67.8548C36.6884 67.8472 36.7152 67.8548 36.7305 67.8587C36.7572 67.8587 36.784 67.8663 36.807 67.8701C36.8567 67.8778 36.9026 67.8893 36.9485 67.9046C37.1474 67.9696 37.2966 68.1034 37.3807 68.2947V66.3822L37.3539 66.409C37.3539 66.4358 37.3501 66.4625 37.3539 66.4931C37.3539 66.5582 37.3539 66.6232 37.3539 66.692C37.3539 66.9177 37.3539 67.1434 37.3539 67.3691C37.3539 67.5947 37.3539 67.8204 37.3539 68.0461V68.1953C37.3539 68.2373 37.3539 68.2832 37.3616 68.3253L37.3884 68.2985C37.3884 68.2718 37.3922 68.245 37.3884 68.2144C37.3884 68.1494 37.3884 68.0843 37.3884 68.0155C37.3884 67.7898 37.3884 67.5641 37.3884 67.3384C37.3884 67.1128 37.3884 66.8871 37.3884 66.6614V66.5123C37.3884 66.4702 37.3884 66.4243 37.3807 66.3822C37.2966 66.1909 37.1474 66.0571 36.9485 65.9921C36.9026 65.9768 36.8529 65.9653 36.807 65.9576C36.7802 65.9538 36.7572 65.95 36.7305 65.9462C36.7152 65.9462 36.6846 65.9347 36.6731 65.9423C36.654 65.95 36.6272 65.9882 36.6119 66.0035C36.5928 66.0188 36.5775 66.038 36.5583 66.0533C36.5583 66.08 36.5545 66.1068 36.5583 66.1374C36.5583 66.2024 36.5583 66.2675 36.5583 66.3363C36.5583 66.562 36.5583 66.7877 36.5583 67.0133C36.5583 67.239 36.5583 67.4647 36.5583 67.6904V67.8395C36.5583 67.8816 36.5583 67.9275 36.566 67.9696C36.6501 68.0996 36.7687 68.2067 36.9141 68.2641C37.0594 68.3215 37.2124 68.333 37.3654 68.3253C37.3731 68.3253 37.3731 68.0002 37.3731 68.0461C37.3731 67.8204 37.3731 67.5947 37.3731 67.3691C37.3731 67.3002 37.3654 66.4128 37.3654 66.4128L37.3578 66.409Z" fill="#0C1C2D"/>
<path d="M35.7675 66.2827C35.6298 66.168 35.4424 66.0571 35.691 65.8849C35.7178 65.8658 35.8631 66.0188 35.9549 66.0915C35.8937 66.1565 35.8325 66.2177 35.7713 66.2827H35.7675Z" fill="#0C1C2D"/>
<path d="M35.767 65.3265C35.7249 65.2921 35.679 65.2576 35.637 65.2194C35.6025 65.1888 35.5719 65.1467 35.5681 65.1008V65.1276L35.5758 66.3057L35.5681 66.9712V66.998C35.5681 66.9483 35.6064 66.91 35.6408 66.8794C35.6523 66.868 35.6676 66.8565 35.679 66.8488C35.6867 66.845 35.6867 66.8412 35.6943 66.8412C35.7058 66.8412 35.7211 66.8527 35.7288 66.8603C35.8091 66.9139 35.8741 66.9904 35.9468 67.0516V65.1391C35.8856 65.2041 35.8244 65.2653 35.7632 65.3303C35.7632 65.3571 35.7594 65.3839 35.7632 65.4145C35.7632 65.4795 35.7632 65.5445 35.7632 65.6134C35.7632 65.839 35.7632 66.0647 35.7632 66.2904C35.7632 66.5161 35.7632 66.7417 35.7632 66.9674V67.1166C35.7632 67.1587 35.7632 67.2046 35.7708 67.2466C35.832 67.1816 35.8932 67.1204 35.9544 67.0554C35.9544 67.0286 35.9583 67.0018 35.9544 66.9712C35.9544 66.9062 35.9544 66.8412 35.9544 66.7723C35.9544 66.5467 35.9544 66.321 35.9544 66.0953C35.9544 65.8696 35.9544 65.644 35.9544 65.4183V65.2691C35.9544 65.227 35.9544 65.1811 35.9468 65.1391C35.8932 65.097 35.8435 65.0473 35.7938 65.0014C35.7708 64.9822 35.7479 64.9631 35.7249 64.944C35.7135 64.9363 35.6982 64.9249 35.6829 64.9325C35.6484 64.9516 35.614 64.9861 35.5911 65.0167C35.5681 65.0473 35.5643 65.0817 35.5605 65.1238C35.5605 65.185 35.5605 65.3227 35.5566 65.3724C35.5566 65.5139 35.5566 65.6554 35.5566 65.7931C35.5566 66.103 35.5566 66.4166 35.5566 66.7264C35.5566 66.7762 35.5566 66.9139 35.5605 66.9751C35.5605 66.9865 35.5605 67.0018 35.5605 67.0133C35.5605 67.021 35.5605 67.0248 35.5605 67.0324C35.5681 67.0592 35.5834 67.0822 35.5987 67.1013C35.6446 67.1548 35.702 67.1969 35.7555 67.239C35.7555 67.2122 35.7594 67.1854 35.7555 67.1548C35.7555 67.0898 35.7555 67.0248 35.7555 66.9559C35.7555 66.7303 35.7555 66.5046 35.7555 66.2789C35.7555 66.0532 35.7555 65.8276 35.7555 65.6019V65.4527C35.7555 65.4106 35.7555 65.3647 35.7479 65.3227L35.767 65.3265Z" fill="#0C1C2D"/>
<path d="M36.1606 66.6576C36.0305 66.5314 35.9005 66.409 35.7666 66.2866C35.8278 66.2215 35.889 66.1603 35.9502 66.0953C36.0764 66.2254 36.1988 66.3592 36.3251 66.4893C36.2677 66.5428 36.2141 66.6002 36.1606 66.6576Z" fill="#0C1C2D"/>
<path d="M36.1603 65.7013C36.0303 65.5751 35.9002 65.4527 35.7663 65.3303V67.2428C35.8122 67.1969 35.8581 67.1472 35.904 67.1013L35.9385 67.0669L35.95 67.0554L35.9576 67.063C35.9576 67.063 35.9691 67.0745 35.9729 67.0783C35.9959 67.1051 36.0226 67.1281 36.0456 67.1548C36.1374 67.2543 36.233 67.3499 36.3248 67.4494V65.5369C36.2674 65.5904 36.2139 65.6478 36.1603 65.7052C36.1603 65.7319 36.1565 65.7587 36.1603 65.7893C36.1603 65.8543 36.1603 65.9194 36.1603 65.9882C36.1603 66.2139 36.1603 66.4396 36.1603 66.6652C36.1603 66.8909 36.1603 67.1166 36.1603 67.3423V67.4914C36.1603 67.5335 36.1603 67.5794 36.168 67.6215C36.2215 67.5641 36.2751 67.5067 36.3325 67.4532C36.3325 67.4264 36.3363 67.3996 36.3325 67.369C36.3325 67.304 36.3325 67.239 36.3325 67.1701C36.3325 66.9445 36.3325 66.7188 36.3325 66.4931C36.3325 66.2674 36.3325 66.0418 36.3325 65.8161V65.6669C36.3325 65.6248 36.3325 65.5789 36.3248 65.5369C36.233 65.4374 36.1412 65.3418 36.0456 65.2423C36.0226 65.2194 35.9997 65.1926 35.9767 65.1697L35.9614 65.1544L35.95 65.1429L35.9423 65.1505C35.9423 65.1505 35.9194 65.1773 35.9079 65.185C35.862 65.2347 35.8122 65.2844 35.7663 65.3303C35.7663 65.3571 35.7625 65.3839 35.7663 65.4145C35.7663 65.4795 35.7663 65.5445 35.7663 65.6134C35.7663 65.839 35.7663 66.0647 35.7663 66.2904C35.7663 66.5161 35.7663 66.7417 35.7663 66.9674V67.1166C35.7663 67.1587 35.7664 67.2046 35.774 67.2466C35.9041 67.369 36.0379 67.4953 36.168 67.6177C36.168 67.5909 36.1718 67.5641 36.168 67.5335C36.168 67.4685 36.168 67.4035 36.168 67.3346C36.168 67.1089 36.168 66.8833 36.168 66.6576C36.168 66.4319 36.168 66.2062 36.168 65.9806V65.8314C36.168 65.7893 36.168 65.7434 36.1603 65.7013Z" fill="#0C1C2D"/>
<path d="M37.3853 67.3384L37.5536 67.5335C37.4885 67.4761 37.4235 67.4188 37.3623 67.3652L37.3891 67.3384H37.3853Z" fill="#0C1C2D"/>
<path d="M37.3848 68.2947L37.5531 68.4898V66.5773C37.4881 66.5199 37.4231 66.4625 37.3619 66.409V68.3215C37.3619 68.3215 37.3772 68.3061 37.3887 68.2947C37.3887 68.2679 37.3925 68.2411 37.3887 68.2105C37.3887 68.1455 37.3887 68.0805 37.3887 68.0116C37.3887 67.786 37.3887 67.5603 37.3887 67.3346C37.3887 67.1089 37.3887 66.8832 37.3887 66.6576V66.5084C37.3887 66.4663 37.3887 66.4204 37.381 66.3784C37.3734 66.386 37.3657 66.3975 37.3542 66.4051C37.3542 66.4319 37.3504 66.4587 37.3542 66.4893C37.3542 66.5543 37.3542 66.6193 37.3542 66.6882C37.3542 66.9139 37.3542 67.1395 37.3542 67.3652C37.3542 67.5909 37.3542 67.8166 37.3542 68.0422V68.1914C37.3542 68.2335 37.3542 68.2794 37.3619 68.3215C37.4269 68.3788 37.4919 68.4324 37.5531 68.4898C37.5531 68.463 37.557 68.4362 37.5531 68.4056C37.5531 68.3406 37.5531 68.2756 37.5531 68.2067C37.5531 67.981 37.5531 67.7553 37.5531 67.5297C37.5531 67.304 37.5531 67.0783 37.5531 66.8527V66.7035C37.5531 66.6614 37.5531 66.6155 37.5455 66.5734L37.3772 66.3784C37.3772 66.4051 37.3734 66.4319 37.3772 66.4625C37.3772 66.5275 37.3772 66.5926 37.3772 66.6614C37.3772 66.8871 37.3772 67.1127 37.3772 67.3384C37.3772 67.5641 37.3772 67.7898 37.3772 68.0155V68.1646C37.3772 68.2067 37.3772 68.2526 37.3848 68.2947Z" fill="#0C1C2D"/>
<path d="M36.3256 66.4893C36.4404 66.627 36.5589 66.7609 36.6775 66.8947L36.5628 67.0095C36.4289 66.8909 36.295 66.7723 36.1611 66.6576C36.2147 66.6002 36.2682 66.5466 36.3256 66.4893Z" fill="#0C1C2D"/>
<path d="M36.3252 67.4455C36.4399 67.5832 36.5585 67.7171 36.6771 67.851V65.9385C36.658 65.9576 36.635 65.9805 36.6159 65.9997L36.5776 66.0379C36.5776 66.0379 36.5662 66.0532 36.5432 66.0379C36.417 65.927 36.2908 65.8122 36.1607 65.7013V67.6138C36.2143 67.5564 36.2678 67.5029 36.3252 67.4455C36.3252 67.4187 36.329 67.392 36.3252 67.3614C36.3252 67.2963 36.3252 67.2313 36.3252 67.1625C36.3252 66.9368 36.3252 66.7111 36.3252 66.4855C36.3252 66.2598 36.3252 66.0341 36.3252 65.8084V65.6593C36.3252 65.6172 36.3252 65.5713 36.3175 65.5292C36.2602 65.5828 36.2066 65.6401 36.1531 65.6975C36.1531 65.7243 36.1492 65.7511 36.1531 65.7817C36.1531 65.8467 36.1531 65.9117 36.1531 65.9806C36.1531 66.2062 36.1531 66.4319 36.1531 66.6576C36.1531 66.8832 36.1531 67.1089 36.1531 67.3346V67.4838C36.1531 67.5258 36.1531 67.5717 36.1607 67.6138C36.2869 67.7247 36.4132 67.8395 36.5432 67.9504C36.5623 67.9696 36.5585 67.9696 36.5776 67.9504L36.6159 67.9122C36.635 67.893 36.658 67.8701 36.6771 67.851C36.6771 67.8242 36.6809 67.7974 36.6771 67.7668C36.6771 67.7018 36.6771 67.6368 36.6771 67.5679C36.6771 67.3423 36.6771 67.1166 36.6771 66.8909C36.6771 66.6652 36.6771 66.4395 36.6771 66.2139V66.0647C36.6771 66.0226 36.6771 65.9767 36.6694 65.9347C36.5509 65.8008 36.4361 65.6631 36.3175 65.5292C36.3175 65.556 36.3137 65.5828 36.3175 65.6134C36.3175 65.6784 36.3175 65.7434 36.3175 65.8123C36.3175 66.0379 36.3175 66.2636 36.3175 66.4893C36.3175 66.7149 36.3175 66.9406 36.3175 67.1663V67.3155C36.3175 67.3575 36.3175 67.4034 36.3252 67.4455Z" fill="#0C1C2D"/>
<path d="M34.8639 26.7131C32.6837 26.7743 30.5149 26.6902 28.3652 27.1186C30.4575 25.841 32.6378 25.8334 34.8639 26.7131Z" fill="#0C1C2D"/>
<path d="M34.8637 25.7569C32.6949 25.8143 30.507 25.7454 28.365 26.1623V28.0748C29.3404 27.4896 30.4229 27.1186 31.5627 27.0612C32.7026 27.0038 33.808 27.2601 34.8599 27.6694C34.8216 27.6541 34.8675 26.7973 34.8675 26.7131C34.8675 26.6213 34.9326 25.7837 34.8599 25.7569C33.808 25.3476 32.6949 25.0952 31.5627 25.1487C30.4305 25.2023 29.3404 25.5733 28.365 26.1623C28.3497 26.1738 28.3574 26.4722 28.3574 26.4416C28.3574 26.6672 28.3574 26.8929 28.3574 27.1186C28.3574 27.1913 28.388 28.071 28.365 28.0748C30.507 27.6579 32.6911 27.7306 34.8637 27.6694C34.8943 27.6694 34.8637 25.7569 34.8637 25.7569Z" fill="#0C1C2D"/>
<path d="M17.8119 27.1568C15.624 26.5639 13.3787 26.9388 10.6553 26.8585C13.9409 25.7224 15.8305 25.8142 17.8119 27.1568Z" fill="#0C1C2D"/>
<path d="M17.8118 26.2006C15.4862 25.5847 13.0267 25.9672 10.6552 25.9022V27.8147C11.9557 27.3672 13.3327 26.9732 14.7212 27.0344C15.8495 27.0841 16.8785 27.4896 17.8118 28.1131C17.8041 28.1092 17.8194 27.7956 17.8194 27.8338C17.8194 27.6082 17.8194 27.3825 17.8194 27.1568C17.8194 26.9311 17.8194 26.7055 17.8194 26.4798C17.8194 26.4377 17.8385 26.2159 17.8118 26.2006C16.8785 25.5771 15.8495 25.1716 14.7212 25.1219C13.3327 25.0607 11.9557 25.4585 10.6552 25.9022C10.5443 25.9405 10.7049 27.8147 10.6552 27.8147C13.0305 27.8759 15.4862 27.4972 17.8118 28.1131C17.7888 28.1054 17.8194 27.2333 17.8194 27.1568C17.8194 27.0765 17.8653 26.2159 17.8118 26.2006Z" fill="#0C1C2D"/>
<path d="M26.2726 50.0303C24.2453 51.2467 22.1913 51.2008 20.1182 50.168C22.1684 50.1565 24.2262 50.3172 26.2726 50.0303Z" fill="#0C1C2D"/>
<path d="M26.2725 49.0741C25.3392 49.6249 24.3027 49.9729 23.2125 49.9882C22.1224 50.0035 21.0858 49.6861 20.1181 49.2156V51.1281C22.1721 51.1204 24.23 51.2658 26.2725 50.9904C26.372 50.9751 26.2037 49.0894 26.2725 49.0779C24.23 49.3533 22.1721 49.2118 20.1181 49.2156C20.1066 49.2156 20.1066 50.0992 20.1105 50.1718C20.1105 50.3975 20.1105 50.6232 20.1105 50.8489C20.1105 50.8833 20.0952 51.1166 20.1181 51.1281C21.0858 51.6024 22.1301 51.9122 23.2125 51.9007C24.295 51.8893 25.3392 51.5412 26.2725 50.9866C26.2878 50.9789 26.2802 50.6767 26.2802 50.7073C26.2802 50.4817 26.2802 50.256 26.2802 50.0303C26.2802 49.8046 26.2802 49.579 26.2802 49.3533C26.2802 49.3189 26.2572 49.0817 26.2725 49.0741Z" fill="#0C1C2D"/>
<path d="M25.7796 47.173C25.0643 47.72 20.6617 47.72 19.9082 47.1654C21.9049 46.9129 23.7944 46.7829 25.7796 47.173Z" fill="#0C1C2D"/>
<path d="M25.7794 46.2168C25.4696 46.4425 25.0029 46.4807 24.6357 46.5266C24.0467 46.6031 23.45 46.6261 22.8571 46.6261C22.2642 46.6261 21.6599 46.5993 21.0708 46.5228C20.696 46.4731 20.2293 46.431 19.908 46.2053V48.1178C21.8626 47.873 23.8325 47.7506 25.7794 48.1255C25.7641 48.1255 25.7909 47.2419 25.7871 47.1692C25.7832 47.0965 25.8215 46.2206 25.7794 46.213C23.8325 45.8381 21.8626 45.9605 19.908 46.2053C19.8813 46.2053 19.8966 47.0889 19.9004 47.1616C19.9004 47.3872 19.9004 47.6129 19.9004 47.8386C19.9004 47.8807 19.8813 48.0987 19.908 48.1178C20.2293 48.3435 20.696 48.3856 21.0708 48.4353C21.6637 48.5118 22.2604 48.5386 22.8571 48.5386C23.4538 48.5386 24.0467 48.5156 24.6357 48.4391C25.0029 48.3932 25.4658 48.3511 25.7794 48.1293C25.7985 48.1178 25.7871 47.8233 25.7871 47.8501C25.7871 47.6244 25.7871 47.3987 25.7871 47.173C25.7871 46.9474 25.7871 46.7217 25.7871 46.496C25.7871 46.4578 25.7603 46.2283 25.7794 46.2168Z" fill="#0C1C2D"/>
<path d="M18.168 27.3672C18.2559 27.3098 18.3898 27.1989 18.4051 27.2103C18.5046 27.3098 18.5811 27.4322 18.6652 27.5469C18.5619 27.5699 18.4472 27.6349 18.3592 27.6081C18.2789 27.5814 18.233 27.4551 18.168 27.3672Z" fill="#0C1C2D"/>
<path d="M18.1677 28.3234C18.2136 28.2928 18.2595 28.2546 18.3092 28.2201C18.3284 28.2048 18.3475 28.1934 18.3704 28.1781C18.3781 28.1742 18.3934 28.1628 18.4049 28.1628C18.4163 28.1628 18.424 28.1819 18.4316 28.1895C18.4431 28.201 18.4546 28.2163 18.4661 28.2278C18.489 28.2546 18.512 28.2852 18.5349 28.3158C18.5808 28.377 18.6229 28.442 18.665 28.5032V26.5907C18.6076 26.606 18.5502 26.6289 18.4928 26.6442C18.4469 26.6557 18.3896 26.6672 18.3475 26.6442C18.3054 26.6251 18.2786 26.583 18.2557 26.5448C18.2251 26.4989 18.2021 26.4492 18.1677 26.4071C18.1677 26.4339 18.1639 26.4606 18.1677 26.4912C18.1677 26.5563 18.1677 26.6213 18.1677 26.6901C18.1677 26.9158 18.1677 27.1415 18.1677 27.3672C18.1677 27.5928 18.1677 27.8185 18.1677 28.0442V28.1934C18.1677 28.2355 18.1677 28.2813 18.1754 28.3234C18.206 28.3693 18.2327 28.4152 18.2633 28.4611C18.2863 28.4994 18.3131 28.5414 18.3551 28.5606C18.401 28.5835 18.4546 28.572 18.5005 28.5606C18.5579 28.5453 18.6114 28.5223 18.6726 28.507C18.6726 28.4802 18.6764 28.4535 18.6726 28.4229C18.6726 28.3578 18.6726 28.2928 18.6726 28.224C18.6726 27.9983 18.6726 27.7726 18.6726 27.5469C18.6726 27.3213 18.6726 27.0956 18.6726 26.8699V26.7207C18.6726 26.6787 18.6726 26.6328 18.665 26.5907C18.6191 26.5295 18.577 26.4645 18.5349 26.4033C18.512 26.3727 18.489 26.3421 18.4661 26.3153C18.4546 26.3038 18.4431 26.2885 18.4316 26.277C18.4278 26.2694 18.4125 26.2541 18.4049 26.2503C18.3934 26.2503 18.3781 26.2617 18.3704 26.2656C18.3513 26.277 18.3284 26.2923 18.3092 26.3076C18.2633 26.3421 18.2174 26.3765 18.1677 26.4109C18.1677 26.4377 18.1639 26.4645 18.1677 26.4951C18.1677 26.5601 18.1677 26.6251 18.1677 26.694C18.1677 26.9196 18.1677 27.1453 18.1677 27.371C18.1677 27.5967 18.1677 27.8223 18.1677 28.048V28.1972C18.1677 28.2393 18.1677 28.2852 18.1754 28.3272L18.1677 28.3234Z" fill="#0C1C2D"/>
</svg>
