<svg width="291" height="212" viewBox="0 0 291 212" fill="none" xmlns="http://www.w3.org/2000/svg">
<path d="M190.116 164.195C154.465 153.268 96.8536 153.268 61.4327 164.195C26.0118 175.123 26.2174 192.866 61.8843 203.801C97.5512 214.737 155.146 214.729 190.567 203.801C225.988 192.874 225.783 175.133 190.116 164.195Z" fill="#F5F5F5"/>
<path d="M111.746 170.682C100.771 164.439 83.0193 164.439 72.1324 170.682C61.2455 176.925 61.2894 187.068 72.2639 193.316C83.2384 199.564 100.99 199.559 111.872 193.316C122.754 187.073 122.706 176.935 111.746 170.682Z" fill="#E0E0E0"/>
<g clip-path="url(#clip0_1188_216)">
<path d="M30.1499 132.994C24.6604 139.145 21.2485 146.869 20.3989 155.069C20.1846 156.832 20.2495 158.616 20.591 160.358C20.9785 162.044 21.8105 163.596 23.0005 164.852C24.0865 166.045 25.3356 167.14 26.1126 168.576C26.4994 169.317 26.7252 170.132 26.7752 170.966C26.8251 171.801 26.6981 172.637 26.4024 173.419C25.7164 175.386 24.3642 176.99 22.9874 178.513C21.4587 180.203 19.844 181.935 19.1943 184.176C19.1155 184.447 18.6988 184.309 18.7774 184.038C19.908 180.139 23.6929 177.924 25.498 174.413C26.3402 172.774 26.6938 170.871 25.9042 169.142C25.2137 167.629 23.9266 166.499 22.8166 165.3C21.6378 164.092 20.7727 162.614 20.2969 160.994C19.8678 159.276 19.7343 157.496 19.9021 155.732C20.2167 151.756 21.1546 147.853 22.6814 144.168C24.4006 139.952 26.8283 136.062 29.8594 132.665C30.0471 132.455 30.3364 132.785 30.1499 132.994H30.1499Z" fill="white"/>
<path d="M20.517 152.413C19.1605 152.084 17.9652 151.283 17.1447 150.154C16.3241 149.025 15.9317 147.64 16.0374 146.249C16.0598 145.967 16.4984 145.989 16.476 146.27C16.3751 147.566 16.7408 148.856 17.507 149.906C18.2733 150.956 19.3896 151.697 20.6546 151.996C20.9294 152.062 20.7902 152.478 20.517 152.413H20.517Z" fill="white"/>
<path d="M22.3694 164.319C24.8194 162.856 26.628 160.524 27.4345 157.787C27.5142 157.516 27.931 157.653 27.8514 157.924C27.0067 160.771 25.1197 163.195 22.5668 164.711C22.3234 164.856 22.1273 164.463 22.3694 164.319V164.319Z" fill="white"/>
<path d="M24.808 140.369C25.3063 140.605 25.8556 140.715 26.4066 140.687C26.9576 140.659 27.493 140.494 27.9648 140.208C28.2062 140.061 28.4021 140.454 28.1622 140.6C27.6395 140.914 27.048 141.095 26.4393 141.127C25.8306 141.159 25.2233 141.042 24.6704 140.785C24.6162 140.766 24.5717 140.726 24.5457 140.674C24.5198 140.623 24.5144 140.563 24.5308 140.508C24.5493 140.453 24.5888 140.407 24.6407 140.381C24.6926 140.355 24.7527 140.351 24.808 140.369V140.369Z" fill="white"/>
<path d="M58.7529 150.668C50.6666 152.274 43.2919 156.387 37.6764 162.423C36.4444 163.701 35.4216 165.165 34.6455 166.761C33.9398 168.341 33.67 170.08 33.864 171.8C34.0128 173.406 34.3509 175.032 34.1065 176.647C33.9692 177.472 33.659 178.258 33.1964 178.954C32.7339 179.651 32.1293 180.242 31.4224 180.688C29.6899 181.846 27.6446 182.313 25.6287 182.699C23.3903 183.129 21.0586 183.539 19.1905 184.937C18.9641 185.107 18.7145 184.746 18.9405 184.576C22.1907 182.144 26.5462 182.654 30.1018 180.937C31.7609 180.136 33.1886 178.83 33.5996 176.973C33.959 175.35 33.6117 173.672 33.4471 172.047C33.2332 170.373 33.4325 168.672 34.0277 167.092C34.7199 165.461 35.6847 163.96 36.8805 162.653C39.5259 159.667 42.6243 157.116 46.0622 155.093C49.973 152.762 54.2537 151.117 58.7191 150.23C58.9955 150.175 59.0274 150.613 58.7529 150.668H58.7529Z" fill="white"/>
<path d="M39.3694 160.373C38.4846 159.293 38.0124 157.934 38.0371 156.538C38.0618 155.143 38.5818 153.801 39.5042 152.754C39.6916 152.542 40.0288 152.824 39.8412 153.035C38.9804 154.009 38.4961 155.259 38.4758 156.558C38.4554 157.858 38.9004 159.122 39.7302 160.123C39.9103 160.34 39.5484 160.589 39.3694 160.373H39.3694Z" fill="white"/>
<path d="M33.6815 170.995C36.5184 171.302 39.3668 170.528 41.6587 168.828C41.8857 168.66 42.1353 169.021 41.9087 169.189C39.5203 170.954 36.5545 171.753 33.6031 171.427C33.3218 171.395 33.4017 170.964 33.6815 170.995V170.995Z" fill="white"/>
<path d="M50.0476 153.339C50.3029 153.828 50.6757 154.246 51.1324 154.556C51.5892 154.865 52.1157 155.056 52.6646 155.112C52.9461 155.14 52.8659 155.571 52.5861 155.544C51.98 155.479 51.3988 155.268 50.8934 154.927C50.388 154.586 49.9737 154.127 49.6867 153.589C49.6554 153.541 49.6437 153.482 49.654 153.425C49.6643 153.369 49.6959 153.318 49.7422 153.284C49.7901 153.251 49.8491 153.238 49.9063 153.249C49.9635 153.259 50.0143 153.292 50.0476 153.339V153.339Z" fill="white"/>
<path d="M146.352 180.694L150.657 179.246L147.119 161.951L140.766 164.089L146.352 180.694Z" fill="#FFB6B6"/>
<path d="M144.78 179.658L145.992 179.251L150.076 175.735L153.259 176.806L153.259 176.806C154.692 176.324 156.258 176.431 157.612 177.103C158.966 177.776 159.997 178.958 160.479 180.391L160.539 180.567L146.657 185.237L144.78 179.658Z" fill="#2F2E41"/>
<path d="M125.466 177.848L129.886 178.894L136.021 162.342L129.498 160.799L125.466 177.848Z" fill="#FFB6B6"/>
<path d="M124.68 176.138L125.924 176.432L131.249 175.606L133.385 178.197L133.385 178.197C134.856 178.545 136.129 179.463 136.923 180.75C137.718 182.036 137.968 183.585 137.621 185.056L137.578 185.237L123.325 181.866L124.68 176.138Z" fill="#2F2E41"/>
<path d="M87.8252 175.434H95.623V162.512H87.8252V175.434Z" fill="#CACACA"/>
<path d="M95.2323 169.349L94.2314 170.824L112.946 183.523L113.947 182.049L95.2323 169.349Z" fill="#CACACA"/>
<path d="M88.2158 169.35L69.501 182.049L70.5018 183.524L89.2166 170.824L88.2158 169.35Z" fill="#CACACA"/>
<path d="M113.447 185.237C114.8 185.237 115.898 184.14 115.898 182.786C115.898 181.433 114.8 180.335 113.447 180.335C112.093 180.335 110.996 181.433 110.996 182.786C110.996 184.14 112.093 185.237 113.447 185.237Z" fill="#CACACA"/>
<path d="M91.6129 185.237C92.9664 185.237 94.0636 184.14 94.0636 182.786C94.0636 181.433 92.9664 180.335 91.6129 180.335C90.2593 180.335 89.1621 181.433 89.1621 182.786C89.1621 184.14 90.2593 185.237 91.6129 185.237Z" fill="#CACACA"/>
<path d="M70.0015 185.237C71.355 185.237 72.4523 184.14 72.4523 182.786C72.4523 181.433 71.355 180.335 70.0015 180.335C68.648 180.335 67.5508 181.433 67.5508 182.786C67.5508 184.14 68.648 185.237 70.0015 185.237Z" fill="#CACACA"/>
<path d="M92.504 170.087H90.7217V182.786H92.504V170.087Z" fill="#CACACA"/>
<path d="M90.0526 168.305H93.3945V151.149H90.0526V168.305Z" fill="#CACACA"/>
<path d="M74.7344 153.823V149.812C74.7352 149.074 75.0289 148.366 75.551 147.844C76.0731 147.322 76.781 147.028 77.5193 147.027H103.561C104.3 147.028 105.008 147.322 105.53 147.844C106.052 148.366 106.345 149.074 106.346 149.812V153.823C106.345 154.561 106.052 155.269 105.53 155.791C105.008 156.313 104.3 156.607 103.561 156.608H77.5193C76.781 156.607 76.0731 156.313 75.551 155.791C75.0289 155.269 74.7352 154.561 74.7344 153.823Z" fill="#3F3D56"/>
<path d="M59.019 146.427L42.2059 117.519C41.6591 116.576 41.5086 115.455 41.7872 114.401C42.0659 113.348 42.7511 112.448 43.6925 111.899L44.6752 111.328C45.6179 110.781 46.7389 110.63 47.7924 110.909C48.8459 111.188 49.7458 111.873 50.2947 112.814L67.1078 141.723C67.6546 142.665 67.8052 143.786 67.5265 144.84C67.2478 145.893 66.5626 146.793 65.6212 147.342L64.6385 147.914C63.6959 148.46 62.5748 148.611 61.5213 148.332C60.4678 148.054 59.5679 147.368 59.019 146.427V146.427Z" fill="#3F3D56"/>
<path d="M74.844 153.685C71.2096 153.681 67.7252 152.235 65.1553 149.665C62.5854 147.095 61.1399 143.611 61.1357 139.977H62.6177C62.618 142.216 63.2333 144.413 64.3966 146.327C65.56 148.24 67.2265 149.798 69.2146 150.829C71.2026 151.861 73.4357 152.326 75.6702 152.175C77.9048 152.024 80.0549 151.262 81.886 149.972L82.7406 151.183C80.4319 152.817 77.6721 153.691 74.844 153.685V153.685Z" fill="#3F3D56"/>
<path d="M90.4045 132.937C90.4045 132.937 131.9 120.341 138.198 135.901C144.497 151.462 150.424 169.246 150.424 169.246L142.274 171.839L126.342 145.164C126.342 145.164 87.9424 154.796 79.9111 143.496L90.4045 132.937Z" fill="#2F2E41"/>
<path d="M60.3945 101.445L50.7616 100.704L48.9092 112.56C48.9092 112.56 60.765 143.311 81.1421 146.275L100.408 128.862L79.0708 120.912L60.3945 101.445Z" fill="#3170B5"/>
<path d="M59.2684 94.3973C65.492 91.2902 68.0185 83.7263 64.9115 77.5027C61.8045 71.279 54.2405 68.7526 48.0169 71.8596C41.7933 74.9666 39.2668 82.5306 42.3738 88.7542C45.4808 94.9778 53.0448 97.5043 59.2684 94.3973Z" fill="#FFB8B8"/>
<path d="M57.1374 96.1755C56.5559 96.6619 55.6798 96.9182 54.4815 96.9554C50.9548 97.0642 47.4898 96.0131 44.618 93.9631C41.7462 91.9132 39.6262 88.9777 38.5833 85.607C38.0585 83.9107 37.614 81.3802 38.4766 78.958C39.0969 77.2171 40.3148 75.7571 41.4077 74.5251C42.3537 73.4585 43.3409 72.4135 44.3424 71.4199C45.5386 70.2321 46.9646 68.9131 48.7533 68.2935C50.0639 67.8398 51.4687 67.7993 52.8272 67.7602C53.3005 67.7464 53.7903 67.7325 54.266 67.7007C55.4491 67.6605 56.6104 67.3709 57.6739 66.8508C57.8922 66.7338 58.1331 66.665 58.3803 66.6491C58.6275 66.6332 58.8752 66.6705 59.1068 66.7585C59.3424 66.8478 59.5562 66.9865 59.7337 67.1655C59.9112 67.3444 60.0481 67.5593 60.1354 67.7958C60.3072 68.2606 60.4619 68.6797 60.9875 68.8344C61.1769 68.8854 61.376 68.8891 61.5672 68.8453C61.7584 68.8015 61.9359 68.7115 62.0843 68.5831C62.1626 68.5154 62.2566 68.4684 62.3577 68.4462C62.4589 68.4241 62.5639 68.4276 62.6634 68.4564C62.763 68.484 62.8543 68.5356 62.9294 68.6067C63.0044 68.6778 63.0609 68.7661 63.094 68.8641L63.1371 68.9917C63.245 68.9173 63.3692 68.8704 63.4992 68.8547C63.6292 68.8391 63.7611 68.8553 63.8835 68.9019C64.0608 68.9657 64.2111 69.0881 64.3095 69.2488C64.4079 69.4096 64.4484 69.5991 64.4245 69.7861C64.2487 71.3278 63.6443 72.7894 62.6798 74.005C62.013 74.8286 61.1907 75.5131 60.2598 76.0196L60.1106 76.1018L60.0075 75.9465C55.8219 77.493 54.5437 81.8783 54.7504 85.4967L54.3843 85.5459C54.3559 85.4283 54.3041 85.3177 54.2318 85.2207C54.1596 85.1237 54.0685 85.0423 53.964 84.9814C53.843 84.9047 53.7081 84.8525 53.5669 84.828C53.4258 84.8034 53.2812 84.8069 53.1414 84.8383C52.8756 84.9221 52.6406 85.0827 52.466 85.2998C52.2914 85.5169 52.1849 85.7809 52.1602 86.0585C52.1412 86.3486 52.1828 86.6394 52.2823 86.9126C52.3819 87.1857 52.5373 87.4351 52.7385 87.6449C53.1765 88.08 53.6824 88.4408 54.2364 88.7132C54.4876 88.855 54.7475 89.0018 54.9936 89.1629C56.3867 90.0824 57.3919 91.4832 57.817 93.0974C58.0081 93.8362 58.1177 94.8901 57.5552 95.7157C57.4379 95.8876 57.2973 96.0423 57.1374 96.1755V96.1755Z" fill="#2F2E41"/>
<path d="M139.837 140.673C137.898 157.348 133.752 172.951 133.752 172.951L125.972 171.839L127.744 140.395" fill="#2F2E41"/>
<path d="M63.1187 85.1507C62.7465 85.1505 62.3842 85.0312 62.0847 84.8104C61.7851 84.5895 61.564 84.2787 61.4537 83.9233C56.3984 81.2887 59.071 79.4308 59.4191 77.3393C59.3516 77.1208 59.3278 76.8912 59.349 76.6635C59.3703 76.4359 59.4361 76.2146 59.5429 76.0124C59.6496 75.8102 59.7951 75.631 59.9711 75.485C60.1471 75.3391 60.3502 75.2292 60.5686 75.1617L65.7367 73.5645C66.178 73.4286 66.6551 73.4733 67.0635 73.6889C67.4718 73.9044 67.7779 74.2732 67.9146 74.7142L69.9493 81.2982C70.085 81.7394 70.0402 82.2164 69.8247 82.6247C69.6092 83.0329 69.2406 83.339 68.7997 83.4758L63.6316 85.073C63.4655 85.1244 63.2926 85.1506 63.1187 85.1507V85.1507Z" fill="#3F3D56"/>
<path d="M66.4957 73.336C66.8719 73.3333 67.239 73.4519 67.5425 73.6743C67.846 73.8966 68.0699 74.2107 68.1808 74.5702L70.3242 81.302C70.4692 81.753 70.4327 82.2427 70.2226 82.6673C70.1216 82.8755 69.9801 83.0614 69.8064 83.2143C69.6327 83.3672 69.4303 83.484 69.211 83.5578L68.049 83.9476L64.8223 73.814L65.9841 73.4242C66.1491 73.3687 66.3217 73.3389 66.4957 73.336V73.336Z" fill="#3170B5"/>
<path d="M39.7803 88.901C39.5396 88.9009 39.3054 88.8238 39.1117 88.681C38.918 88.5382 38.7751 88.3372 38.7038 88.1074L38.1654 86.3653C38.1218 86.224 38.1064 86.0755 38.1201 85.9283C38.1338 85.781 38.1764 85.638 38.2455 85.5072C38.3145 85.3764 38.4086 85.2606 38.5224 85.1662C38.6363 85.0718 38.7676 85.0007 38.9088 84.9571L62.2434 77.7461C62.3847 77.7024 62.5332 77.6869 62.6805 77.7007C62.8277 77.7144 62.9709 77.757 63.1016 77.826C63.2324 77.8951 63.3483 77.9892 63.4427 78.1031C63.5371 78.2169 63.6082 78.3483 63.6518 78.4896L64.1901 80.2315C64.2779 80.5168 64.249 80.8253 64.1096 81.0893C63.9703 81.3533 63.7319 81.5512 63.4468 81.6397L40.1121 88.8507C40.0047 88.8841 39.8928 88.901 39.7803 88.901V88.901Z" fill="#3F3D56"/>
<path d="M100.716 134.926C100.295 134.58 99.8031 134.332 99.2754 134.197C98.7476 134.062 98.1968 134.045 97.6616 134.146C97.1264 134.247 96.6199 134.464 96.1778 134.782C95.7357 135.101 95.3687 135.512 95.1027 135.987L82.0684 133.665L84.7899 139.984L96.7503 141.22C97.5783 141.614 98.5221 141.691 99.4029 141.435C100.284 141.18 101.04 140.61 101.529 139.834C102.018 139.058 102.205 138.13 102.055 137.226C101.905 136.321 101.429 135.503 100.716 134.926H100.716Z" fill="#FFB6B6"/>
<path d="M92.2409 141.291L68.3526 139.413L68.305 139.323C68.2137 139.15 59.1626 122.004 57.8308 118.07C57.0021 115.702 57.0085 113.121 57.8488 110.756L57.873 110.699L57.9268 110.668C59.0278 110.037 60.3109 109.801 61.5643 109.998C62.8178 110.194 63.9668 110.812 64.822 111.749C68.9268 116.296 71.9186 121.735 73.5613 127.636L74.4918 130.994L91.5828 134.823L92.2409 141.291Z" fill="#3170B5"/>
<path d="M184.049 15.9587L290.446 0.428711V102.307L184.049 86.7769V15.9587Z" fill="#F2F2F2"/>
<path d="M290.817 102.735L183.679 87.0972V15.6381L290.817 0V102.735ZM184.42 86.4564L290.076 101.878V0.857133L184.42 16.2789V86.4564Z" fill="#3F3D56"/>
<path d="M234.345 36.2914C234.186 35.9313 234.021 35.5656 233.844 35.2136C233.674 34.8702 233.483 34.5376 233.272 34.2178C233.081 33.9254 232.856 33.6566 232.602 33.4171C232.373 33.2003 232.103 33.0324 231.807 32.9236C231.485 32.8122 231.138 32.7891 230.804 32.8569C230.455 32.9307 230.121 33.0633 229.817 33.2493C229.481 33.4516 229.164 33.6831 228.869 33.941C228.561 34.2033 228.264 34.4897 227.979 34.7735C227.133 35.6192 226.3 36.4762 225.479 37.3443C224.664 38.2074 223.86 39.0812 223.069 39.966C222.283 40.8455 221.509 41.7357 220.747 42.6365C219.989 43.5323 219.244 44.4386 218.511 45.3552L218.514 45.4092L220.233 45.1958L221.974 44.9798L223.736 44.7613L225.52 44.539C225.954 44.4852 226.392 44.4297 226.83 44.3574C227.273 44.2874 227.711 44.1933 228.144 44.0755C228.586 43.9541 229.016 43.7941 229.431 43.5975C229.867 43.3889 230.28 43.1321 230.659 42.8317C230.81 42.7124 230.959 42.5839 231.11 42.4564C231.26 42.329 231.412 42.203 231.566 42.09C231.714 41.9786 231.873 41.8816 232.039 41.8003C232.196 41.7233 232.366 41.6743 232.54 41.6554C232.752 41.6368 232.966 41.6693 233.163 41.7503C233.373 41.8377 233.569 41.9575 233.742 42.1052C233.935 42.2673 234.113 42.4463 234.273 42.6402C234.442 42.8434 234.601 43.0551 234.749 43.2745C235.651 44.6483 236.414 46.1077 237.029 47.6315C237.696 49.2105 238.288 50.8751 238.901 52.526C239.515 54.184 240.145 55.8282 240.881 57.3621C241.573 58.8693 242.457 60.2805 243.511 61.5605C242.851 59.3161 242.162 57.1002 241.444 54.9128C240.73 52.7365 239.989 50.5908 239.221 48.4758C238.455 46.3724 237.665 44.302 236.85 42.2645C236.039 40.2391 235.204 38.2481 234.344 36.2914H234.345Z" fill="white"/>
<path d="M211.156 36.8936L211.13 36.924L211.103 36.9544L211.077 36.9844L211.051 37.0144C210.986 37.0675 210.922 37.1214 210.858 37.1759C210.794 37.2305 210.73 37.2855 210.667 37.3408C210.603 37.3964 210.54 37.4522 210.477 37.5083L210.289 37.6772C210.171 37.7832 210.053 37.89 209.937 37.9977C209.82 38.1054 209.704 38.2141 209.588 38.3237C209.472 38.4334 209.357 38.5445 209.243 38.6572C209.128 38.7698 209.014 38.8823 208.9 38.9947C208.675 39.2202 208.451 39.4493 208.229 39.6819C208.008 39.9146 207.789 40.1501 207.572 40.3885C207.355 40.6276 207.141 40.8704 206.929 41.1169C206.716 41.3634 206.506 41.6131 206.299 41.866C206.191 41.9972 206.084 42.1293 205.978 42.2624C205.872 42.3956 205.766 42.5294 205.661 42.664C205.556 42.7987 205.452 42.9345 205.348 43.0716C205.245 43.2087 205.142 43.3454 205.039 43.4817L205.017 43.4447L204.995 43.4076L204.973 43.3706L204.954 43.3283L204.949 43.3187L204.943 43.3091L204.939 43.2994L204.934 43.2894C204.715 42.8646 204.543 42.4174 204.42 41.9557C204.291 41.4705 204.206 40.9744 204.167 40.4737C204.127 39.9603 204.131 39.4444 204.18 38.9317C204.228 38.4177 204.324 37.9092 204.466 37.4127C204.598 36.943 204.779 36.4883 205.005 36.0559C205.207 35.6686 205.456 35.3077 205.746 34.9815C206.004 34.6902 206.307 34.4414 206.643 34.2442C206.952 34.0629 207.295 33.9452 207.651 33.8982C207.995 33.8549 208.346 33.8866 208.677 33.9912C209.023 34.1031 209.345 34.279 209.626 34.5099C209.942 34.7687 210.217 35.0733 210.443 35.4135C210.704 35.8034 210.916 36.2232 211.075 36.6639L211.078 36.6717L211.081 36.6798L211.084 36.688L211.087 36.6958L211.105 36.745L211.122 36.7947L211.139 36.8447L211.156 36.8936Z" fill="#3170B5"/>
<path d="M211.526 70.3825C211.918 70.4264 212.312 70.4805 212.706 70.5447C213.1 70.6089 213.495 70.683 213.891 70.767C214.289 70.852 214.687 70.9472 215.085 71.0527C215.483 71.1581 215.883 71.2742 216.285 71.4009C217.522 71.7952 218.732 72.2702 219.907 72.8229C221.15 73.4071 222.357 74.066 223.521 74.7958C224.759 75.5719 225.953 76.416 227.097 77.3244C228.317 78.2927 229.487 79.3227 230.602 80.4102C230.986 80.7834 231.367 81.1663 231.744 81.5587C232.122 81.9512 232.497 82.3541 232.87 82.7673C233.243 83.1805 233.612 83.6031 233.978 84.0351C234.344 84.4671 234.707 84.9092 235.067 85.3615L235.199 85.5282L235.331 85.696L235.463 85.8646L235.594 86.0339C235.604 86.0488 235.617 86.0611 235.632 86.0697C235.647 86.0783 235.665 86.0829 235.683 86.0832C235.698 86.0819 235.713 86.0772 235.726 86.0696C235.739 86.062 235.751 86.0516 235.76 86.0391C235.781 86.0108 235.793 85.9763 235.794 85.9406C235.796 85.8991 235.783 85.8585 235.757 85.8257C235.399 85.3619 235.037 84.9071 234.671 84.4616C234.304 84.016 233.935 83.581 233.562 83.1567C233.192 82.7319 232.817 82.3163 232.437 81.91C232.057 81.5037 231.676 81.1085 231.294 80.7244C230.912 80.3401 230.526 79.9654 230.138 79.6003C229.75 79.2353 229.36 78.8808 228.969 78.537C228.578 78.1932 228.185 77.8597 227.789 77.5367C227.393 77.2136 226.996 76.9003 226.598 76.5967C226.2 76.2934 225.8 76.0001 225.398 75.7168C224.997 75.4335 224.595 75.1605 224.192 74.8977C223.79 74.6358 223.386 74.384 222.981 74.1422C222.576 73.9004 222.171 73.6689 221.766 73.4475C221.362 73.2275 220.957 73.0175 220.552 72.8177C220.146 72.6179 219.741 72.4289 219.337 72.2508C218.933 72.0723 218.528 71.9041 218.123 71.7462C217.717 71.5884 217.313 71.441 216.91 71.3039C216.508 71.1673 216.106 71.0409 215.705 70.9249C215.303 70.8088 214.903 70.7033 214.504 70.6084C214.106 70.5136 213.708 70.4289 213.31 70.3543C212.912 70.2797 212.516 70.2154 212.122 70.1613L211.974 70.1413L211.826 70.1224L211.675 70.1046L211.526 70.0879C211.513 70.0876 211.5 70.0912 211.489 70.0983C211.477 70.106 211.467 70.1163 211.459 70.1283C211.451 70.1421 211.444 70.1573 211.44 70.1731C211.435 70.1915 211.433 70.2104 211.433 70.2294C211.433 70.2482 211.435 70.2669 211.44 70.285C211.444 70.3018 211.451 70.3179 211.46 70.3328C211.467 70.3459 211.477 70.3575 211.489 70.3669C211.5 70.3754 211.513 70.3808 211.526 70.3825H211.526Z" fill="white"/>
<path d="M211.155 61.0536C211.856 61.1536 212.561 61.2555 213.27 61.3593C213.979 61.463 214.695 61.5729 215.419 61.689C216.142 61.8053 216.869 61.9288 217.598 62.0595C218.332 62.1929 219.069 62.3371 219.809 62.4922C220.555 62.6404 221.303 62.8087 222.054 62.9972C222.809 63.1857 223.565 63.3936 224.324 63.6211C225.087 63.8498 225.851 64.0983 226.617 64.3665C227.387 64.6385 228.158 64.9297 228.931 65.2402C229.618 65.5171 230.303 65.819 230.987 66.146C231.671 66.4731 232.356 66.8256 233.041 67.2038C233.726 67.5842 234.409 67.9896 235.088 68.4201C235.768 68.8506 236.447 69.3082 237.126 69.7928C237.761 70.2475 238.389 70.7291 239.009 71.2377C239.63 71.7463 240.245 72.2835 240.854 72.8494C241.463 73.4152 242.063 74.0071 242.654 74.6251C243.245 75.2431 243.827 75.8888 244.402 76.5621C244.97 77.2267 245.521 77.9199 246.054 78.6416C246.588 79.3634 247.106 80.1142 247.61 80.8942C248.112 81.6742 248.594 82.4795 249.057 83.3099C249.52 84.1403 249.964 84.9962 250.387 85.8777C250.44 85.9889 250.492 86.1 250.544 86.2112C250.596 86.3223 250.647 86.4346 250.698 86.548C250.749 86.6606 250.8 86.7736 250.851 86.887C250.901 87.0003 250.95 87.1141 250.999 87.2282C251.006 87.2476 251.017 87.2654 251.031 87.2804C251.045 87.2954 251.062 87.3073 251.081 87.3153C251.096 87.3204 251.112 87.3219 251.128 87.3196C251.144 87.3174 251.159 87.3114 251.173 87.3023C251.202 87.2818 251.223 87.2511 251.232 87.216C251.243 87.1714 251.238 87.1245 251.218 87.083C250.818 86.173 250.395 85.2853 249.949 84.4199C249.503 83.5544 249.036 82.7173 248.549 81.9086C248.064 81.0978 247.559 80.3129 247.034 79.5542C246.509 78.7954 245.968 78.0679 245.412 77.3716C244.851 76.6706 244.278 75.9951 243.694 75.345C243.11 74.6949 242.518 74.0736 241.918 73.4811C241.318 72.8883 240.709 72.3223 240.09 71.7831C239.472 71.2439 238.848 70.7342 238.22 70.254C237.564 69.7536 236.904 69.2778 236.239 68.8265C235.574 68.3753 234.909 67.9509 234.243 67.5535C233.576 67.1556 232.907 66.7825 232.236 66.4343C231.565 66.086 230.894 65.764 230.223 65.4684C229.446 65.1295 228.67 64.8124 227.895 64.517C227.125 64.223 226.355 63.9513 225.587 63.7019C224.82 63.4512 224.057 63.2223 223.298 63.0154C222.541 62.8094 221.786 62.6241 221.033 62.4596C220.279 62.2867 219.527 62.1278 218.779 61.9828C218.035 61.8376 217.294 61.7028 216.556 61.5786C215.823 61.4551 215.093 61.338 214.367 61.2274C213.646 61.1179 212.927 61.0125 212.211 60.911L211.946 60.8739L211.682 60.8369L211.418 60.798L211.155 60.7609C211.141 60.7589 211.127 60.7614 211.114 60.7681C211.102 60.7748 211.092 60.7852 211.086 60.798C211.07 60.8276 211.062 60.861 211.063 60.8947C211.062 60.9308 211.07 60.9666 211.086 60.9991C211.092 61.0131 211.102 61.0254 211.114 61.0349C211.126 61.0444 211.14 61.0508 211.155 61.0536V61.0536Z" fill="white"/>
<path d="M257.966 83.973C257.852 83.7754 257.739 83.5769 257.626 83.3776C257.513 83.1783 257.4 82.9798 257.288 82.7822C257.176 82.5846 257.064 82.3863 256.952 82.1872C256.84 81.9881 256.729 81.7898 256.618 81.5922C255.716 79.9801 254.832 78.3654 253.967 76.7484C253.107 75.1402 252.264 73.5289 251.439 71.9145C250.619 70.3091 249.816 68.6998 249.031 67.0866C248.249 65.4812 247.483 63.8725 246.734 62.2606C246.228 61.1699 245.729 60.0778 245.238 58.9843C244.748 57.8909 244.266 56.7994 243.793 55.7099C243.321 54.6202 242.857 53.5288 242.4 52.4359C241.943 51.3429 241.494 50.2514 241.055 49.1614C240.845 48.6427 240.638 48.1241 240.432 47.6054C240.226 47.0867 240.022 46.568 239.82 46.0493C239.618 45.5306 239.417 45.0119 239.219 44.4932C239.02 43.9745 238.823 43.4559 238.628 42.9372C238.477 42.5351 238.327 42.1327 238.178 41.7301C238.029 41.3275 237.881 40.925 237.733 40.5227C237.586 40.1203 237.441 39.7178 237.296 39.3152C237.151 38.9126 237.007 38.51 236.865 38.1074C236.824 37.9923 236.783 37.8772 236.743 37.7621C236.703 37.647 236.663 37.5318 236.623 37.4164C236.583 37.3011 236.544 37.1858 236.504 37.0704L236.386 36.724C236.293 36.4523 236.201 36.1806 236.109 35.9089C236.017 35.6372 235.924 35.3663 235.832 35.096C235.739 34.8258 235.645 34.5565 235.551 34.288C235.457 34.0195 235.361 33.7525 235.264 33.487C235.153 33.1847 235.038 32.879 234.912 32.5786C234.787 32.2781 234.653 31.9835 234.509 31.7023C234.369 31.4281 234.212 31.1632 234.038 30.9095C233.875 30.6717 233.689 30.4508 233.482 30.25C233.394 30.1611 233.298 30.0797 233.196 30.0066C233.099 29.9372 232.997 29.8767 232.889 29.8258C232.785 29.7768 232.676 29.7379 232.565 29.7098C232.455 29.6822 232.343 29.6657 232.23 29.6605C232.069 29.6587 231.909 29.6812 231.754 29.7272C231.596 29.7748 231.443 29.8388 231.298 29.9184C231.146 30.0016 230.999 30.0945 230.859 30.1963C230.715 30.2989 230.574 30.4101 230.436 30.5227C229.424 31.3538 228.436 32.2198 227.472 33.1206C226.515 34.0149 225.583 34.9427 224.675 35.9037C223.772 36.8581 222.895 37.8442 222.041 38.8621C221.194 39.8733 220.37 40.9149 219.572 41.9868C218.777 43.0489 218.007 44.1364 217.264 45.2494C216.524 46.3569 215.81 47.4894 215.122 48.6468C214.437 49.7981 213.778 50.9732 213.144 52.1721C212.516 53.3633 211.913 54.5779 211.335 55.8159C211.329 55.8308 211.321 55.8443 211.309 55.8552C211.298 55.8661 211.284 55.8741 211.269 55.8785C211.256 55.8805 211.243 55.8795 211.23 55.8755C211.218 55.8715 211.207 55.8647 211.198 55.8555C211.175 55.8341 211.16 55.8059 211.154 55.7751C211.146 55.7375 211.151 55.6985 211.168 55.664C211.238 55.5136 211.309 55.3634 211.379 55.2135C211.45 55.0635 211.522 54.9145 211.594 54.7663C211.666 54.6181 211.738 54.4691 211.81 54.3195C211.883 54.1698 211.956 54.0216 212.029 53.8749C212.945 52.0288 213.918 50.2365 214.95 48.4979C215.987 46.7474 217.083 45.0547 218.238 43.4195C219.4 41.7721 220.62 40.1865 221.897 38.6628C223.185 37.1267 224.53 35.6571 225.932 34.2539C226.17 34.017 226.408 33.7824 226.649 33.55C226.889 33.3176 227.131 33.0867 227.375 32.8575C227.619 32.6286 227.865 32.4017 228.112 32.1769C228.359 31.9522 228.608 31.7293 228.859 31.5082C228.985 31.3968 229.112 31.2857 229.239 31.1748C229.367 31.0639 229.494 30.9537 229.622 30.8443C229.751 30.7346 229.879 30.6259 230.009 30.5182C230.138 30.4105 230.268 30.3041 230.398 30.1989C230.521 30.0868 230.65 29.9826 230.785 29.8869C230.916 29.7955 231.052 29.7131 231.193 29.6402C231.329 29.5697 231.471 29.5092 231.616 29.4594C231.758 29.4111 231.903 29.3739 232.05 29.3482C232.535 29.3048 233.018 29.4536 233.395 29.7624C233.821 30.1157 234.177 30.5466 234.443 31.0325C234.756 31.5828 235.025 32.1566 235.25 32.7486C235.485 33.3495 235.689 33.9546 235.873 34.4951C235.931 34.6653 235.988 34.8353 236.046 35.0053C236.105 35.1752 236.163 35.3453 236.222 35.5154C236.28 35.6854 236.339 35.8553 236.398 36.0252C236.457 36.1952 236.516 36.365 236.576 36.5347C236.801 37.1798 237.028 37.8245 237.258 38.4686C237.488 39.1128 237.721 39.7572 237.956 40.4019C238.192 41.0468 238.43 41.6912 238.671 42.3351C238.912 42.979 239.156 43.6233 239.402 44.268C239.555 44.6661 239.708 45.0639 239.862 45.4613C240.016 45.8587 240.172 46.2567 240.328 46.6551C240.485 47.0532 240.642 47.4511 240.801 47.8488C240.96 48.2464 241.119 48.644 241.279 49.0414C241.78 50.2831 242.291 51.5225 242.812 52.7597C243.335 54.0013 243.867 55.241 244.41 56.4787C244.953 57.7211 245.507 58.9617 246.073 60.2007C246.639 61.4443 247.216 62.6864 247.804 63.9271C248.585 65.578 249.385 67.2252 250.202 68.8687C251.024 70.5211 251.863 72.1703 252.721 73.8163C253.586 75.4711 254.469 77.1238 255.37 78.7742C256.277 80.4338 257.205 82.0912 258.152 83.7466C258.176 83.7887 258.186 83.8373 258.182 83.8855C258.178 83.9261 258.162 83.9647 258.137 83.9967C258.127 84.01 258.114 84.0208 258.1 84.0283C258.085 84.0358 258.069 84.0397 258.053 84.0397C258.034 84.0366 258.016 84.0289 258.001 84.0173C257.986 84.0057 257.973 83.9904 257.966 83.973V83.973Z" fill="white"/>
<path d="M219.393 40.463L219.313 40.3337L219.233 40.2044L219.153 40.0751L219.073 39.9458C218.861 39.6068 218.645 39.2697 218.424 38.9432C218.202 38.6168 217.974 38.2997 217.737 38.0055C217.508 37.7165 217.26 37.4428 216.996 37.186C216.746 36.9436 216.473 36.7263 216.18 36.5373C216.048 36.4493 215.909 36.371 215.765 36.3031C215.626 36.2378 215.483 36.1833 215.336 36.1401C215.192 36.0979 215.045 36.0673 214.897 36.0486C214.75 36.0301 214.601 36.0238 214.452 36.0297C214.298 36.0448 214.146 36.0705 213.995 36.1068C213.843 36.1436 213.692 36.1905 213.546 36.2472C213.395 36.3054 213.249 36.3729 213.107 36.4495C212.96 36.5286 212.818 36.6163 212.681 36.7121C212.615 36.7559 212.549 36.8009 212.484 36.8474C212.418 36.8938 212.353 36.9411 212.288 36.9893C212.224 37.0387 212.159 37.0881 212.095 37.1375C212.031 37.1869 211.968 37.2379 211.904 37.2905C211.832 37.3498 211.76 37.4099 211.688 37.4709C211.616 37.5319 211.544 37.5937 211.473 37.6562C211.402 37.7182 211.331 37.7805 211.26 37.8433L211.049 38.0318C210.917 38.1501 210.785 38.2694 210.654 38.3897C210.523 38.51 210.393 38.6314 210.263 38.7539C210.134 38.8774 210.005 39.0009 209.876 39.1244C209.748 39.2479 209.62 39.3734 209.493 39.5008C209.24 39.7523 208.989 40.0078 208.741 40.2674C208.493 40.527 208.248 40.79 208.006 41.0565C207.764 41.3231 207.524 41.5936 207.286 41.8683C207.048 42.1429 206.814 42.4211 206.582 42.7026C206.462 42.8489 206.342 42.996 206.223 43.1439C206.105 43.2919 205.987 43.4408 205.869 43.5907C205.752 43.7406 205.635 43.8916 205.52 44.0435C205.404 44.1954 205.289 44.3481 205.175 44.5018C205.069 44.6445 204.963 44.788 204.858 44.9323C204.753 45.0765 204.649 45.2216 204.545 45.3676C204.442 45.5133 204.339 45.6599 204.237 45.8074C204.135 45.9548 204.033 46.103 203.932 46.252C203.925 46.2644 203.916 46.2748 203.903 46.2819C203.891 46.289 203.877 46.2925 203.863 46.292C203.851 46.2893 203.839 46.2839 203.828 46.2761C203.818 46.2684 203.809 46.2585 203.803 46.2471C203.786 46.2191 203.776 46.187 203.776 46.1542C203.774 46.1178 203.784 46.0818 203.804 46.0515L203.884 45.9319L203.965 45.814L204.045 45.6966L204.126 45.5799C204.202 45.4702 204.279 45.361 204.355 45.2524C204.432 45.1437 204.509 45.0353 204.587 44.9271C204.665 44.8191 204.743 44.7116 204.821 44.6044C204.9 44.4972 204.978 44.3905 205.058 44.2843C205.202 44.0899 205.347 43.8972 205.494 43.7063C205.641 43.5154 205.789 43.3257 205.939 43.1372C206.087 42.9503 206.236 42.7641 206.388 42.5789C206.539 42.3936 206.691 42.21 206.846 42.028C207.085 41.7442 207.327 41.4645 207.571 41.1888C207.816 40.9132 208.063 40.6415 208.312 40.3737C208.563 40.1052 208.816 39.841 209.071 39.5809C209.326 39.3208 209.585 39.0643 209.847 38.8114C209.978 38.6851 210.109 38.56 210.241 38.436C210.373 38.3121 210.505 38.1886 210.639 38.0656C210.772 37.9435 210.906 37.8226 211.04 37.7028C211.175 37.583 211.31 37.4642 211.446 37.3464L211.569 37.2405C211.611 37.2054 211.652 37.1706 211.694 37.136C211.736 37.1014 211.777 37.0671 211.819 37.033C211.861 36.9989 211.903 36.9653 211.945 36.9322C212.041 36.8537 212.137 36.778 212.235 36.7051C212.332 36.6322 212.431 36.5623 212.531 36.4954C212.63 36.4282 212.73 36.3641 212.832 36.3031C212.934 36.2421 213.036 36.1839 213.139 36.1286C213.282 36.0502 213.43 35.9822 213.583 35.9252C213.731 35.87 213.883 35.8263 214.038 35.7944C214.19 35.763 214.344 35.7438 214.499 35.737C214.654 35.7304 214.809 35.7363 214.962 35.7548C215.113 35.7791 215.261 35.8138 215.407 35.8589C215.555 35.9049 215.7 35.9607 215.84 36.026C215.985 36.0934 216.126 36.1698 216.261 36.2549C216.402 36.3436 216.537 36.4404 216.667 36.5451C216.954 36.773 217.222 37.0244 217.468 37.2968C217.727 37.5842 217.972 37.8852 218.199 38.1986C218.434 38.5187 218.661 38.8547 218.882 39.1989C219.104 39.5431 219.322 39.8936 219.538 40.2429C219.559 40.2774 219.568 40.3174 219.565 40.3574C219.563 40.3939 219.551 40.4292 219.532 40.46C219.525 40.4725 219.515 40.4833 219.504 40.4918C219.493 40.5003 219.479 40.5063 219.466 40.5093C219.45 40.5098 219.435 40.5057 219.422 40.4974C219.409 40.4891 219.399 40.4771 219.393 40.463V40.463Z" fill="white"/>
<path d="M245.029 55.2228L248.339 53.6215L250.009 52.8135C250.145 52.7411 250.282 52.6711 250.419 52.6034C250.556 52.5357 250.694 52.4702 250.833 52.4067C250.972 52.3432 251.112 52.2822 251.253 52.2237C251.394 52.1651 251.535 52.1087 251.677 52.0544C251.799 52.008 251.926 51.9733 252.055 51.9506C252.31 51.9061 252.57 51.911 252.823 51.9651C252.953 51.9928 253.079 52.0325 253.202 52.0836C253.314 52.1389 253.423 52.2007 253.528 52.2689C253.635 52.3387 253.739 52.4145 253.838 52.496C253.94 52.5799 254.037 52.6692 254.13 52.7635C254.225 52.8608 254.316 52.9628 254.401 53.0691C254.49 53.1773 254.577 53.2876 254.663 53.4C254.749 53.5124 254.833 53.6269 254.915 53.7434C254.998 53.86 255.079 53.9787 255.159 54.0995C255.238 54.2203 255.316 54.343 255.392 54.4678C255.487 54.6179 255.581 54.7686 255.675 54.9197C255.77 55.0709 255.864 55.2224 255.958 55.3743L256.24 55.8304L256.522 56.2872C256.912 56.9168 257.302 57.5486 257.692 58.1827C258.083 58.8167 258.474 59.4546 258.868 60.0963C259.26 60.7385 259.654 61.3824 260.048 62.028C260.441 62.6737 260.836 63.3236 261.233 63.9779C261.628 64.6317 262.025 65.2879 262.423 65.9464C262.821 66.6049 263.22 67.2672 263.618 67.9333C264.018 68.6002 264.418 69.2688 264.818 69.9392C265.218 70.6095 265.619 71.2844 266.022 71.9639C266.426 72.6444 266.83 73.3273 267.234 74.0127C267.639 74.6982 268.044 75.3874 268.451 76.0805C268.858 76.7738 269.266 77.4694 269.674 78.1674C270.082 78.8655 270.491 79.5677 270.901 80.2741L271.052 80.5334L271.203 80.7928L271.354 81.0521L271.504 81.3114C271.515 81.3315 271.529 81.3493 271.546 81.3636C271.564 81.378 271.584 81.3886 271.606 81.3948C271.624 81.3992 271.643 81.3998 271.661 81.3967C271.68 81.3936 271.697 81.3868 271.713 81.3767C271.746 81.356 271.769 81.3234 271.778 81.2859C271.787 81.2397 271.779 81.1916 271.753 81.1518C271.339 80.4372 270.925 79.7251 270.511 79.0155C270.097 78.3059 269.685 77.6003 269.274 76.8989C268.863 76.1977 268.452 75.4988 268.041 74.8023C267.631 74.1057 267.222 73.4141 266.814 72.7275C266.405 72.0376 265.997 71.35 265.589 70.6646C265.181 69.9792 264.774 69.2982 264.369 68.6217C263.963 67.9447 263.558 67.27 263.153 66.5977C262.749 65.9254 262.345 65.2571 261.942 64.5929C261.54 63.9288 261.138 63.2668 260.737 62.6071C260.335 61.9474 259.935 61.2917 259.537 60.6402C259.138 59.9886 258.74 59.3392 258.341 58.6921C257.943 58.045 257.547 57.4019 257.151 56.7629L256.855 56.2854L256.559 55.8089L256.262 55.3336L255.966 54.8594C255.883 54.7262 255.8 54.593 255.718 54.4596C255.635 54.3262 255.551 54.194 255.468 54.0628C255.383 53.9316 255.298 53.802 255.212 53.6738C255.126 53.5456 255.037 53.4199 254.947 53.2966C254.783 53.0711 254.607 52.8547 254.42 52.6486C254.24 52.4505 254.044 52.2684 253.833 52.1044C253.637 51.9504 253.421 51.8232 253.191 51.7261C252.968 51.6332 252.729 51.5823 252.487 51.5757C252.344 51.5822 252.202 51.5973 252.061 51.6209C251.92 51.6445 251.78 51.6764 251.642 51.7165C251.503 51.757 251.366 51.8055 251.232 51.8617C251.096 51.919 250.963 51.9838 250.834 52.0558L250.408 52.2611L249.984 52.4667L249.561 52.6723L249.141 52.8772L245.79 54.5018L244.964 54.9027C244.946 54.9117 244.93 54.9244 244.917 54.9399C244.904 54.9554 244.895 54.9734 244.89 54.9927C244.878 55.0328 244.876 55.0752 244.884 55.1161C244.89 55.1528 244.907 55.1867 244.934 55.2128C244.946 55.2245 244.962 55.2318 244.98 55.2336C244.997 55.2354 245.014 55.2316 245.029 55.2228Z" fill="white"/>
<path d="M211.853 35.1518L211.698 35.337C211.416 34.7671 211.041 34.2477 210.59 33.7995C210.209 33.4203 209.752 33.1264 209.249 32.9373C208.785 32.7669 208.286 32.7147 207.796 32.7854C207.275 32.8672 206.779 33.0686 206.347 33.3738C205.858 33.7193 205.433 34.1477 205.091 34.6397C204.712 35.1822 204.404 35.7718 204.176 36.3937C203.926 37.068 203.75 37.7675 203.652 38.4799C203.546 39.2319 203.52 39.9929 203.574 40.7503C203.6 41.128 203.647 41.504 203.714 41.8766C203.779 42.2358 203.865 42.591 203.971 42.9403C204.073 43.2745 204.196 43.6018 204.34 43.9202C204.476 44.2231 204.634 44.5157 204.813 44.7957L204.682 45.0002C204.496 44.7086 204.331 44.4039 204.19 44.0884C204.04 43.757 203.912 43.4163 203.806 43.0685C203.696 42.705 203.607 42.3353 203.539 41.9614C203.469 41.5737 203.42 41.1823 203.394 40.7892C203.338 40.001 203.365 39.2091 203.474 38.4266C203.576 37.6851 203.759 36.957 204.019 36.2551C204.256 35.6077 204.576 34.9939 204.971 34.4289C205.327 33.9165 205.769 33.4701 206.279 33.11C206.727 32.7916 207.244 32.5813 207.787 32.4953C208.297 32.4211 208.817 32.4748 209.3 32.6517C209.824 32.8481 210.301 33.1537 210.697 33.5483C211.168 34.0156 211.559 34.5574 211.853 35.1518Z" fill="white"/>
<path d="M227.484 54.1985C227.451 54.1699 227.422 54.1377 227.397 54.1025C227.37 54.0652 227.347 54.0254 227.328 53.9836C227.308 53.9393 227.291 53.8933 227.278 53.8462C227.265 53.7965 227.255 53.7458 227.249 53.6946C227.244 53.6427 227.242 53.5905 227.244 53.5383C227.247 53.4871 227.253 53.4362 227.263 53.386C227.273 53.3373 227.286 53.2895 227.304 53.243C227.32 53.1984 227.341 53.1555 227.366 53.1148L226.723 43.8154L227.797 43.8895L228.096 53.0778C228.142 53.1447 228.177 53.2183 228.201 53.296C228.225 53.3769 228.239 53.4607 228.243 53.5453C228.246 53.6306 228.239 53.716 228.222 53.7995C228.205 53.881 228.176 53.9596 228.136 54.0329C228.102 54.0985 228.055 54.1572 227.999 54.2059C227.951 54.2485 227.895 54.2796 227.834 54.297C227.776 54.3123 227.715 54.3123 227.656 54.297C227.592 54.2783 227.533 54.2445 227.484 54.1985V54.1985Z" fill="#9E616A"/>
<path d="M228.237 43.4291L227.953 46.5324L227.992 48.4293L226.809 48.5971L226.573 47.0292L226.442 42.876C226.437 42.719 226.453 42.5622 226.49 42.4095C226.523 42.2694 226.576 42.1348 226.647 42.0098C226.71 41.897 226.793 41.7966 226.892 41.7134C226.981 41.6379 227.088 41.5856 227.203 41.5611V41.5611C227.316 41.5379 227.433 41.5477 227.541 41.5892C227.653 41.6339 227.753 41.7041 227.834 41.7941C227.926 41.8968 227.999 42.0149 228.051 42.1431C228.11 42.2903 228.148 42.4455 228.162 42.6037L228.237 43.4291Z" fill="#2F2E41"/>
<path d="M223.749 70.3908L223.051 70.3434L222.72 66.3965L223.749 66.4517V70.3908Z" fill="#9E616A"/>
<path d="M223.927 71.3931L221.687 71.2341V71.1927C221.686 71.0267 221.709 70.8616 221.755 70.7021C221.794 70.5621 221.857 70.4296 221.94 70.3101C222.012 70.2058 222.106 70.1189 222.216 70.0556C222.319 69.9973 222.437 69.9703 222.555 69.9778V69.9778L223.928 70.0686L223.927 71.3931Z" fill="#2F2E41"/>
<path d="M229.646 70.7886L228.919 70.739L228.574 66.7095L229.646 66.7673V70.7886Z" fill="#9E616A"/>
<path d="M229.831 71.812L227.497 71.6464V71.6042C227.496 71.4348 227.52 71.2661 227.568 71.1036C227.609 70.9604 227.675 70.8253 227.761 70.7039C227.837 70.5971 227.935 70.5085 228.049 70.4445C228.156 70.385 228.279 70.3577 228.401 70.3656V70.3656L229.831 70.4604V71.812Z" fill="#2F2E41"/>
<path d="M226.839 35.6323C227.05 35.6214 227.26 35.671 227.444 35.7754C227.64 35.8887 227.809 36.0439 227.939 36.23C228.088 36.4422 228.201 36.6779 228.273 36.9272C228.356 37.2097 228.397 37.5027 228.396 37.7971C228.396 38.0953 228.355 38.392 228.273 38.6785C228.2 38.9374 228.087 39.1833 227.939 39.4077C227.809 39.6062 227.641 39.7766 227.444 39.9089C227.264 40.0292 227.055 40.0984 226.839 40.109C226.628 40.1165 226.419 40.0638 226.237 39.9571C226.042 39.8416 225.875 39.6852 225.747 39.4988C225.6 39.2872 225.488 39.0527 225.417 38.8049C225.336 38.525 225.296 38.2349 225.297 37.9435C225.296 37.6485 225.337 37.3548 225.417 37.071C225.489 36.8137 225.6 36.5691 225.747 36.3456C225.875 36.1474 226.042 35.9765 226.237 35.8428C226.415 35.7197 226.623 35.647 226.839 35.6323Z" fill="#9E616A"/>
<path d="M226.638 41.0249L227.718 41.1638C227.854 41.4384 227.963 41.7254 228.044 42.0208C228.127 42.3272 228.185 42.6401 228.215 42.9563C228.247 43.2799 228.252 43.6055 228.231 43.9299C228.21 44.2563 228.161 44.5803 228.085 44.8984L227.27 48.3125C227.27 48.3125 227.341 48.5159 227.447 48.8682C227.553 49.2206 227.695 49.7241 227.836 50.3224C227.978 50.9208 228.121 51.6158 228.227 52.3513C228.34 53.1038 228.4 53.8635 228.405 54.6246C228.449 55.7859 228.562 56.9435 228.744 58.0913C228.948 59.5459 229.221 61.2034 229.494 62.7669C229.767 64.3304 230.041 65.8087 230.247 66.8924C230.453 67.976 230.591 68.6707 230.591 68.6707L227.523 68.943L226.204 57.3733L224.407 68.7056L222.383 68.1031L223.494 53.3079L224.233 48.4085L224.265 46.0162C224.265 46.0162 224.245 45.905 224.227 45.7198C224.205 45.4735 224.197 45.226 224.205 44.9788C224.214 44.655 224.256 44.3329 224.331 44.0177C224.41 43.6773 224.548 43.3534 224.739 43.0608L225.708 41.0668L226.638 41.0249Z" fill="#CACACA"/>
<path d="M225.043 37.1611L227.31 37.0474V35.6117C227.19 35.5466 227.066 35.4881 226.94 35.4365C226.828 35.389 226.711 35.3582 226.591 35.345C226.484 35.3333 226.376 35.3541 226.281 35.4046C226.171 35.4706 226.083 35.5672 226.027 35.6825C225.889 35.6917 225.757 35.7381 225.643 35.8166C225.519 35.9025 225.412 36.0122 225.33 36.1393C225.237 36.2822 225.166 36.4385 225.12 36.6028C225.069 36.7844 225.043 36.9723 225.043 37.1611Z" fill="#2F2E41"/>
<path d="M227.439 35.351C227.599 35.3429 227.759 35.3712 227.906 35.4337C228.054 35.4963 228.186 35.5915 228.291 35.7122C228.538 35.9964 228.722 36.3291 228.832 36.6888C228.967 37.0972 229.062 37.5177 229.117 37.9444C229.17 38.3405 229.198 38.7396 229.199 39.1393C229.201 39.3067 229.186 39.4739 229.154 39.6383C229.131 39.7591 229.088 39.8751 229.027 39.9818C228.977 40.0676 228.909 40.1417 228.828 40.1992C228.748 40.254 228.659 40.2947 228.566 40.3196L228.429 39.2823L228.11 40.383L228.028 40.386L227.944 40.3882H227.771L227.663 40.0733L227.423 40.396C227.184 40.4056 226.956 40.4275 226.749 40.433C226.564 40.4458 226.378 40.4254 226.201 40.3726C226.121 40.3457 226.047 40.303 225.984 40.247C225.92 40.191 225.869 40.1228 225.833 40.0466C225.73 39.8075 225.684 39.548 225.698 39.2882C225.698 38.8913 225.723 38.4947 225.772 38.1008C225.821 37.6705 225.911 37.2457 226.039 36.8318C226.147 36.4585 226.327 36.1101 226.57 35.8063C226.675 35.6741 226.807 35.5654 226.956 35.487C227.106 35.4086 227.27 35.3622 227.439 35.351V35.351Z" fill="#2F2E41"/>
<path opacity="0.2" d="M225.429 49.009L225.372 45.4185L225.22 43.8276L224.848 45.4152L225.429 49.009Z" fill="black"/>
<path d="M228.294 48.5017L226.575 48.5187V41.2604L228.294 41.1996C228.465 41.1946 228.633 41.2377 228.781 41.3241C228.939 41.4176 229.074 41.544 229.179 41.6946C229.299 41.8661 229.39 42.0563 229.448 42.2574C229.515 42.4841 229.548 42.7194 229.548 42.9557V46.6888C229.548 46.9263 229.515 47.1626 229.448 47.3905C229.39 47.5953 229.299 47.7894 229.179 47.9656C229.074 48.1214 228.939 48.2541 228.781 48.3553C228.635 48.4485 228.467 48.4997 228.294 48.5035V48.5017Z" fill="#3170B5"/>
<path d="M228.053 44.5962C228.024 44.5967 227.994 44.5889 227.969 44.5736C227.942 44.557 227.918 44.5347 227.9 44.5084C227.879 44.4784 227.863 44.4453 227.853 44.4102C227.842 44.3707 227.836 44.3298 227.836 44.2887V41.5807L228.271 41.5659V44.2779C228.271 44.3193 228.265 44.3604 228.254 44.4002C228.243 44.4359 228.227 44.4698 228.206 44.5006C228.188 44.5279 228.165 44.5512 228.137 44.5691C228.112 44.5855 228.083 44.5948 228.053 44.5958L228.053 44.5962Z" fill="#3F3D56"/>
<path d="M228.577 47.9249L227.315 47.9401C227.278 47.9403 227.241 47.9301 227.209 47.9105C227.174 47.8891 227.145 47.8607 227.122 47.8271C227.096 47.7892 227.076 47.7473 227.064 47.703C227.049 47.6533 227.042 47.6018 227.042 47.55V46.467C227.042 46.4152 227.049 46.3635 227.064 46.3137C227.076 46.2691 227.096 46.2269 227.122 46.1884C227.145 46.1539 227.174 46.1244 227.209 46.1017C227.24 46.0812 227.277 46.0698 227.315 46.0688L228.577 46.0454C228.615 46.045 228.652 46.0551 228.685 46.0747C228.719 46.0959 228.749 46.1242 228.772 46.1577C228.799 46.1958 228.819 46.238 228.831 46.2825C228.846 46.3325 228.853 46.3843 228.853 46.4363V47.5259C228.853 47.5781 228.846 47.63 228.831 47.68C228.818 47.725 228.799 47.7676 228.772 47.8064C228.749 47.8408 228.72 47.8702 228.685 47.8927C228.653 47.9131 228.615 47.9242 228.577 47.9249V47.9249Z" fill="#3F3D56"/>
<path d="M225.012 45.7717C224.927 45.6146 224.852 45.4515 224.79 45.2838C224.725 45.1098 224.672 44.9319 224.63 44.751C224.587 44.5644 224.556 44.3754 224.536 44.1849C224.515 43.9901 224.507 43.7943 224.509 43.5984C224.509 43.2206 224.547 42.8438 224.624 42.474C224.689 42.1535 224.794 41.8424 224.936 41.5477C225.047 41.3073 225.205 41.0908 225.398 40.9101C225.553 40.7635 225.754 40.6755 225.967 40.6611C226.085 40.6655 226.202 40.6918 226.31 40.7386C226.424 40.7882 226.529 40.8556 226.621 40.9383C226.723 41.0291 226.812 41.133 226.887 41.2473C226.97 41.3742 227.039 41.5102 227.092 41.6526L226.97 41.7674C226.923 41.6397 226.862 41.5175 226.789 41.4032C226.722 41.3004 226.643 41.2067 226.552 41.1246C226.47 41.0491 226.376 40.9872 226.274 40.9412C226.177 40.8979 226.073 40.8727 225.967 40.8671C225.774 40.8806 225.592 40.9623 225.454 41.0976C225.278 41.2661 225.136 41.4668 225.036 41.6889C224.907 41.9635 224.813 42.2528 224.754 42.5503C224.685 42.8941 224.65 43.244 224.651 43.5947C224.648 43.7785 224.656 43.9624 224.675 44.1453C224.694 44.324 224.723 44.5014 224.763 44.6765C224.802 44.8464 224.851 45.0136 224.911 45.1771C224.97 45.3347 225.039 45.488 225.119 45.6357L225.012 45.7717Z" fill="#3170B5"/>
<path d="M225.703 54.5553C225.67 54.5216 225.64 54.4843 225.614 54.4441C225.586 54.4006 225.563 54.3546 225.544 54.3067C225.523 54.2568 225.507 54.2054 225.495 54.1529C225.483 54.098 225.474 54.0421 225.47 53.9858C225.466 53.9291 225.466 53.8721 225.47 53.8154C225.475 53.7601 225.483 53.7053 225.496 53.6513C225.509 53.5994 225.526 53.5485 225.546 53.4994C225.567 53.4524 225.592 53.4075 225.62 53.3653L225.304 43.1919L226.464 43.3616L226.412 53.3919C226.459 53.4685 226.494 53.5515 226.516 53.6383C226.564 53.818 226.565 54.007 226.52 54.1874C226.498 54.2744 226.462 54.3576 226.415 54.4341C226.375 54.5023 226.322 54.562 226.259 54.6101C226.204 54.6516 226.141 54.6794 226.074 54.6913C226.009 54.7022 225.943 54.6963 225.882 54.6742C225.813 54.6488 225.751 54.6083 225.701 54.5557L225.703 54.5553Z" fill="#9E616A"/>
<path d="M226.957 42.8957L226.523 46.2531L226.488 48.3219L225.201 48.4045L225.01 46.6791L225.038 42.1439C225.039 41.9734 225.062 41.8037 225.108 41.6393C225.149 41.4901 225.211 41.3477 225.293 41.2166C225.366 41.0994 225.46 40.997 225.571 40.9146C225.672 40.8395 225.79 40.7912 225.914 40.7742V40.7742C226.039 40.7585 226.166 40.7788 226.279 40.8328C226.4 40.891 226.505 40.9756 226.588 41.0802C226.684 41.1996 226.758 41.3345 226.809 41.4789C226.867 41.6436 226.9 41.8158 226.909 41.9902L226.957 42.8957Z" fill="#CACACA"/>
<path d="M227.082 73.1933C227.094 73.1492 227.115 73.1085 227.146 73.0744C227.176 73.0404 227.214 73.0141 227.256 72.9977C227.367 72.9568 227.486 72.9441 227.602 72.9607C227.763 72.9801 227.921 73.0202 228.072 73.08C228.261 73.1528 228.443 73.2429 228.616 73.3489C228.799 73.4598 228.972 73.5856 229.135 73.725C229.28 73.8481 229.413 73.9846 229.533 74.1325C229.631 74.2515 229.711 74.384 229.771 74.526C229.818 74.6286 229.832 74.7435 229.81 74.8543C229.798 74.8988 229.776 74.9399 229.745 74.9741C229.714 75.0082 229.676 75.0345 229.633 75.0506C229.52 75.0907 229.4 75.1024 229.282 75.0847C229.12 75.0642 228.961 75.0231 228.809 74.9624C228.619 74.8884 228.437 74.7972 228.264 74.6901C228.082 74.5794 227.909 74.4539 227.748 74.3148C227.604 74.1915 227.473 74.0551 227.355 73.9073C227.258 73.7896 227.179 73.6585 227.12 73.5183C227.074 73.4166 227.061 73.303 227.082 73.1933V73.1933Z" fill="white"/>
<path d="M232.023 73.246C232.04 73.2049 232.068 73.1693 232.104 73.1427C232.139 73.1161 232.181 73.0996 232.226 73.0948C232.348 73.0823 232.472 73.0993 232.586 73.1445C232.751 73.2043 232.908 73.283 233.055 73.379C233.242 73.4988 233.419 73.6334 233.584 73.7817C233.759 73.9371 233.922 74.105 234.072 74.2841C234.205 74.4423 234.325 74.6113 234.431 74.7895C234.516 74.9299 234.583 75.0812 234.628 75.2392C234.664 75.3481 234.664 75.4657 234.628 75.5745C234.61 75.6159 234.582 75.6517 234.546 75.6783C234.509 75.7048 234.466 75.7211 234.422 75.7253C234.297 75.7367 234.172 75.7185 234.057 75.672C233.891 75.6106 233.732 75.5304 233.585 75.433C233.398 75.3115 233.222 75.1752 233.057 75.0255C232.884 74.8706 232.722 74.7035 232.573 74.5253C232.441 74.3682 232.322 74.2004 232.218 74.0236C232.133 73.8846 232.067 73.7348 232.023 73.5783C231.987 73.4704 231.987 73.3539 232.023 73.246Z" fill="white"/>
<path d="M234.32 78.1909C234.336 78.1486 234.363 78.1112 234.398 78.0827C234.434 78.0542 234.476 78.0356 234.52 78.0286C234.644 78.0102 234.769 78.0215 234.887 78.0616C235.055 78.114 235.217 78.1859 235.369 78.2758C235.561 78.3878 235.744 78.5155 235.916 78.6574C236.098 78.806 236.269 78.9678 236.427 79.1416C236.567 79.2949 236.695 79.4599 236.808 79.6347C236.899 79.7726 236.971 79.9221 237.022 80.0793C237.062 80.1882 237.066 80.3071 237.032 80.4183C237.016 80.4609 236.988 80.4983 236.952 80.5268C236.916 80.5552 236.874 80.5736 236.828 80.5802C236.704 80.5974 236.577 80.5847 236.458 80.5432C236.288 80.4892 236.125 80.4157 235.972 80.3242C235.779 80.2114 235.596 80.0832 235.424 79.9408C235.243 79.7921 235.074 79.6304 234.917 79.4569C234.778 79.3044 234.652 79.1404 234.541 78.9667C234.451 78.8302 234.38 78.6821 234.33 78.5266C234.291 78.4187 234.287 78.3011 234.32 78.1909V78.1909Z" fill="white"/>
<path d="M239.246 80.2667C239.263 80.2235 239.291 80.1856 239.328 80.1568C239.364 80.1281 239.408 80.1095 239.454 80.1029C239.581 80.0853 239.711 80.098 239.833 80.14C240.007 80.1947 240.174 80.2693 240.331 80.3623C240.53 80.477 240.72 80.6076 240.897 80.7528C241.085 80.9047 241.261 81.0701 241.425 81.2478C241.57 81.4048 241.702 81.5739 241.819 81.7531C241.914 81.8936 241.988 82.0463 242.042 82.207C242.083 82.3175 242.087 82.4386 242.053 82.5515C242.035 82.5951 242.006 82.6332 241.969 82.6619C241.932 82.6906 241.888 82.7089 241.841 82.7149C241.712 82.7317 241.58 82.718 241.457 82.6749C241.282 82.6189 241.113 82.543 240.955 82.4489C240.756 82.3326 240.566 82.2006 240.388 82.0539C240.201 81.9017 240.026 81.736 239.864 81.5582C239.721 81.4025 239.591 81.2349 239.476 81.0573C239.383 80.9181 239.309 80.7669 239.257 80.6079C239.217 80.4984 239.213 80.3786 239.246 80.2667V80.2667Z" fill="white"/>
<path d="M215.829 38.2865C215.501 38.0554 215.134 37.8871 214.744 37.79C214.38 37.7014 214.001 37.6862 213.63 37.7452C213.248 37.8081 212.88 37.9407 212.546 38.1364C212.173 38.3551 211.837 38.6296 211.548 38.9504C212.126 39.0761 212.706 39.2153 213.286 39.368C213.866 39.5206 214.449 39.6876 215.035 39.8689C215.622 40.0504 216.208 40.2457 216.796 40.4546C217.383 40.6636 217.972 40.8875 218.565 41.1263C218.315 40.9135 218.081 40.6834 217.863 40.4379C217.639 40.1897 217.419 39.9274 217.202 39.6684C216.985 39.4095 216.765 39.1542 216.538 38.9182C216.321 38.687 216.084 38.4756 215.829 38.2865V38.2865Z" fill="white"/>
<path d="M211.535 38.9473L211.281 39.2737C211.303 39.2453 211.324 39.2172 211.346 39.1896C211.368 39.1619 211.39 39.1346 211.412 39.1077C211.434 39.0808 211.457 39.0543 211.479 39.0284C211.502 39.0025 211.525 38.9767 211.548 38.951L211.535 38.9473Z" fill="#F2F2F2"/>
<path d="M254.27 55.3569C254.196 55.2113 254.114 55.0705 254.022 54.9352C253.934 54.8054 253.837 54.6816 253.732 54.5647C253.631 54.4526 253.522 54.348 253.406 54.2517C253.294 54.1587 253.175 54.0748 253.051 54.0005L252.577 54.0212C253.48 56.1407 254.466 58.2053 255.536 60.2151C256.613 62.2368 257.773 64.1984 259.015 66.1C260.267 68.0145 261.601 69.8631 263.017 71.646C264.445 73.4421 265.955 75.1656 267.548 76.8166L264.125 71.2829L260.772 65.864L257.487 60.5564L254.27 55.3569Z" fill="white"/>
<path d="M65.6192 77.9856C65.4249 77.9855 65.2356 77.9245 65.0779 77.8112C64.9202 77.6978 64.8021 77.5378 64.7401 77.3537L64.2687 75.949C64.2291 75.8334 64.2128 75.7112 64.2207 75.5893C64.2285 75.4675 64.2604 75.3484 64.3144 75.2389C64.3685 75.1294 64.4437 75.0316 64.5357 74.9513C64.6276 74.871 64.7346 74.8096 64.8504 74.7708C64.9662 74.7319 65.0885 74.7164 65.2103 74.725C65.3321 74.7336 65.451 74.7662 65.5602 74.8209C65.6693 74.8757 65.7666 74.9515 65.8464 75.0439C65.9261 75.1364 65.9868 75.2437 66.0249 75.3598L66.4964 76.7645C66.5742 76.9974 66.5565 77.2517 66.4471 77.4716C66.3377 77.6915 66.1456 77.859 65.913 77.9375H65.9128C65.8181 77.9693 65.719 77.9855 65.6192 77.9856V77.9856Z" fill="#3F3D56"/>
<path d="M66.695 81.7013C66.4938 81.7007 66.2982 81.6348 66.1377 81.5133C65.9772 81.3918 65.8606 81.2215 65.8055 81.0279L65.4003 79.6024C65.3334 79.3662 65.363 79.1131 65.4826 78.8987C65.6023 78.6844 65.8021 78.5263 66.0382 78.4591C66.2744 78.392 66.5275 78.4214 66.742 78.5408C66.9565 78.6602 67.1148 78.8598 67.1822 79.0959L67.5874 80.5214C67.6207 80.6384 67.6305 80.7608 67.6165 80.8817C67.6024 81.0025 67.5647 81.1194 67.5055 81.2256C67.4462 81.3319 67.3667 81.4254 67.2713 81.5009C67.1759 81.5764 67.0666 81.6324 66.9495 81.6656C66.8668 81.6892 66.7811 81.7012 66.695 81.7013V81.7013Z" fill="#3F3D56"/>
</g>
<defs>
<clipPath id="clip0_1188_216">
<rect width="290.817" height="186" fill="white"/>
</clipPath>
</defs>
</svg>
