<svg width="470" height="464" viewBox="0 0 470 464" fill="none" xmlns="http://www.w3.org/2000/svg">
<mask id="mask0_459_138" style="mask-type:alpha" maskUnits="userSpaceOnUse" x="0" y="0" width="358" height="390">
<path d="M173.617 366.585C175.803 360.368 179.307 355.395 179.307 348.82C179.307 338.384 185.486 332.694 188.161 325.084C198.955 294.226 209.769 263.387 220.563 232.529C237.386 203.819 254.209 175.109 271.032 146.38L334.198 151.673L338.757 143.422L342.544 136.49L341.451 135.51L357.973 109.588L237.104 0.417725L0 214.03L152.141 389.286L173.617 366.604V366.585Z" fill="white"/>
</mask>
<g mask="url(#mask0_459_138)">
<path d="M278.342 377.455L298.255 373.781L297.652 354.886L297.464 348.688L303.285 346.503C306.318 345.373 309.275 344.111 312.101 342.773C315.172 341.322 318.035 339.815 320.635 338.289L325.929 335.2L330.582 339.231L344.88 351.627L360.328 338.459L350.325 322.333L347.066 317.096L350.984 312.33C352.906 309.975 354.846 307.413 356.749 304.625H356.787C358.576 302.006 360.291 299.293 361.892 296.486L364.944 291.136L370.991 292.304L389.622 295.902L396.423 276.781L379.732 267.833L374.288 264.913L375.305 258.828C375.814 255.776 376.19 252.592 376.454 249.296C376.699 246.206 376.812 242.985 376.793 239.669L376.756 233.49L382.614 231.455L400.492 225.276L396.819 205.364L377.924 205.967L371.726 206.155L369.54 200.334C368.41 197.301 367.148 194.343 365.81 191.517C364.341 188.447 362.834 185.583 361.327 182.983L358.237 177.69L362.269 173.037L374.683 158.719L361.515 143.271L345.37 153.275L340.133 156.534L335.367 152.615C332.88 150.581 330.318 148.659 327.7 146.851L327.662 146.813C325.043 145.005 322.312 143.309 319.524 141.708L314.173 138.656L315.341 132.609L318.94 113.958L299.818 107.158L290.87 123.849L287.95 129.293L281.903 128.295C278.926 127.805 275.724 127.409 272.333 127.145C269.206 126.901 266.003 126.769 262.763 126.788L256.546 126.825L254.511 120.966L248.332 103.089L228.42 106.762L229.023 125.657L229.211 131.855L223.39 134.04C220.357 135.171 217.418 136.433 214.573 137.771C211.484 139.24 208.639 140.728 206.021 142.254L200.727 145.344L196.074 141.312L181.775 128.898L166.327 142.066L176.331 158.192L179.571 163.429L175.653 168.195C173.599 170.701 171.678 173.263 169.869 175.862V175.9C167.966 178.669 166.252 181.401 164.745 184.038L161.693 189.389L155.646 188.221L137.014 184.622L130.214 203.744L146.905 212.692L152.349 215.612L151.332 221.678C150.823 224.73 150.446 227.914 150.183 231.21C149.938 234.338 149.806 237.54 149.844 240.78L149.881 246.997L144.022 249.013L126.145 255.192L129.818 275.104L148.713 274.502L154.911 274.313L157.097 280.134C158.227 283.167 159.489 286.125 160.827 288.951C162.277 292.022 163.784 294.885 165.31 297.485L168.4 302.779L164.368 307.432L151.954 321.749L165.122 337.197L179.251 328.437V348.726C181.606 350.648 196.187 331.715 198.937 333.617C201.725 335.539 204.438 337.253 207.094 338.76L212.445 341.831L211.277 347.878L207.678 366.529L226.8 373.329L235.748 356.638L238.649 351.213L244.696 352.211C247.673 352.701 250.875 353.097 254.285 353.36C257.412 353.605 260.615 353.737 263.855 353.718L270.072 353.681L272.107 359.539L278.286 377.417L278.342 377.455ZM308.691 389.436L266.869 397.141L264.439 390.115L257.808 370.918C256.207 370.843 254.587 370.748 252.985 370.617C251.384 370.485 249.764 370.315 248.106 370.127L238.517 388.042L235.013 394.561L228.062 392.093L195 380.356L187.992 377.87L189.386 370.617L193.248 350.629C191.835 349.743 190.479 348.839 189.179 347.954C187.879 347.068 186.579 346.126 185.26 345.128L167.966 355.866L161.693 359.747L156.87 354.095L134.113 327.382L129.328 321.768L134.17 316.173L147.489 300.819C146.716 299.35 145.982 297.88 145.303 296.449C144.606 294.998 143.947 293.529 143.307 292.04L122.998 292.681L115.557 292.926L106.515 243.813L132.738 234.752C132.813 233.151 132.908 231.531 133.04 229.929C133.171 228.328 133.322 226.708 133.529 225.069L115.633 215.48L109.096 211.976L111.582 205.006L123.338 171.944L125.805 164.974L133.077 166.368L153.065 170.23C153.95 168.836 154.836 167.479 155.74 166.179H155.759C156.682 164.861 157.624 163.542 158.566 162.261L147.828 144.948L143.928 138.656L149.561 133.852L176.274 111.095L181.907 106.291L187.502 111.151L202.856 124.47C204.325 123.698 205.795 122.963 207.245 122.266C208.696 121.569 210.165 120.91 211.634 120.269L210.994 99.9613L210.749 92.52L259.861 83.4774L262.292 90.5043L268.923 109.701C270.524 109.776 272.144 109.87 273.746 110.002C275.347 110.134 276.967 110.304 278.625 110.492L288.214 92.5765L291.699 86.0584L331.712 100.263L338.72 102.749L337.326 110.002L333.464 130.009C334.821 130.876 336.158 131.761 337.496 132.665H337.533C338.852 133.607 340.152 134.53 341.433 135.491L358.746 124.753L365.019 120.872L369.842 126.524L392.599 153.237L397.384 158.851L392.542 164.427L379.223 179.781C379.996 181.25 380.73 182.72 381.427 184.17C382.125 185.621 382.784 187.09 383.424 188.56L411.155 187.674L420.198 236.787L413.171 239.217L393.974 245.848C393.899 247.449 393.805 249.069 393.673 250.69C393.541 252.291 393.39 253.911 393.183 255.55L411.098 265.139L417.635 268.643L415.168 275.613L403.412 308.675L400.926 315.645L393.654 314.251L373.647 310.389C372.781 311.746 371.895 313.102 370.972 314.421H370.991C370.087 315.74 369.145 317.058 368.165 318.377L378.903 335.671L382.803 341.963L377.17 346.767L344.843 374.328L339.248 369.467L323.894 356.148C322.425 356.921 320.955 357.656 319.524 358.334C318.073 359.031 316.604 359.69 315.115 360.331L315.756 380.639L315.982 388.08L308.691 389.418V389.436Z" fill="white"/>
</g>
<path opacity="0.65" d="M214.533 279.249C207.054 279.249 201.007 285.579 201.007 292.775C201.007 300.254 207.054 306.301 214.533 306.301C222.012 306.301 228.059 300.254 228.059 292.775C228.059 285.296 222.012 279.249 214.533 279.249Z" fill="#F26769"/>
<path opacity="0.53" d="M214.534 317.831C200.706 317.831 189.196 306.885 189.196 293.077C189.196 279.249 200.424 268.021 214.251 268.021C220.016 268.021 225.197 270.037 229.511 273.202L235.351 268.454V202.105L179.306 191.819V388.532L235.351 367.942V306.716C230.848 313.422 223.2 317.831 214.553 317.831H214.534Z" fill="white"/>
<path opacity="0.65" d="M279.904 253.346C287.383 253.346 293.43 247.016 293.43 239.518C293.43 232.039 287.383 225.992 279.904 225.992C278.303 225.992 276.796 226.331 275.383 226.859V252.517C276.796 253.026 278.303 253.346 279.904 253.346Z" fill="#EED116"/>
<path opacity="0.53" d="M304.941 239.518C304.941 243.55 304.074 247.299 302.341 250.464L330.562 272.919C334.706 269.886 339.661 267.927 345.124 267.757V180.365L275.364 156.345V214.896C276.834 214.632 278.341 214.463 279.886 214.463C293.713 214.463 304.941 225.691 304.941 239.518Z" fill="white"/>
<path opacity="0.65" d="M332.011 292.775C332.011 300.122 337.851 306.056 345.141 306.264V279.287C337.851 279.513 332.011 285.711 332.011 292.775Z" fill="#EED116"/>
<path opacity="0.53" d="M320.784 292.775C320.784 288.744 321.65 284.995 323.383 281.83L295.465 259.092C291.151 262.257 285.97 264.272 280.205 264.272C278.547 264.272 276.946 264.084 275.401 263.783V422.837L345.161 388.532V317.812C331.654 317.435 320.803 306.377 320.803 292.794L320.784 292.775Z" fill="white"/>
<path opacity="0.53" d="M385.176 130.047V253.308L389.019 250.181C387.286 246.733 386.419 243.267 386.419 239.236C386.419 225.408 397.647 214.18 411.475 214.18C425.302 214.18 436.53 225.408 436.53 239.236C436.53 253.063 425.302 264.291 411.475 264.291C405.71 264.291 400.529 262.275 396.215 259.11L385.176 268.097V464L469.799 395.371V179.216L385.176 130.047Z" fill="white"/>
<path opacity="0.65" d="M410.889 253.346C418.368 253.346 424.416 247.016 424.416 239.518C424.416 232.039 418.368 225.992 410.889 225.992C403.411 225.992 397.363 232.322 397.363 239.82C397.363 247.317 403.411 253.346 410.889 253.346Z" fill="#32A583"/>
<path opacity="0.53" d="M361.099 272.919C356.785 269.754 351.604 267.739 345.84 267.739C345.614 267.739 345.387 267.757 345.143 267.776V279.306C345.274 279.306 345.406 279.268 345.538 279.268C353.017 279.268 359.064 285.315 359.064 292.794C359.064 300.273 353.017 306.32 345.538 306.32C345.406 306.32 345.274 306.283 345.143 306.283V317.812C345.369 317.812 345.595 317.849 345.84 317.849C359.667 317.849 370.895 306.622 370.895 292.794C370.895 288.763 370.028 285.315 368.295 281.849L385.175 268.097V253.308L361.099 272.919Z" fill="white"/>
<path opacity="0.53" d="M266.36 239.801C266.36 233.904 270.128 228.78 275.365 226.84V214.896C263.704 217.025 254.831 227.235 254.831 239.518C254.831 243.55 255.698 246.997 257.431 250.464L235.333 268.455V306.716C238.008 302.722 239.572 297.937 239.572 292.775C239.572 288.744 238.705 285.296 236.972 281.83L264.891 259.092C267.962 261.352 271.484 263.01 275.346 263.783V252.517C270.109 250.652 266.341 245.697 266.341 239.82L266.36 239.801Z" fill="white"/>
</svg>
