<svg xmlns="http://www.w3.org/2000/svg" width="25.612" height="51.223" viewBox="0 0 25.612 51.223">
  <path id="WomenIcon" d="M13.6.615a6.028,6.028,0,0,1,4.024,1.5A4.877,4.877,0,0,1,19.3,5.738,4.877,4.877,0,0,1,17.629,9.36a6.148,6.148,0,0,1-8.049,0A4.877,4.877,0,0,1,7.913,5.738,4.877,4.877,0,0,1,9.58,2.116,6.028,6.028,0,0,1,13.6.615ZM9.336,51.839V36.472H.8l7.37-19.439A5.631,5.631,0,0,1,13.6,13.421a5.631,5.631,0,0,1,5.435,3.611l7.371,19.439H17.873V51.839Z" transform="translate(-0.799 -0.615)" fill="#f26769"/>
</svg>
