<svg xmlns="http://www.w3.org/2000/svg" width="63.732" height="63.732" viewBox="0 0 63.732 63.732">
  <g id="CompleteIcon" transform="translate(-148 1047.307)">
    <circle id="Ellipse_13" data-name="Ellipse 13" cx="31.866" cy="31.866" r="31.866" transform="translate(148 -1047.307)" fill="#6fb494"/>
    <circle id="Ellipse_14" data-name="Ellipse 14" cx="23.9" cy="23.9" r="23.9" transform="translate(155.967 -1039.341)" fill="#b2ddd0"/>
    <path id="Path_108" data-name="Path 108" d="M28.558,589.918l-7.694-7.566a1.154,1.154,0,0,1-.257-.378,1.145,1.145,0,0,1,0-.891,1.176,1.176,0,0,1,.257-.378l1.674-1.645a1.2,1.2,0,0,1,.384-.253,1.2,1.2,0,0,1,1.29.253l5.182,5.1,11.1-10.918a1.176,1.176,0,0,1,.384-.252,1.2,1.2,0,0,1,.906,0,1.177,1.177,0,0,1,.384.252l1.673,1.647a1.15,1.15,0,0,1,0,1.646L30.232,589.918a1.2,1.2,0,0,1-1.673,0Z" transform="translate(148 -1597)" fill="#6fb494"/>
  </g>
</svg>
