<svg width="45" height="38" viewBox="0 0 45 38" fill="none" xmlns="http://www.w3.org/2000/svg">
<path d="M40.7277 0H3.75948C1.68318 0 0 1.71704 0 3.83511V33.2376C0 35.3557 1.68318 37.0727 3.75948 37.0727H40.7277C42.804 37.0727 44.4872 35.3557 44.4872 33.2376V3.83511C44.4872 1.71704 42.804 0 40.7277 0Z" fill="#3170B5"/>
<path d="M35.3417 10.3132H30.3958L27.4356 7.32374C27.4356 7.32374 27.4209 7.30908 27.4136 7.30908L27.3989 7.29443C26.9593 6.85479 26.3658 6.57635 25.6917 6.57635H19.5368C18.8187 6.57635 18.1813 6.8841 17.7343 7.37503V7.38236L14.84 10.3132H9.78419C8.42134 10.3132 7.32227 11.383 7.32227 12.7459V27.5543C7.32227 28.9171 8.42134 30.0235 9.78419 30.0235H35.3417C36.6972 30.0235 37.8036 28.9171 37.8036 27.5543V12.7459C37.8036 11.383 36.6972 10.3132 35.3417 10.3132ZM22.563 26.3233C18.8334 26.3233 15.7926 23.2751 15.7926 19.5382C15.7926 15.794 18.8334 12.7532 22.563 12.7532C26.2999 12.7532 29.3333 15.794 29.3333 19.5382C29.3333 23.2751 26.2999 26.3233 22.563 26.3233ZM34.8801 14.2333C34.3159 14.2333 33.8543 13.7717 33.8543 13.2002C33.8543 12.6286 34.3159 12.167 34.8801 12.167C35.4443 12.167 35.9059 12.6286 35.9059 13.2002C35.9059 13.7717 35.4443 14.2333 34.8801 14.2333Z" fill="white"/>
<path d="M22.5636 14.4092C19.7353 14.4092 17.4492 16.7026 17.4492 19.5383C17.4492 22.3666 19.7353 24.6673 22.5636 24.6673C25.3846 24.6673 27.6781 22.3739 27.6781 19.5383C27.6781 16.7026 25.3846 14.4092 22.5636 14.4092Z" fill="white"/>
</svg>
