<svg width="44" height="55" viewBox="0 0 44 55" fill="none" xmlns="http://www.w3.org/2000/svg">
<path d="M30.1513 3.21815C30.2926 3.30028 30.424 3.41198 30.5784 3.45797C37.6123 5.46859 40.7334 11.3263 41.259 18.5606C41.4923 21.7933 41.7124 25.1312 39.8759 28.1307C39.3469 28.9948 39.5736 29.9245 39.981 30.805C40.9699 32.9339 41.9194 35.0857 42.9542 37.1916C43.5226 38.3481 43.0692 38.7916 41.9785 38.969C41.3313 39.0741 40.6709 39.1398 40.0467 39.3271C39.0841 39.6195 38.5223 40.2338 38.9494 41.3016C39.3699 42.3496 39.1038 43.0691 38.0821 43.5553C37.77 43.7031 37.1852 43.9035 37.471 44.3405C38.3876 45.7335 37.4612 46.269 36.4592 46.8373C35.9401 47.133 36.0649 47.6816 35.9992 48.1613C35.628 50.8487 34.8296 51.5353 32.1258 51.4959C30.5029 51.4729 29.0245 50.8881 27.5625 50.2738C25.2924 49.3177 23.1306 48.1482 21.0412 46.8439C19.0043 45.5725 16.9575 44.3076 15.0586 42.4054C15.1867 43.6144 15.9161 44.1171 16.5698 44.5803C18.1271 45.6875 19.7073 46.7815 21.3565 47.7408C22.4078 48.3518 23.1766 48.8676 22.2797 50.1621C22.1056 50.4117 22.1187 50.7928 22.0432 51.1115C22.2206 51.1214 22.4013 51.1279 22.5787 51.1378C23.3704 48.9826 23.3573 49.0155 25.4632 49.9978C27.7892 51.082 30.0955 52.2647 32.7829 52.1234C35.1582 51.9986 35.9959 51.3218 36.4789 48.9859C36.6793 48.0135 37.3495 47.3564 37.7831 46.5844C38.5946 45.1322 39.8167 43.5257 39.6262 41.8502C39.4521 40.3061 39.8726 39.8889 41.167 39.718C41.7584 39.6392 42.3596 39.5373 42.9214 39.3435C43.8511 39.0215 44.2059 38.4269 43.7361 37.4347C42.7078 35.2631 41.7715 33.0456 40.7038 30.8904C40.1354 29.7438 40.3194 28.7582 40.7301 27.6149C43.3419 20.3379 42.2249 13.5045 37.7996 7.28865C36.0058 4.76882 33.1804 3.51383 30.1973 2.74506L30.1448 3.22143L30.1513 3.21815Z" fill="#0C1C2D"/>
<path d="M30.1508 4.03948C30.6962 4.37787 31.35 4.506 31.9512 4.73926C32.5162 4.95937 33.0682 5.21234 33.6037 5.49817C34.5827 6.0271 35.4927 6.67759 36.3075 7.43322C37.9534 8.96418 39.1526 10.9124 39.9411 13.0084C40.8347 15.3804 41.1698 17.874 41.3308 20.3938C41.3538 20.742 41.3735 21.0903 41.3866 21.4385C41.3965 21.6422 41.3965 21.8492 41.4063 22.0529C41.3603 20.8472 41.3998 21.7736 41.3833 22.0825C41.3406 22.8578 41.2421 23.6331 41.0646 24.3887C40.8872 25.1444 40.6408 25.8441 40.309 26.5242C40.1349 26.8757 39.9016 27.2043 39.7439 27.5624C39.606 27.8778 39.5731 28.1997 39.5665 28.5381C39.5501 29.4448 39.491 30.3582 39.8162 31.2189C40.1415 32.0797 40.5981 32.947 40.9891 33.8012C41.38 34.6554 41.7874 35.549 42.1981 36.4163C42.4149 36.8762 42.6317 37.3329 42.8551 37.7863C43.0161 38.1148 43.1771 38.4368 43.2067 38.8047L43.2001 38.2002V38.2791L43.2067 37.2409C43.1541 37.8684 42.5168 38.0458 41.9845 38.1345C41.1435 38.2791 40.1809 38.2988 39.4351 38.762C38.7945 39.1595 38.8043 39.7443 38.8011 40.4244C38.8011 40.8613 38.7518 41.3377 38.8471 41.7714C38.8865 41.9488 38.9588 42.113 39.0146 42.2806C39.0442 42.3693 39.0737 42.4613 39.0935 42.5533C39.1986 43.0329 39.0935 43.6177 39.1362 41.5217V41.41C39.1033 41.8305 38.9062 42.1689 38.5744 42.4251C38.259 42.6715 37.753 42.7537 37.4968 43.0592C37.3851 43.1906 37.3949 43.3319 37.3949 43.4962C37.3884 43.9265 37.3851 44.3569 37.3949 44.7873C37.4015 44.9975 37.4508 45.0961 37.5559 45.2768C37.9272 45.9207 37.799 46.7486 37.845 44.6986V44.5869C37.753 45.4575 36.8693 45.6119 36.3206 46.1047C36.0217 46.3741 36.048 46.7782 36.0217 47.1461C35.9921 47.5667 35.9067 47.9938 35.8049 48.4011C35.6603 48.9728 35.4369 49.5608 34.9934 49.9682C34.5499 50.3756 34.0078 50.5202 33.4526 50.5957C31.3335 50.8815 29.3525 50.1916 27.4306 49.3736C25.2623 48.4504 23.1859 47.3268 21.1819 46.085C19.0202 44.7446 16.8847 43.368 15.0712 41.5677C15.1468 41.6432 15.0646 42.2707 15.0646 42.389C15.0646 42.6584 15.0384 42.9409 15.0712 43.2103C15.1731 44.0152 15.564 44.6164 16.2014 45.1092C16.98 45.7072 17.8046 46.2558 18.6194 46.8045C19.4965 47.3991 20.3869 47.9708 21.3002 48.5063C21.8554 48.8315 22.6242 49.2027 22.6833 49.9288L22.6767 48.6935V48.7789L22.6833 48.3716C22.6537 48.7067 22.5059 48.9793 22.3318 49.2619C22.1379 49.5773 22.1248 49.9157 22.0558 50.2738C22.0262 50.4249 22.0459 51.9164 22.0558 51.9164C22.1511 51.9197 22.5125 51.9887 22.5913 51.9427C22.657 51.9033 22.6997 51.647 22.7326 51.5649C22.818 51.3349 22.9034 51.105 23.0053 50.8816C23.1137 50.6384 23.2484 50.3329 23.5046 50.2113C23.7609 50.0898 24.0434 50.1883 24.2832 50.2738C24.7826 50.4512 25.259 50.6976 25.7354 50.921C28.288 52.1168 30.9524 53.3258 33.8468 52.8166C34.6714 52.672 35.4106 52.3205 35.8607 51.5912C36.117 51.1739 36.2747 50.7009 36.3929 50.2278C36.5506 49.6036 36.705 49.0615 37.0598 48.5128C37.7958 47.3663 38.5777 46.2197 39.1559 44.9778C39.7341 43.736 39.7867 42.1919 39.6224 40.7858C39.56 40.2503 39.5863 42.021 39.6125 41.8601C39.6257 41.7845 39.6257 41.7057 39.6388 41.6268C39.6552 41.5282 39.6782 41.4264 39.7177 41.3344C39.7834 41.1669 39.8852 41.0223 40.0232 40.9073C40.3616 40.6281 40.8412 40.5689 41.2585 40.5098C42.2736 40.3685 43.9393 40.2174 43.9656 38.8934C43.9787 38.2331 44.0806 37.461 43.8539 36.8237C43.5845 36.0746 43.1804 35.3551 42.8486 34.6291C42.1652 33.1211 41.4819 31.6132 40.7591 30.1216C40.5948 29.7832 40.4799 29.4481 40.4043 29.0802L40.3944 29.0145C40.3386 28.5907 40.332 28.9291 40.3714 30.0264C40.3813 29.9245 40.3879 29.8227 40.401 29.7208C40.4273 29.5171 40.4733 29.3134 40.5259 29.113C40.7197 28.3837 41.0121 27.6774 41.2256 26.9546C41.6297 25.5682 41.9155 24.1456 42.0502 22.7067C42.3065 19.9831 42.2244 17.1282 41.5804 14.4638C40.9365 11.7994 39.6487 9.08902 38.0257 6.74659C36.4981 4.53885 34.264 3.1853 31.7475 2.35083C31.4452 2.24899 31.1397 2.157 30.8309 2.06829C30.6798 2.02558 30.4925 1.94017 30.3348 1.9336C30.187 1.92703 30.279 1.86789 30.2034 1.97959C30.1541 2.05515 30.1705 2.28841 30.1607 2.37383C30.1015 2.91591 30.2198 3.47769 30.1607 4.01649C30.1672 3.95407 30.164 3.77009 30.1968 3.7011C30.2691 3.53683 30.1081 3.5664 30.3381 3.57626C30.4728 3.57954 30.6436 3.65839 30.7717 3.69453C31.0806 3.77995 31.3861 3.87193 31.6883 3.97378C32.2896 4.1709 32.8809 4.3943 33.4591 4.65713C34.609 5.17949 35.6932 5.84969 36.6163 6.71373C37.6052 7.64019 38.351 8.79991 39.0409 9.95963C39.7308 11.1193 40.355 12.3908 40.838 13.6819C41.3209 14.973 41.656 16.2149 41.8728 17.529C41.9911 18.2353 42.07 18.9515 42.1094 19.6677C42.1192 19.8222 42.1192 19.9766 42.1291 20.131C42.1488 20.4595 42.1389 19.5429 42.1324 19.6283C42.1258 19.7334 42.1258 19.8419 42.1225 19.947C42.1061 20.3412 42.0798 20.7355 42.0437 21.1297C41.909 22.5194 41.6363 23.8959 41.2453 25.2396C41.0416 25.946 40.769 26.6293 40.5653 27.3324C40.3616 28.0354 40.3583 28.6662 40.3583 29.3627C40.3583 30.1906 40.3649 30.9232 40.7263 31.6887C41.1106 32.51 41.5147 33.3248 41.8925 34.1494C42.2704 34.974 42.6186 35.7559 42.9866 36.5576C43.1738 36.9715 43.3644 37.3822 43.5549 37.7961C43.6403 37.9801 43.7356 38.1608 43.8112 38.3481C43.9689 38.7259 43.9492 39.3501 43.9557 38.0261L43.9623 37.4216C43.8572 38.6569 41.9944 38.7456 41.0844 38.8836C40.7 38.9427 40.2696 39.0248 39.9739 39.3008C39.6782 39.5768 39.6257 39.948 39.606 40.316C39.5764 40.9993 39.5665 41.7057 39.6191 42.389C39.6224 42.4317 39.6257 42.4777 39.629 42.5204C39.6947 43.0986 39.675 41.4297 39.6552 41.5578C39.6257 41.7418 39.6158 41.9291 39.5764 42.1163C39.5008 42.4679 39.3826 42.8095 39.238 43.1381C38.7156 44.3471 37.9699 45.5166 37.2307 46.6041C36.866 47.1429 36.5999 47.6685 36.4586 48.3059C36.3535 48.7789 36.2188 49.2553 36.002 49.6923C35.6274 50.4347 35.0065 50.8881 34.2082 51.0918C31.5569 51.762 28.8893 50.737 26.5173 49.6364C25.8865 49.344 25.259 49.0319 24.6216 48.7592C24.3325 48.6344 23.9547 48.4504 23.6295 48.5227C23.3469 48.5884 23.1925 48.8578 23.0742 49.0976C22.9658 49.3145 22.8804 49.5411 22.795 49.7645C22.7457 49.896 22.7129 50.0569 22.6406 50.1785C22.5355 50.3592 22.6274 50.2475 22.4665 50.2869C22.3515 50.3132 22.1806 50.2738 22.0657 50.2672V51.9099C22.1248 51.6109 22.1281 51.2856 22.2726 51.0097C22.4106 50.7501 22.5847 50.53 22.657 50.2409C22.7161 50.0044 22.6997 49.758 22.703 49.5149C22.703 49.114 22.726 48.7067 22.6997 48.3091C22.6307 47.3334 21.2903 46.8537 20.584 46.4201C19.352 45.6612 18.1561 44.8398 16.9734 44.0054C16.0502 43.3516 15.2355 42.7668 15.0811 41.5611V43.2038C16.8584 44.968 18.9446 46.3248 21.0636 47.6422C23.1827 48.9596 25.5809 50.2508 27.9957 51.2429C29.1357 51.7127 30.3118 52.1398 31.5438 52.2614C32.3815 52.3435 33.3277 52.3468 34.1392 52.0905C35.5387 51.647 35.9363 50.0964 36.0348 48.7789C36.0545 48.5161 36.0348 48.2369 36.1498 47.9938C36.2714 47.7309 36.5178 47.6225 36.7576 47.4812C37.1256 47.2644 37.5395 47.018 37.7465 46.6303C38.0159 46.1277 37.8779 45.3524 37.8713 44.8169C37.8713 44.5902 37.8713 44.37 37.8056 44.1466C37.7235 43.8608 37.4245 43.5717 37.4147 43.2793V44.8924C37.5034 44.4949 38.1079 44.3799 38.4101 44.1861C38.7781 43.9528 39.0672 43.6243 39.1395 43.184C39.2347 42.5894 39.1822 41.9356 39.1592 41.3377C39.1493 41.1143 39.1165 40.9008 39.0475 40.6872C39.0113 40.5689 38.962 40.4572 38.9226 40.3423C38.8963 40.27 38.8766 40.1944 38.8602 40.1188C38.7715 39.6096 38.7584 39.9842 38.8273 41.2457V41.3574C38.9818 39.6556 41.5739 40.0696 42.6679 39.5833C43.3611 39.2745 43.2264 38.5846 43.2231 37.9407C43.2231 37.5924 43.2559 37.2212 43.1738 36.8828C43.0687 36.4426 42.8124 36.0319 42.6186 35.6278C41.6954 33.7125 40.7821 31.7807 39.9345 29.8292C39.8491 29.6321 39.7702 29.4317 39.7111 29.2247C39.6782 29.113 39.6618 28.998 39.629 28.8863L39.606 28.7517V29.7208C39.7045 29.5368 39.7111 29.2576 39.8162 29.0572C39.9411 28.8141 40.0922 28.5874 40.2203 28.3443C40.6474 27.5229 40.9464 26.6458 41.1369 25.7423C41.5213 23.9091 41.4753 21.9773 41.4129 20.1145C41.3603 18.5113 41.2519 16.8949 40.9924 15.3114C40.5423 12.5616 39.6093 9.84136 37.937 7.58434C37.0467 6.37863 35.9527 5.32733 34.7076 4.49286C34.0374 4.04277 33.3244 3.65839 32.5885 3.33314C31.8033 2.98818 30.89 2.8272 30.1672 2.37711C30.2231 2.40997 30.1607 3.10974 30.1607 3.19844C30.1607 3.30029 30.0851 3.96721 30.1672 4.01977L30.1508 4.03948Z" fill="#0C1C2D"/>
<path d="M14.4274 1.74304C8.86866 2.33111 4.82115 5.02179 2.54771 10.2257C0.681645 14.4999 -0.418939 18.8924 0.178989 23.6035C0.402391 25.371 0.98061 26.9907 1.93335 28.4921C3.16206 30.4272 4.31192 32.4181 5.58334 34.3268C6.43424 35.6081 6.7792 36.8532 6.02357 38.2823C5.85931 38.5912 5.65233 38.9526 6.01372 39.4322C6.92375 37.8388 7.68266 36.39 6.43424 34.6094C5.40265 33.1375 4.69631 31.4292 3.61215 30.0033C0.185563 25.4828 0.12971 20.5022 1.43727 15.3278C1.80851 13.8527 2.3703 12.4203 2.92223 10.9978C4.73244 6.35234 8.10318 3.54011 13.0016 2.5808C13.4845 2.48552 13.9806 2.4461 14.3781 2.111C14.3946 1.98944 14.411 1.8646 14.4241 1.74304H14.4274Z" fill="#0C1C2D"/>
<path d="M14.4271 0.921692C11.8087 1.20751 9.23302 1.99271 7.08442 3.55324C4.93582 5.11376 3.36216 7.44962 2.31086 9.95632C0.963875 13.1661 0.0636976 16.55 0.0111325 20.0455C-0.0151501 21.8328 -0.0250078 23.6528 0.342948 25.4105C0.710903 27.1681 1.50267 28.6136 2.43241 30.1085C3.42458 31.7018 4.37732 33.3182 5.40891 34.8853C5.86557 35.5785 6.3058 36.2914 6.41422 37.1325C6.48978 37.7107 6.14154 37.3756 6.41422 36.2586C6.39451 36.344 6.38794 36.436 6.37151 36.5214C6.3288 36.7284 6.26309 36.9288 6.18096 37.1226C6.05283 37.4347 5.84258 37.714 5.80972 38.0589C5.76701 38.5156 5.79986 38.9985 5.80643 39.4552C5.80643 39.5965 5.79658 39.7509 5.82943 39.8921C5.84586 39.9677 5.882 40.0728 5.92471 40.132C6.0594 40.3127 6.04298 40.1977 6.14482 40.0203C6.51606 39.3599 6.8873 38.67 7.02857 37.9177C7.16984 37.1653 7.14027 36.2553 7.07785 35.4701C7.01543 34.6849 6.57848 34.0377 6.14482 33.3708C5.66845 32.6316 5.2545 31.8563 4.82084 31.0908C4.38718 30.3253 3.90423 29.6025 3.38844 28.8896C2.41927 27.5492 1.67022 26.0511 1.21356 24.461C0.996729 23.7087 0.845601 22.9366 0.753613 22.1613C0.707618 21.7605 0.687908 21.3597 0.658341 20.9556C0.628773 20.5153 0.67148 21.3531 0.651769 21.3597C0.661624 21.3597 0.661627 21.064 0.664913 21.0311C0.678054 20.7749 0.694478 20.5186 0.71419 20.2657C0.855459 18.5967 1.18399 16.9278 1.66365 15.3245C2.1433 13.7213 2.75109 12.0162 3.51328 10.482C4.09478 9.3124 4.82741 8.21509 5.72102 7.26235C7.5378 5.31744 9.94922 4.0953 12.5315 3.5138C12.906 3.42838 13.2871 3.3824 13.6583 3.28712C13.8292 3.24442 14 3.18856 14.1544 3.09985C14.4008 2.95858 14.3943 2.85017 14.4271 2.5742C14.4961 2.03541 14.3581 1.46705 14.4271 0.931548C14.3975 1.16809 14.4238 1.28636 14.2103 1.42105C14.0394 1.52618 13.8522 1.59189 13.6583 1.64446C13.2871 1.73973 12.906 1.78573 12.5315 1.87114C11.8547 2.02227 11.1878 2.2161 10.5373 2.45922C9.31844 2.91259 8.16201 3.53352 7.1337 4.33186C6.1054 5.13019 5.23479 6.07635 4.50873 7.13751C3.67426 8.35965 3.1059 9.69677 2.57697 11.0701C1.92647 12.7686 1.38111 14.4868 1.04272 16.2773C0.740473 17.8739 0.635346 19.4706 0.635346 21.0936C0.635346 22.7165 0.720761 24.2442 1.12486 25.7883C1.54209 27.3784 2.24515 28.8798 3.1749 30.2333C3.73011 31.0415 4.29847 31.8168 4.7847 32.671C5.27093 33.5252 5.72101 34.386 6.26309 35.1974C6.53577 35.6048 6.80517 35.999 6.95301 36.4721C6.98586 36.574 7.00886 36.6758 7.03186 36.7809C7.15013 37.3854 7.05485 36.0713 7.06471 36.0418C6.99572 36.2389 6.98915 36.482 6.92673 36.689C6.80517 37.0931 6.62777 37.4774 6.43065 37.852C6.3288 38.0491 6.22038 38.2462 6.10868 38.44C6.03969 38.5616 6.07254 38.624 5.96413 38.555C5.85571 38.486 5.82615 38.2528 5.80972 38.1411L5.81629 39.1792V39.0708L5.80972 39.6753C5.85572 39.3435 6.05283 39.0741 6.17768 38.7686C6.32223 38.4203 6.40765 38.0589 6.43065 37.6844C6.47664 36.8992 6.5292 36.022 6.36494 35.2467C6.20067 34.4714 5.75387 33.788 5.31692 33.1211C4.8307 32.3786 4.36418 31.6263 3.89766 30.8739C3.43115 30.1216 2.94492 29.3167 2.46527 28.5414C2.01189 27.8087 1.53881 27.0925 1.17414 26.3074C0.464509 24.7797 0.145831 23.137 0.0472712 21.4615C0.0341299 21.2644 0.0472706 21.0574 0.020988 20.8636V21.3268C0.020988 21.2315 0.0209894 21.1363 0.0275601 21.041C0.0308454 20.9424 0.0341285 20.8439 0.0406991 20.7453C0.0636964 20.2657 0.106409 19.7893 0.162259 19.3129C0.264104 18.4653 0.411942 17.6276 0.602491 16.7964C0.973732 15.1668 1.50595 13.5735 2.13673 12.0228C3.13876 9.55551 4.48573 7.27549 6.58505 5.58355C8.82235 3.77991 11.5952 2.87975 14.4238 2.57092C14.4961 2.56434 14.3778 0.934832 14.4238 0.928262L14.4271 0.921692Z" fill="#0C1C2D"/>
<path d="M13.7629 27.4868C13.441 26.3501 12.5671 25.7259 11.6373 25.1936C10.3823 24.4742 9.10764 24.1686 7.8395 25.2166C6.34468 26.4519 5.74018 27.9204 6.41039 29.5434C7.29742 31.6953 8.57213 33.6796 9.28833 35.9202C9.47559 36.5083 9.98153 36.9124 10.7043 36.6003C10.3955 36.2356 9.95196 35.9202 9.81398 35.5063C9.13392 33.4234 8.1089 31.5113 7.11673 29.573C6.34797 28.0716 6.95247 26.8232 8.1089 25.7883C9.19963 24.8093 10.3626 25.1345 11.4369 25.7719C12.2615 26.2614 12.9942 26.9086 13.7662 27.4868H13.7629Z" fill="#0C1C2D"/>
<path d="M13.7631 26.6655C13.3491 25.3086 12.0021 24.4052 10.7242 23.9354C10.0244 23.6791 9.27205 23.6265 8.57556 23.9321C7.87907 24.2376 7.27457 24.8355 6.83434 25.4368C6.44996 25.9624 6.19042 26.5702 6.14114 27.2273C6.08857 27.9599 6.06229 28.7582 6.16413 29.4908C6.26926 30.2662 6.66679 30.9955 7.00189 31.692C7.35999 32.4378 7.74109 33.1704 8.10247 33.9129C8.50657 34.7441 8.89095 35.5884 9.18991 36.4656C9.4396 37.1982 9.85026 37.7501 10.6979 37.4216C10.7439 37.4052 10.7702 35.8611 10.6979 35.7789C10.3398 35.3716 9.94225 35.066 9.76156 34.5371C9.54473 33.9129 9.31147 33.3018 9.04864 32.6973C8.52628 31.4916 7.92178 30.3253 7.32057 29.1557C7.1793 28.8765 7.02489 28.6038 6.92305 28.3081C6.88034 28.1866 6.84748 28.065 6.8212 27.9402C6.80806 27.881 6.80806 27.8153 6.79163 27.7595C6.78178 27.7233 6.68979 29.1623 6.7982 28.7089C6.91976 28.203 7.0906 27.7693 7.40927 27.3488C8.12219 26.4092 9.10778 25.7489 10.3168 26.0873C11.6408 26.4552 12.6953 27.4999 13.7664 28.3048C13.7039 28.2556 13.7729 27.5821 13.7729 27.4835C13.7729 27.3685 13.8583 26.7345 13.7664 26.6622C12.7085 25.8671 11.6736 24.8487 10.3759 24.461C9.07821 24.0733 7.93492 24.8651 7.23843 25.9526C6.94933 26.4059 6.78835 26.8987 6.76864 27.4342C6.74564 28.0913 6.69964 28.8042 6.80149 29.458C6.90333 30.1118 7.291 30.7327 7.59982 31.3339C7.94478 32.0074 8.28974 32.6842 8.6117 33.3708C8.95666 34.1034 9.27862 34.8459 9.56116 35.6015C9.69257 35.9563 9.77142 36.3572 10.0014 36.6627C10.2051 36.9387 10.4778 37.1588 10.7012 37.4183V35.7757C10.1492 35.9892 9.62358 35.8381 9.36075 35.2861C9.05193 34.6389 8.86795 33.9162 8.57227 33.2558C7.94806 31.8596 7.19244 30.5224 6.58137 29.1196C6.45653 28.8338 6.33169 28.548 6.24956 28.2457C6.21013 28.0946 6.17728 27.9402 6.16085 27.7858C6.09514 27.2371 6.41382 27.385 6.15428 28.7549C6.17071 28.6629 6.17728 28.5709 6.19699 28.4822C6.31526 27.8876 6.61094 27.3455 6.98875 26.8823C7.90864 25.7521 9.14721 25.0491 10.6026 25.5353C11.9233 25.9755 13.3426 26.9217 13.7631 28.3081C13.6974 28.088 13.7696 27.7201 13.7696 27.4868C13.7696 27.2404 13.8354 26.9053 13.7631 26.6655Z" fill="#0C1C2D"/>
<path d="M30.1507 3.21813L30.2033 2.74176C26.2215 1.34221 22.0984 1.15166 17.9326 1.2995C17.9556 1.47362 17.9819 1.64446 18.0049 1.8153C22.1181 1.71674 26.1755 2.10769 30.1507 3.21484V3.21813Z" fill="#0C1C2D"/>
<path d="M30.1506 4.03948L30.2032 3.56311C30.2229 3.39228 30.2919 1.95331 30.2032 1.92045C26.2575 0.550477 22.0753 0.333646 17.9325 0.4782C17.9161 0.4782 17.9128 1.97959 17.9325 2.12086C17.949 2.22927 17.9621 2.33769 17.9785 2.44282C18.0081 2.65636 17.9884 2.59723 18.1625 2.63337C18.4023 2.68265 18.7046 2.62351 18.951 2.62351C19.5029 2.62351 20.0548 2.6268 20.6068 2.64322C21.6778 2.67608 22.7488 2.74178 23.8165 2.85348C25.9553 3.0736 28.0743 3.46455 30.1506 4.0362C30.1276 4.02963 30.1572 3.28058 30.1572 3.21487C30.1572 3.14588 30.1966 2.40668 30.1506 2.39354C28.0776 1.8219 25.9586 1.43094 23.8165 1.21082C22.7751 1.10241 21.7304 1.0367 20.6856 1.00385C20.1337 0.987424 19.5818 0.980853 19.0331 0.980853C18.7703 0.980853 18.5075 0.984138 18.2446 0.990709C18.1658 0.990709 18.0869 0.99071 18.0081 0.997281L17.9917 0.869151C17.9424 0.770592 17.9522 0.589901 17.9391 0.481486V2.12414C22.0819 1.97959 26.2641 2.19314 30.2098 3.5664V1.92374L30.1572 2.40011C30.0981 2.94219 30.2163 3.50398 30.1572 4.04277L30.1506 4.03948Z" fill="#0C1C2D"/>
<path d="M30.6045 24.0963C33.4102 23.4623 36.0187 23.2093 38.8474 24.323C36.8269 22.4833 33.3313 22.4274 30.6045 24.0963Z" fill="#0C1C2D"/>
<path d="M30.605 24.9177C33.3778 24.3 36.1506 24.1062 38.8479 25.1444C38.815 25.1312 38.8544 24.3953 38.8544 24.323C38.8544 24.1292 38.8544 23.9354 38.8544 23.7415C38.8544 23.7021 38.8742 23.5247 38.8479 23.5017C36.5711 21.4779 33.0723 21.79 30.605 23.275C30.536 23.3177 30.5984 24.0011 30.5984 24.0963C30.5984 24.1916 30.674 24.8782 30.605 24.9177C33.0756 23.436 36.5711 23.1239 38.8479 25.1444V23.5017C36.1473 22.4603 33.3778 22.6541 30.605 23.275C30.4769 23.3046 30.7101 24.8947 30.605 24.9177Z" fill="#0C1C2D"/>
<path d="M22.5869 51.1345C22.4095 51.1246 22.2288 51.1181 22.0514 51.1082C21.7524 52.1562 21.3549 53.1681 20.918 54.1767C21.9528 53.4145 22.4062 52.3501 22.5869 51.1345Z" fill="#0C1C2D"/>
<path d="M22.5874 50.3132C22.4363 50.3066 22.2589 50.2705 22.111 50.2902C22.042 50.3 22.0683 50.2803 22.0355 50.3427C22.019 50.3756 22.0125 50.4183 22.0026 50.4544C21.9796 50.53 21.9566 50.6023 21.9336 50.6778C21.8383 50.9834 21.7365 51.2889 21.6248 51.5879C21.408 52.1825 21.1681 52.7706 20.9152 53.3521C20.8954 53.4014 20.9086 53.5591 20.9086 53.5919C20.9086 53.7858 20.9086 53.9796 20.9086 54.1734C20.9086 54.3673 20.9086 54.5611 20.9086 54.7549C20.9086 54.7878 20.9316 54.9849 20.9152 54.9948C21.9073 54.2556 22.4034 53.1517 22.5841 51.9525C22.6235 51.6897 22.594 51.3973 22.5907 51.1312C22.5907 50.9374 22.5907 50.7436 22.5907 50.5497C22.5907 50.4742 22.5742 50.3822 22.5841 50.3099C22.4034 51.509 21.9073 52.6129 20.9152 53.3521V54.9948C21.1681 54.4133 21.408 53.8252 21.6248 53.2305C21.7299 52.9381 21.8318 52.6425 21.9237 52.3468C21.9467 52.2712 21.9697 52.199 21.9927 52.1234C22.0026 52.0873 22.0157 52.0478 22.0256 52.0117C22.042 51.9591 22.0355 51.946 22.0782 51.9296C22.134 51.9066 22.2556 51.9394 22.3147 51.9394L22.5808 51.9525C22.5808 51.9525 22.6202 50.3132 22.5808 50.3099L22.5874 50.3132Z" fill="#0C1C2D"/>
<path d="M18.0049 1.8186C17.9819 1.64776 17.9556 1.47364 17.9326 1.3028C16.7499 1.34551 15.5705 1.4145 14.4239 1.74632C14.4075 1.86787 14.3911 1.99272 14.3779 2.11427C15.6099 2.29825 16.7894 1.84816 18.0049 1.82188V1.8186Z" fill="#0C1C2D"/>
<path d="M18.005 0.997302L17.9689 0.737761C17.9623 0.691766 17.9656 0.507788 17.9327 0.47822C17.8999 0.448652 17.6995 0.488076 17.6535 0.488076C17.5615 0.491361 17.4695 0.494647 17.3742 0.501217C16.9931 0.520929 16.612 0.543926 16.2309 0.58335C15.8498 0.622774 15.495 0.675339 15.1336 0.747616C14.953 0.783755 14.769 0.826464 14.5916 0.872458C14.5554 0.882314 14.4864 0.888885 14.4569 0.908597C14.4142 0.94145 14.4207 0.948019 14.4109 1.01045L14.3747 1.28641C14.355 1.44082 14.332 2.9225 14.3747 2.92907C15.5969 3.10319 16.7862 2.67282 18.0017 2.63668C18.0313 2.63668 17.9984 0.994016 18.0017 0.994016C16.7862 1.03016 15.5969 1.46053 14.3747 1.28641V2.92907L14.4076 2.68267C14.4109 2.65639 14.4076 2.58083 14.424 2.56112C14.4404 2.5414 14.5324 2.53155 14.5587 2.52498C14.7394 2.4757 14.9201 2.43299 15.1008 2.39685C15.4753 2.32129 15.8531 2.26544 16.2309 2.22601C16.6088 2.18659 16.9701 2.16359 17.3381 2.14388C17.4301 2.1406 17.5221 2.13402 17.6173 2.13074C17.6863 2.13074 17.8342 2.0946 17.8966 2.12088C17.9459 2.1406 17.936 2.15045 17.9459 2.21616L17.9623 2.34429L18.0017 2.63668C17.9919 2.56769 18.0083 2.46256 18.0083 2.39685C18.0083 2.20302 18.0083 2.00918 18.0083 1.81535C18.0083 1.54595 18.0379 1.26013 18.0017 0.994016L18.005 0.997302Z" fill="#0C1C2D"/>
<path d="M3.99022 43.4272C3.21817 44.0448 3.00462 44.5179 2.96191 45.2604C3.71425 44.8924 3.84895 44.3865 3.99022 43.4272Z" fill="#0C1C2D"/>
<path d="M3.99069 42.6058C3.68187 42.8522 3.38619 43.1315 3.19893 43.4863C3.03795 43.7918 2.9821 44.1269 2.9591 44.4686C2.93939 44.7676 2.95253 45.0698 2.95253 45.3688C2.95253 45.5265 2.95253 45.6842 2.95253 45.8419C2.95253 45.8682 2.96896 46.0784 2.9591 46.0817C3.27449 45.9273 3.54389 45.7072 3.70158 45.3885C3.87571 45.037 3.93156 44.6329 3.98741 44.2485C3.99727 44.1729 3.99398 44.0809 3.99398 44.0087C3.99398 43.8148 3.99398 43.621 3.99398 43.4272C3.99398 43.2333 3.99398 43.0395 3.99398 42.8457C3.99398 42.7701 3.97755 42.6781 3.98741 42.6058C3.93156 42.9902 3.87571 43.3943 3.70158 43.7458C3.54389 44.0645 3.27449 44.2846 2.9591 44.439V46.0521C2.9591 46.0357 2.96239 46.0193 2.96568 46.0029V46.0324C2.98867 45.7072 3.05438 45.3885 3.21208 45.0994C3.39934 44.761 3.68845 44.4883 3.98741 44.2485C4.00384 44.2354 3.99398 43.989 3.99398 44.0087C3.99398 43.8148 3.99398 43.621 3.99398 43.4272C3.99398 43.2333 3.99398 43.0395 3.99398 42.8457C3.99398 42.8128 3.97098 42.619 3.98741 42.6058H3.99069Z" fill="#0C1C2D"/>
<path d="M1.57422 47.5732C2.29042 47.1593 2.49082 46.8472 2.4284 46.2722C1.84033 46.4267 1.80748 46.8636 1.57422 47.5732Z" fill="#0C1C2D"/>
<path d="M1.57422 48.3946C1.80748 48.2599 2.04402 48.112 2.21814 47.905C2.34956 47.7506 2.42183 47.5667 2.43826 47.363C2.4514 47.1987 2.44811 47.0344 2.44811 46.8702C2.44811 46.4431 2.46126 46.016 2.44155 45.5889C2.44155 45.5593 2.43826 45.5265 2.43498 45.4969C2.43498 45.4903 2.43497 45.4509 2.43169 45.4476C2.43169 45.4476 2.40541 45.4542 2.39884 45.4575C2.3397 45.4739 2.28056 45.4969 2.228 45.5232C2.05059 45.6119 1.92903 45.763 1.8469 45.9404C1.72863 46.1967 1.66621 46.4825 1.57751 46.7486C1.57751 46.7716 1.57422 46.7946 1.57751 46.8209C1.57751 46.8767 1.57751 46.9326 1.57751 46.9917C1.57751 47.1856 1.57751 47.3794 1.57751 47.5732C1.57751 47.7671 1.57751 47.9609 1.57751 48.1547V48.2829C1.57751 48.319 1.57751 48.3584 1.58408 48.3946C1.67935 48.1022 1.74506 47.7835 1.89289 47.5108C1.94875 47.4057 2.02431 47.3104 2.11958 47.2381C2.17215 47.1987 2.228 47.1691 2.29042 47.1429C2.32327 47.1297 2.35941 47.1166 2.39226 47.1067C2.40212 47.1067 2.43498 47.0903 2.44155 47.0936C2.44812 47.0969 2.44811 47.1494 2.44811 47.156V47.1264C2.44811 47.1494 2.44811 47.1724 2.44811 47.1954C2.45469 47.317 2.45469 45.5955 2.44811 45.7137C2.44811 45.7269 2.44811 45.7367 2.44811 45.7499V45.7203C2.43497 45.924 2.3627 46.1047 2.23128 46.2624C2.05716 46.4694 1.81734 46.6172 1.58736 46.7519C1.57422 46.7585 1.58079 47.018 1.58079 46.9917C1.58079 47.1856 1.58079 47.3794 1.58079 47.5732C1.58079 47.7671 1.58079 47.9609 1.58079 48.1547V48.2829C1.58079 48.319 1.58079 48.3584 1.58736 48.3946H1.57422Z" fill="#0C1C2D"/>
<path d="M5.60978 40.3718C5.83975 40.1582 6.07957 39.8429 5.74447 39.6523C5.51121 39.5176 5.44879 39.9414 5.35352 40.1484C5.43893 40.2239 5.52436 40.2962 5.60978 40.3718Z" fill="#0C1C2D"/>
<path d="M5.6099 41.1931C5.70846 41.1011 5.80373 41.0026 5.86287 40.881C5.89243 40.8219 5.90558 40.7628 5.91215 40.7003C5.91872 40.5689 5.91543 40.4375 5.91872 40.3061C5.91872 39.9743 5.91872 39.6425 5.91872 39.3106C5.91872 39.2252 5.91872 39.1398 5.91215 39.0544C5.91215 39.038 5.90886 39.0248 5.90558 39.0084C5.88915 38.9493 5.84973 38.9033 5.80373 38.8671C5.76431 38.8343 5.71174 38.8014 5.65918 38.8047C5.56719 38.8047 5.51791 38.9098 5.48506 38.9821C5.43578 39.0938 5.40621 39.2154 5.35693 39.3271C5.35693 39.3501 5.35364 39.3731 5.35693 39.3993C5.35693 39.4552 5.35693 39.511 5.35693 39.5702C5.35693 39.764 5.35693 39.9578 5.35693 40.1517C5.35693 40.3455 5.35693 40.5393 5.35693 40.7332V40.8613C5.35693 40.8975 5.35693 40.9369 5.3635 40.973C5.44892 41.0486 5.53434 41.1208 5.61976 41.1964C5.61976 41.1734 5.62304 41.1504 5.61976 41.1241C5.61976 41.0683 5.61976 41.0124 5.61976 40.9533C5.61976 40.7595 5.61976 40.5656 5.61976 40.3718C5.61976 40.178 5.61976 39.9841 5.61976 39.7903V39.6622C5.61976 39.626 5.61975 39.5866 5.61318 39.5505C5.52777 39.4749 5.44235 39.4026 5.35693 39.3271V40.9697C5.41278 40.8449 5.44235 40.7069 5.50477 40.5821C5.52776 40.5361 5.56062 40.4835 5.6099 40.4605C5.66575 40.4309 5.72489 40.4572 5.77417 40.4901C5.84973 40.5394 5.90558 40.6083 5.91543 40.7003V40.6051L5.90886 39.3139C5.91543 39.1168 5.91543 39.0544 5.90886 39.1267V39.0971C5.89243 39.2811 5.73803 39.4355 5.61318 39.5538C5.61318 39.5768 5.6099 39.5997 5.61318 39.626C5.61318 39.6819 5.61318 39.7377 5.61318 39.7969C5.61318 39.9907 5.61318 40.1845 5.61318 40.3784C5.61318 40.5722 5.61318 40.766 5.61318 40.9599V41.088C5.61318 41.1241 5.61318 41.1636 5.61976 41.1997L5.6099 41.1931Z" fill="#0C1C2D"/>
<path d="M5.35706 40.1484C5.18293 40.3783 5.09752 40.6116 5.32092 40.8613C5.41948 40.697 5.51475 40.536 5.61331 40.3718L5.35706 40.1484Z" fill="#0C1C2D"/>
<path d="M5.35612 39.3271C5.28713 39.4191 5.22471 39.5176 5.19843 39.6293C5.19186 39.6622 5.18857 39.695 5.18528 39.7279C5.16886 40.0006 5.17871 40.2765 5.17871 40.5492C5.17871 40.743 5.17871 40.9369 5.17871 41.1307C5.17871 41.2063 5.17872 41.2884 5.182 41.3607C5.182 41.3935 5.18528 41.4264 5.19514 41.4625C5.20828 41.5184 5.23456 41.5709 5.26742 41.6169C5.27727 41.6301 5.28713 41.6465 5.30027 41.6596C5.30684 41.6662 5.31341 41.6728 5.31998 41.6794L5.33312 41.6564L5.38897 41.5611C5.46125 41.4362 5.53682 41.3147 5.60909 41.1898C5.60909 41.1668 5.61238 41.1438 5.60909 41.1176C5.60909 41.0617 5.60909 41.0059 5.60909 40.9467C5.60909 40.7529 5.60909 40.5591 5.60909 40.3652C5.60909 40.1714 5.60909 39.9776 5.60909 39.7837V39.6556C5.60909 39.6195 5.60909 39.58 5.60252 39.5439L5.34627 39.3205C5.34627 39.3435 5.34298 39.3665 5.34627 39.3928C5.34627 39.4486 5.34627 39.5045 5.34627 39.5636C5.34627 39.7574 5.34627 39.9513 5.34627 40.1451C5.34627 40.3389 5.34627 40.5328 5.34627 40.7266V40.8547C5.34627 40.8909 5.34626 40.9303 5.35283 40.9664L5.60909 41.1898V39.5472C5.53025 39.6819 5.44811 39.8166 5.36926 39.9546L5.3397 40.0038C5.3397 40.0038 5.32984 40.0203 5.32656 40.0268C5.31341 40.04 5.32656 40.0367 5.31013 40.0268C5.28385 40.0071 5.26085 39.9644 5.24442 39.9381C5.21157 39.8823 5.19186 39.8231 5.18528 39.7607V39.7903C5.18528 39.7607 5.18528 39.7772 5.18528 39.8429V41.3344C5.18528 41.3344 5.18528 41.3213 5.18528 41.3147V41.3442C5.19514 41.203 5.2707 41.0814 5.35283 40.9697C5.35283 40.9467 5.35612 40.9237 5.35283 40.8974C5.35283 40.8416 5.35283 40.7857 5.35283 40.7266C5.35283 40.5328 5.35283 40.3389 5.35283 40.1451C5.35283 39.9513 5.35283 39.7574 5.35283 39.5636V39.4355C5.35283 39.3993 5.35284 39.3599 5.34627 39.3238L5.35612 39.3271Z" fill="#0C1C2D"/>
<path d="M2.72923 45.6251L2.68652 45.7499L2.79166 45.74L2.72923 45.6251Z" fill="#0C1C2D"/>
<path d="M2.72874 44.8037L2.6926 44.9122L2.68603 44.9286C2.68603 44.9516 2.68275 44.9746 2.68603 45.0009C2.68603 45.0567 2.68603 45.1126 2.68603 45.1717C2.68603 45.3655 2.68603 45.5594 2.68603 45.7532C2.68603 45.947 2.68603 46.1409 2.68603 46.3347V46.4628C2.68603 46.499 2.68603 46.5384 2.6926 46.5745L2.79773 46.5647C2.79773 46.5417 2.80102 46.5187 2.79773 46.4924C2.79773 46.4365 2.79773 46.3807 2.79773 46.3216C2.79773 46.1277 2.79773 45.9339 2.79773 45.7401C2.79773 45.5462 2.79773 45.3524 2.79773 45.1586V45.0304C2.79773 44.9943 2.79773 44.9549 2.79116 44.9187L2.73531 44.8169L2.72874 44.8037C2.72874 44.8267 2.72546 44.8497 2.72874 44.876C2.72874 44.9319 2.72874 44.9877 2.72874 45.0469C2.72874 45.2407 2.72874 45.4345 2.72874 45.6284C2.72874 45.8222 2.72874 46.016 2.72874 46.2099V46.338C2.72874 46.3741 2.72874 46.4135 2.73531 46.4497L2.79116 46.5515L2.79773 46.5647V44.922L2.6926 44.9319V46.5745L2.72874 46.4661L2.73531 46.4497C2.73531 46.4267 2.7386 46.4037 2.73531 46.3774C2.73531 46.3216 2.73531 46.2657 2.73531 46.2066C2.73531 46.0127 2.73531 45.8189 2.73531 45.6251C2.73531 45.4312 2.73531 45.2374 2.73531 45.0436V44.9154C2.73531 44.8793 2.73531 44.8399 2.72874 44.8037Z" fill="#0C1C2D"/>
</svg>
