<svg width="44" height="55" viewBox="0 0 44 55" fill="none" xmlns="http://www.w3.org/2000/svg">
<g clip-path="url(#clip0_3_659)">
<path d="M13.8431 2.77438C13.7019 2.85648 13.5705 2.96814 13.4161 3.01412C6.38497 5.02396 3.26512 10.8794 2.73967 18.1109C2.5065 21.3424 2.28646 24.679 4.12225 27.6774C4.65099 28.5411 4.42439 29.4705 4.01717 30.3506C3.02866 32.4787 2.07957 34.6297 1.04509 36.7348C0.476949 37.8908 0.93015 38.3342 2.02046 38.5115C2.66742 38.6166 3.32751 38.6823 3.95148 38.8695C4.91371 39.1617 5.47529 39.7759 5.04836 40.8432C4.628 41.8908 4.89401 42.61 5.91535 43.096C6.22734 43.2438 6.8119 43.4442 6.52619 43.8809C5.60993 45.2734 6.53604 45.8087 7.53768 46.3768C8.05656 46.6724 7.93176 47.2208 7.99744 47.7003C8.36854 50.3867 9.16657 51.073 11.8693 51.0336C13.4917 51.0106 14.9695 50.4261 16.4309 49.8119C18.7002 48.8563 20.8611 47.6872 22.9498 46.3834C24.9859 45.1125 27.0318 43.8481 28.93 41.9466C28.802 43.1552 28.0729 43.6576 27.4194 44.1207C25.8627 45.2274 24.2831 46.321 22.6345 47.2799C21.5836 47.8908 20.8151 48.4064 21.7117 49.7003C21.8857 49.9499 21.8726 50.3308 21.9481 50.6494C21.7708 50.6592 21.5902 50.6658 21.4128 50.6757C20.6214 48.5213 20.6345 48.5542 18.5294 49.5361C16.2043 50.6198 13.8989 51.8021 11.2125 51.6609C8.83816 51.5361 8.00072 50.8596 7.51797 48.5246C7.31764 47.5525 6.64769 46.8957 6.2142 46.1239C5.40303 44.6724 4.18136 43.0665 4.37184 41.3916C4.54589 39.8481 4.12554 39.431 2.83162 39.2603C2.24049 39.1814 1.6395 39.0796 1.07793 38.8859C0.14854 38.564 -0.206137 37.9696 0.263484 36.9778C1.29139 34.8071 2.22735 32.5903 3.29467 30.436C3.86281 29.2899 3.67891 28.3046 3.2684 27.1618C0.657574 19.8876 1.77415 13.0568 6.19778 6.84333C7.99088 4.32446 10.8152 3.06995 13.7971 2.30148L13.8496 2.77767L13.8431 2.77438Z" fill="#0C1C2D"/>
<path d="M13.8427 1.95334C13.1925 2.35728 12.3879 2.50178 11.6785 2.79735C11.0119 3.07649 10.3616 3.4049 9.74421 3.78257C8.60464 4.48207 7.57674 5.35563 6.70318 6.36712C4.89038 8.46563 3.80007 11.0863 3.22536 13.7792C2.89695 15.3129 2.75574 16.8663 2.65722 18.4262C2.54228 20.2488 2.48316 22.1175 2.66378 23.9368C2.75574 24.8629 2.93636 25.7792 3.24506 26.656C3.38956 27.0633 3.55705 27.4606 3.75409 27.8449C3.86575 28.0649 3.99383 28.2751 4.11534 28.4918C4.17445 28.6002 4.23356 28.7053 4.27954 28.817C4.33537 28.9549 4.33537 29.1618 4.40434 29.2833C4.39448 29.2669 4.49957 27.9664 4.37806 28.4491C4.35507 28.5378 4.33865 28.6298 4.31566 28.7184C4.25327 28.9483 4.16789 29.1716 4.07265 29.3884C3.86247 29.8744 3.6293 30.3473 3.40927 30.8301C2.96592 31.7989 2.52257 32.771 2.07265 33.7398C1.82635 34.2718 1.57348 34.8038 1.32061 35.3292C1.12356 35.7397 0.857553 36.1601 0.801724 36.6232C0.739326 37.1322 0.782021 37.6773 0.78859 38.1897C0.791874 38.4721 0.801727 38.725 1.01519 38.9351C1.24507 39.1617 1.59647 39.2471 1.90189 39.3062C2.46017 39.4146 3.02503 39.4606 3.58004 39.5887C4.29925 39.7562 5.10712 40.0813 5.18266 40.9187V40.807C5.24505 39.546 5.2352 39.1683 5.14653 39.6806C5.13011 39.7561 5.10713 39.8317 5.08414 39.9039C5.04473 40.0189 4.99547 40.1305 4.95934 40.2488C4.89038 40.4622 4.85754 40.6757 4.84769 40.899C4.82141 41.4934 4.77215 42.1502 4.86739 42.7446C4.93635 43.1847 5.22864 43.5131 5.59645 43.7463C5.90187 43.94 6.50285 44.0517 6.5948 44.4524V42.8399C6.58495 43.0829 6.3485 43.3194 6.25983 43.5427C6.18429 43.7299 6.14817 43.9203 6.14161 44.1207C6.1219 44.6888 6.04965 45.3489 6.16459 45.9105C6.24012 46.2816 6.52584 46.5509 6.8214 46.761C7.16951 47.0106 7.71138 47.1683 7.87887 47.5952C8.03322 47.9827 7.98068 48.4917 8.04964 48.9055C8.11861 49.3193 8.20399 49.7134 8.34192 50.1009C8.54882 50.6724 8.89036 51.1781 9.4388 51.4671C10.0693 51.7988 10.828 51.8448 11.5242 51.8513C12.7688 51.8645 13.9511 51.582 15.1136 51.1518C17.5439 50.252 19.869 49.0533 22.089 47.72C24.5028 46.2717 26.9133 44.7545 28.9198 42.7643V41.1223C28.7688 42.3276 27.9543 42.9121 27.0282 43.5657C25.846 44.3998 24.6538 45.2208 23.419 45.9794C22.713 46.4129 21.3731 46.8957 21.3041 47.8678C21.2745 48.2651 21.2975 48.6724 21.3008 49.073C21.3008 49.2963 21.2877 49.5295 21.3337 49.7495C21.3961 50.0418 21.5635 50.2619 21.7015 50.518C21.8624 50.8136 21.8722 51.142 21.9379 51.4671V49.8251C21.8525 49.8284 21.4683 49.8973 21.4026 49.8513C21.3435 49.8087 21.2877 49.5361 21.2614 49.4737C21.1793 49.2569 21.1005 49.0369 21.0053 48.8267C20.8969 48.5837 20.7688 48.2816 20.5258 48.1436C20.3025 48.0188 20.0397 48.0812 19.8099 48.1535C19.3435 48.3045 18.8969 48.5377 18.4535 48.7446C15.9281 49.9269 13.36 51.1387 10.493 50.7807C9.6851 50.6789 8.87066 50.4425 8.33535 49.7857C7.66541 48.9581 7.69496 47.8875 7.24833 46.9679C6.97904 46.4097 6.5751 45.9367 6.25983 45.4047C5.91172 44.8169 5.55704 44.2323 5.22535 43.6379C4.89366 43.0435 4.58496 42.4162 4.43389 41.7463C4.39448 41.5788 4.37149 41.4113 4.35179 41.2405C4.27626 40.5837 4.30253 42.6888 4.36164 42.1502C4.36821 42.0911 4.37478 42.032 4.37806 41.9696C4.40105 41.6609 4.40105 41.3489 4.40105 41.0402C4.40105 40.4688 4.50614 39.7299 4.25655 39.188C4.07593 38.7972 3.69169 38.6199 3.29432 38.5213C2.32553 38.2882 0.161333 38.3703 0.0431069 36.9877L0.0496764 37.592L0.0628105 38.344L0.0858013 38.2422C0.112074 38.1732 0.125209 38.0977 0.151481 38.0254C0.20731 37.8711 0.282844 37.7266 0.351809 37.5788C0.52258 37.2176 0.690065 36.853 0.857552 36.4885C1.19253 35.7595 1.51765 35.0304 1.84934 34.298C2.18103 33.5657 2.516 32.8399 2.86083 32.1174C3.20566 31.3949 3.57347 30.7742 3.63258 30.0025C3.68513 29.2997 3.68513 28.5575 3.6293 27.858C3.57347 27.1585 3.31075 26.5115 3.08743 25.8514C2.63423 24.505 2.29269 23.1224 2.08579 21.7168C1.98399 21.0107 1.91502 20.2981 1.88546 19.5855C1.88218 19.4869 1.8789 19.3884 1.87561 19.2932C1.85919 18.9122 1.86904 19.8252 1.87561 19.7694C1.8986 19.5986 1.88875 19.4114 1.8986 19.2406C1.9183 18.8761 1.94786 18.5116 1.99055 18.1503C2.14162 16.8137 2.42733 15.4902 2.84113 14.2095C3.25492 12.9287 3.80335 11.6577 4.45031 10.4558C5.09727 9.2538 5.83618 8.00915 6.74258 6.9681C7.64898 5.92705 8.83453 5.07648 10.0956 4.44923C10.7163 4.14053 11.36 3.88109 12.0135 3.65449C12.355 3.53626 12.6999 3.42788 13.048 3.32608C13.2122 3.2801 13.3764 3.23413 13.5406 3.18815C13.5406 3.18815 13.7705 3.11261 13.7902 3.12247C13.8362 3.14874 13.8362 3.54939 13.8427 3.59865C13.7836 3.06007 13.9018 2.4985 13.8427 1.95663C13.8362 1.89423 13.8394 1.71032 13.8066 1.64136C13.7311 1.47059 13.8953 1.51656 13.6654 1.51656C13.5307 1.51656 13.3632 1.59866 13.2319 1.63479C12.9035 1.72674 12.5784 1.82527 12.2532 1.93364C11.6325 2.13725 11.0217 2.3737 10.4306 2.64956C9.26803 3.18815 8.17115 3.88437 7.2549 4.7842C6.24998 5.76613 5.48479 6.99437 4.78857 8.20619C4.09235 9.41801 3.47823 10.7251 3.00861 12.065C2.53899 13.4049 2.23029 14.6955 2.04638 16.0551C1.85262 17.4837 1.84605 18.9254 1.86247 20.3638C1.87889 21.7168 2.00369 23.0633 2.25985 24.3933C2.40434 25.1355 2.58497 25.8744 2.80171 26.6002C3.01846 27.326 3.31075 28.0255 3.49794 28.7578C3.53735 28.9122 3.57347 29.0698 3.59646 29.2307C3.61616 29.3523 3.61616 29.477 3.63587 29.6018C3.64572 29.6675 3.72782 28.1076 3.60302 28.6593C3.51436 29.0534 3.39284 29.4081 3.21222 29.7726C2.84769 30.5148 2.4963 31.2636 2.15147 32.0156C1.80665 32.7677 1.46839 33.523 1.12356 34.2783C0.798438 34.9943 0.384649 35.7102 0.13506 36.4557C-0.0751196 37.0928 0.0168362 37.8777 0.0398246 38.5345C0.0562449 39.014 0.286127 39.3424 0.70977 39.569C1.34688 39.9072 2.11535 39.9926 2.81814 40.0944C3.22536 40.1535 3.68513 40.2225 4.00368 40.5049C4.13176 40.6166 4.22371 40.7545 4.28611 40.9121C4.31895 40.9942 4.33865 41.0796 4.35836 41.165C4.3715 41.2307 4.37478 41.2964 4.38463 41.3621C4.40762 41.6313 4.40762 41.4606 4.3912 40.8497C4.40434 40.1962 4.40105 40.0648 4.37478 40.4622C4.31238 41.188 4.31238 41.9302 4.34194 42.6593C4.40105 44.0583 5.20893 45.2701 5.90187 46.4392C6.23356 47.0008 6.58823 47.5394 6.94291 48.0878C7.29759 48.6362 7.45523 49.2142 7.62271 49.8546C7.83618 50.6789 8.18429 51.5164 8.94619 51.9761C9.82303 52.5049 11.0217 52.5476 12.0135 52.5049C13.488 52.4392 14.9035 51.986 16.2532 51.4113C17.4158 50.9187 18.5258 50.2717 19.7146 49.8481C19.9543 49.7627 20.2466 49.6674 20.4929 49.7857C20.7392 49.9039 20.8837 50.2126 20.9921 50.4556C21.0841 50.6625 21.1662 50.876 21.245 51.0862C21.2745 51.1683 21.3337 51.4671 21.4026 51.5131C21.4782 51.5656 21.8591 51.4901 21.9379 51.4868C21.9511 51.4868 21.9642 49.9827 21.9379 49.8448C21.8657 49.4868 21.8558 49.1518 21.6621 48.8333C21.488 48.5509 21.3402 48.2783 21.3107 47.9433L21.3172 48.3505V48.2651L21.3107 49.4999C21.3698 48.8004 22.089 48.4326 22.6276 48.1174C23.5635 47.5656 24.4765 46.9844 25.3763 46.3768C26.1776 45.8349 26.9855 45.2931 27.754 44.7118C28.4108 44.2159 28.818 43.6149 28.9231 42.7873C28.956 42.5213 28.9297 42.2356 28.9297 41.9663C28.9297 41.7726 28.9297 41.5788 28.9297 41.385C28.9297 41.3489 28.9034 41.165 28.9231 41.1453C27.3008 42.7578 25.4157 44.0353 23.4847 45.2438C21.5537 46.4523 19.4322 47.6707 17.2746 48.6428C15.2779 49.5394 13.2417 50.3571 11.0119 50.2159C10.4142 50.1765 9.78034 50.0812 9.26803 49.7463C8.80169 49.4408 8.51598 48.9581 8.33207 48.4425C8.19414 48.0517 8.10875 47.6412 8.04307 47.234C7.97739 46.8267 8.04636 46.2684 7.83946 45.8842C7.63257 45.5 7.08084 45.3423 6.74258 45.0862C6.4306 44.8497 6.19086 44.564 6.14489 44.1634V44.275C6.19415 46.2717 6.06279 45.5131 6.43717 44.853C6.53897 44.6757 6.59152 44.564 6.59809 44.3637C6.60794 43.963 6.60466 43.5591 6.59809 43.1584C6.59809 42.968 6.62436 42.7939 6.49628 42.6396C6.24012 42.3374 5.73109 42.2488 5.41911 42.0057C5.08742 41.7463 4.89037 41.4113 4.85425 40.991V41.1026C4.80171 42.3538 4.80828 42.7512 4.87396 42.2914C4.87724 42.2553 4.88381 42.2225 4.89366 42.1896C4.91665 42.101 4.93635 42.009 4.96262 41.9203C5.02174 41.7299 5.10713 41.5492 5.14982 41.3522C5.24506 40.9187 5.1958 40.4425 5.1958 40.0057C5.1958 39.3227 5.20236 38.7447 4.56197 38.344C3.81977 37.8777 2.85426 37.8612 2.01354 37.7167C1.48481 37.6248 0.844417 37.4507 0.791872 36.8235L0.798441 37.8612V37.7824L0.791872 38.3867C0.847701 37.6773 1.33046 36.9877 1.62931 36.3604C2.00697 35.5657 2.37479 34.7644 2.7426 33.9664C3.11042 33.1683 3.45196 32.413 3.80992 31.638C4.11206 30.9844 4.40762 30.344 4.43061 29.6117C4.4536 28.8793 4.56854 27.9335 4.28283 27.2143C4.13833 26.8498 3.89859 26.5247 3.72454 26.1733C3.55048 25.8219 3.38299 25.4344 3.24835 25.0501C3.00204 24.3473 2.83456 23.6183 2.73275 22.8794C2.67692 22.4754 2.63751 22.0715 2.61781 21.6643C2.60796 21.4607 2.61124 21.2538 2.59482 21.0534C2.59482 21.083 2.58497 22.0354 2.60139 21.4377C2.60139 21.3227 2.60796 21.2045 2.61453 21.0896C2.80172 16.2916 3.67199 11.2571 7.08084 7.6282C7.94126 6.71194 8.93634 5.92705 10.0234 5.29323C10.5882 4.96482 11.1793 4.67583 11.7869 4.42624C12.4634 4.15038 13.2286 4.00916 13.846 3.62493C13.9183 3.57895 13.8526 2.89915 13.8526 2.80392C13.8526 2.70868 13.7738 2.02559 13.846 1.9829L13.8427 1.95334Z" fill="#0C1C2D"/>
<path d="M29.5615 1.29984C35.1181 1.88768 39.1641 4.57733 41.4367 9.77927C43.302 14.0518 44.4022 18.4426 43.8045 23.152C43.5812 24.9188 43.0032 26.5378 42.0508 28.0386C40.8226 29.973 39.6731 31.9631 38.4022 33.8711C37.5516 35.1519 37.2068 36.3966 37.9621 37.8251C38.1263 38.1338 38.3332 38.4951 37.972 38.9746C37.0623 37.3818 36.3037 35.9335 37.5516 34.1536C38.5828 32.6823 39.2889 30.9746 40.3726 29.5493C43.7979 25.0304 43.8537 20.0518 42.5467 14.8794C42.1756 13.4049 41.614 11.973 41.0623 10.551C39.2528 5.90736 35.8833 3.09621 30.9868 2.13727C30.504 2.04203 30.0082 2.00262 29.6108 1.66765C29.5944 1.54614 29.5779 1.42135 29.5648 1.29984H29.5615Z" fill="#0C1C2D"/>
<path d="M29.5614 2.12084C32.0737 2.39341 34.5499 3.12576 36.6451 4.57074C38.7403 6.01573 40.297 8.07812 41.338 10.3803C42.737 13.4706 43.7485 16.8104 43.9324 20.2127C43.939 20.3572 43.962 21.2144 43.9554 20.6364C43.9489 20.0584 43.9357 20.8203 43.9324 20.9286C43.9062 21.4213 43.8602 21.9139 43.7945 22.4032C43.6861 23.2209 43.4989 24.0288 43.2231 24.8071C42.6648 26.3999 41.6894 27.7825 40.8126 29.211C40.2806 30.078 39.7551 30.945 39.21 31.8054C38.7009 32.6068 38.0802 33.3851 37.7551 34.2849C37.4497 35.1289 37.5252 36.0616 37.5384 36.945C37.5449 37.3424 37.5909 37.7266 37.7223 38.101C37.8536 38.4754 38.1098 38.8103 38.1689 39.2077L38.1623 38.6035V38.7118L38.1722 37.6741C38.1558 37.7792 38.1361 37.8678 38.0901 37.9631L38.0605 38.0255C38.0178 38.1732 37.9784 38.1962 37.9423 38.0944C37.8307 38.0255 37.7124 37.6872 37.6468 37.5624C37.4628 37.2241 37.2921 36.876 37.1574 36.5148C37.095 36.344 37.0392 36.17 36.9965 35.9893C36.9735 35.8908 36.9604 35.7923 36.9374 35.6971C36.8553 35.303 37.2198 35.3818 36.9243 36.5017C37.0293 36.101 37.1049 35.743 37.3085 35.3719C37.7354 34.6002 38.2642 33.881 38.6976 33.1059C39.1311 32.3309 39.5449 31.569 40.0375 30.8432C40.5302 30.1174 41.0589 29.4442 41.4891 28.6856C41.893 27.9762 42.2346 27.2308 42.5072 26.4623C43.0227 25.014 43.2822 23.4869 43.3315 21.95C43.4398 18.5247 43.0425 15.1914 41.8996 11.9468C40.9275 9.18156 39.788 6.50177 37.5811 4.48864C36.5203 3.52313 35.2888 2.75794 33.9686 2.20622C33.2494 1.90737 32.5039 1.66764 31.7453 1.48373C31.3414 1.38521 30.9341 1.31624 30.5269 1.23414C30.3102 1.19145 30.0967 1.13562 29.8964 1.03381C29.6074 0.889317 29.6041 0.790795 29.5647 0.478809C29.6336 1.01411 29.4957 1.58225 29.5647 2.12084C29.5942 2.35729 29.568 2.47551 29.7814 2.61016C29.9522 2.71525 30.1394 2.78093 30.3332 2.83348C30.7042 2.92871 31.0852 2.97469 31.4596 3.06008C32.1361 3.21114 32.8028 3.4049 33.453 3.64792C34.6714 4.10112 35.8274 4.72181 36.8553 5.51984C37.8832 6.31786 38.7535 7.26367 39.4793 8.32442C40.3134 9.54609 40.8815 10.8827 41.4103 12.2554C42.0638 13.9533 42.6057 15.6709 42.9439 17.4607C43.095 18.2587 43.2099 19.0633 43.2756 19.8712C43.2921 20.0814 43.3085 20.2915 43.3183 20.505C43.3249 20.6134 43.3249 20.725 43.3315 20.8367C43.3479 21.1947 43.3479 20.0781 43.3315 20.436C43.3085 20.8827 43.2822 21.326 43.2264 21.7694C43.0326 23.3457 42.586 24.8859 41.8832 26.3112C41.118 27.8679 39.985 29.1913 39.1311 30.6987C38.6977 31.4639 38.2871 32.2389 37.8044 32.9746C37.3578 33.6609 36.9472 34.2915 36.9046 35.1322C36.8651 35.9204 36.8126 36.7972 36.9834 37.5755C37.0589 37.9171 37.1837 38.2455 37.3282 38.564C37.407 38.7414 37.4957 38.9154 37.5876 39.0895C37.673 39.2504 37.7781 39.5624 37.9128 39.6773C38.0244 39.7759 37.8996 39.8842 38.0638 39.6675C38.1098 39.6084 38.1426 39.4967 38.1591 39.4277C38.1919 39.2865 38.1821 39.1355 38.1821 38.991C38.1853 38.5246 38.2247 38.032 38.1755 37.5657C38.1426 37.2603 37.9555 37.0041 37.8339 36.7283C37.7387 36.5148 37.6665 36.2882 37.6172 36.0583C37.6008 35.9729 37.5975 35.8777 37.5745 35.7956L37.5581 36.8957C37.5646 36.7775 37.5778 36.6626 37.5975 36.5476C37.7387 35.7036 38.2083 35.0008 38.6681 34.2981C39.1673 33.5361 39.65 32.7611 40.1262 31.9828C40.6024 31.2045 41.1049 30.3802 41.6008 29.5854C42.0671 28.8367 42.5367 28.101 42.8947 27.2932C43.5876 25.7299 43.8668 24.0551 43.9521 22.3572C44.0375 20.6594 44.0244 18.8104 43.8044 17.0633C43.5843 15.3162 43.164 13.6052 42.6024 11.9402C41.6664 9.16186 40.4579 6.4131 38.343 4.32444C36.5039 2.50835 34.1459 1.35893 31.6369 0.807215C30.9538 0.656148 30.2642 0.551058 29.568 0.475525C29.6139 0.482093 29.4957 2.11098 29.568 2.11755L29.5614 2.12084Z" fill="#0C1C2D"/>
<path d="M30.223 27.0337C30.5448 25.8974 31.4184 25.2735 32.3478 24.7414C33.6023 24.0222 34.8765 23.7168 36.1442 24.7644C37.6384 25.9992 38.2427 27.4672 37.5727 29.0895C36.686 31.2406 35.4118 33.2242 34.6959 35.4639C34.5087 36.0517 34.003 36.4557 33.2805 36.1437C33.5892 35.7792 34.0325 35.4639 34.1704 35.0501C34.8502 32.968 35.8749 31.0567 36.8667 29.1191C37.6351 27.6183 37.0309 26.3703 35.8749 25.3358C34.7846 24.3572 33.622 24.6823 32.5481 25.3194C31.7238 25.8088 30.9915 26.4557 30.2197 27.0337H30.223Z" fill="#0C1C2D"/>
<path d="M30.2224 27.8547C30.6066 26.5936 31.7462 25.8055 32.8956 25.2767C33.4867 25.0074 34.1402 24.8301 34.7938 24.9385C35.5327 25.06 36.137 25.523 36.6526 26.0452C37.0893 26.4886 37.4637 27.0074 37.6706 27.6019C37.7133 27.7234 37.7494 27.8482 37.779 27.9762C37.7954 28.0485 37.802 28.124 37.8184 28.193C37.9301 28.6954 37.8545 27.037 37.8414 27.1355C37.7954 27.4869 37.7461 27.812 37.6213 28.147C37.0893 29.5723 36.3044 30.8991 35.6575 32.2718C35.2897 33.0468 34.9941 33.8383 34.6985 34.6429C34.4621 35.2898 33.9432 35.5755 33.2831 35.3227V36.9647C33.4703 36.7512 33.687 36.5608 33.8742 36.3473C34.0943 36.0944 34.1862 35.8219 34.2946 35.5099C34.5376 34.8169 34.8168 34.1371 35.1189 33.4705C35.421 32.8038 35.7659 32.101 36.1107 31.4245C36.4292 30.794 36.8299 30.1667 37.0631 29.4968C37.2765 28.8761 37.2273 28.2061 37.224 27.5592C37.224 26.9845 37.2174 26.4459 36.9744 25.9139C36.4785 24.8301 35.3553 23.7628 34.091 23.9106C32.5935 24.0879 31.3685 25.349 30.2224 26.2127C30.1435 26.2718 30.2158 26.9253 30.2158 27.0337C30.2158 27.1421 30.3045 27.7956 30.2224 27.8547C31.1912 27.1224 32.1173 26.2521 33.2536 25.7825C33.7429 25.5789 34.2847 25.4672 34.8102 25.5822C35.3915 25.7102 35.8545 26.0945 36.2519 26.5181C36.6033 26.8958 36.9087 27.3293 37.0795 27.8186C37.1222 27.9434 37.155 28.0715 37.178 28.1996C37.1879 28.2554 37.1911 28.3145 37.201 28.367C37.2108 28.413 37.2503 27.0994 37.1846 27.3654C37.1189 27.6314 37.0565 27.904 36.935 28.1667C36.3767 29.3785 35.7035 30.5378 35.1517 31.7562C34.8496 32.4229 34.5672 33.1027 34.3242 33.7923C34.2223 34.0846 34.1468 34.367 33.9531 34.6133C33.7593 34.8596 33.4999 35.0797 33.2864 35.3194C33.2076 35.4113 33.2503 36.9483 33.2864 36.9614C33.9136 37.2044 34.4457 36.9549 34.6821 36.3309C34.9744 35.5591 35.247 34.7939 35.5951 34.0452C35.9432 33.2964 36.3471 32.5181 36.7215 31.7562C37.0729 31.0468 37.4703 30.3145 37.7002 29.5526C37.9301 28.7907 37.8578 27.9992 37.8512 27.234C37.8447 26.5936 37.7494 26.0058 37.4374 25.4344C36.7347 24.1503 35.3455 23.0107 33.8118 23.3194C33.0302 23.4771 32.288 23.9007 31.6444 24.3539C31.0007 24.8071 30.4654 25.418 30.2224 26.2061C30.1534 26.436 30.2125 26.7874 30.2158 27.0271C30.2191 27.2669 30.2946 27.6183 30.2224 27.8482V27.8547Z" fill="#0C1C2D"/>
<path d="M13.8426 2.77435L13.79 2.29816C17.7703 0.899154 21.8918 0.708679 26.056 0.856461C26.033 1.03052 26.0067 1.20129 25.9837 1.37206C21.8721 1.27354 17.8163 1.66434 13.8426 2.77107V2.77435Z" fill="#0C1C2D"/>
<path d="M13.8422 1.95333L13.7896 1.47714V3.11917C17.7338 1.74972 21.9144 1.53297 26.0556 1.67747V0.0354401C26.0392 0.143814 26.026 0.252186 26.0096 0.357276C25.98 0.57074 25.9997 0.511628 25.8257 0.547752C25.586 0.597013 25.2838 0.537901 25.0375 0.537901C24.4858 0.537901 23.9341 0.541184 23.3824 0.557604C22.3118 0.590445 21.2411 0.656126 20.1738 0.767784C18.0359 0.987816 15.9177 1.37862 13.8422 1.95004C13.7995 1.9599 13.8356 2.70209 13.8356 2.77106C13.8356 2.83674 13.875 3.58222 13.8422 3.59208C15.9144 3.02065 18.0326 2.62984 20.1738 2.40981C21.2149 2.30144 22.2592 2.23576 23.3035 2.20292C23.8553 2.1865 24.407 2.17993 24.9554 2.17993C25.2181 2.17993 25.4809 2.18321 25.7436 2.18978C25.8224 2.18978 25.9012 2.18978 25.98 2.19635L25.9965 2.06827C26.0457 1.96975 26.0359 1.78913 26.049 1.68075C26.072 1.5264 26.0621 0.0387223 26.049 0.0387223C21.9078 -0.105776 17.7272 0.107687 13.783 1.48042C13.6911 1.51326 13.7666 2.96482 13.783 3.12245L13.8356 3.59864C13.7765 3.06005 13.8947 2.49848 13.8356 1.95661L13.8422 1.95333Z" fill="#0C1C2D"/>
<path d="M13.3891 23.6445C10.5845 23.0107 7.97699 22.7578 5.14941 23.8711C7.16911 22.0321 10.6633 21.9762 13.3891 23.6445Z" fill="#0C1C2D"/>
<path d="M13.3888 22.8235C10.6171 22.2061 7.84532 22.0124 5.14911 23.0501V24.6922C7.42496 22.6692 10.9225 22.9812 13.3888 24.4656C13.3363 24.4327 13.3954 23.7299 13.3954 23.6445C13.3954 23.546 13.4709 22.8728 13.3888 22.8235C10.9192 21.3424 7.42496 21.0304 5.14911 23.0501C5.06372 23.1257 5.14254 23.7496 5.14254 23.8711C5.14254 23.9434 5.19508 24.6757 5.14911 24.6922C7.8486 23.6511 10.6171 23.8449 13.3888 24.4656C13.2837 24.4426 13.5169 22.8531 13.3888 22.8235Z" fill="#0C1C2D"/>
<path d="M21.4014 50.6724C21.5787 50.6625 21.7593 50.6559 21.9367 50.6461C22.2355 51.6937 22.6329 52.7052 23.0697 53.7134C22.0352 52.9515 21.582 51.8875 21.4014 50.6724Z" fill="#0C1C2D"/>
<path d="M21.4019 51.4934C21.5529 51.4868 21.7303 51.4507 21.878 51.4704C21.947 51.4802 21.9207 51.4605 21.9536 51.5229C21.97 51.5558 21.9766 51.5985 21.9864 51.6346C22.0094 51.7101 22.0324 51.7824 22.0554 51.8579C22.1506 52.1633 22.2524 52.4687 22.3641 52.7676C22.5808 53.362 22.8206 53.9498 23.0734 54.5311V52.8891C22.0817 52.1502 21.5858 51.0467 21.4051 49.8481C21.415 49.917 21.3986 50.0254 21.3986 50.0878C21.3986 50.2816 21.3986 50.4753 21.3986 50.6691C21.3986 50.9351 21.3657 51.2241 21.4051 51.4901C21.5858 52.6888 22.0817 53.7922 23.0734 54.5311C23.0669 54.5246 23.08 54.2618 23.08 54.2914C23.08 54.0976 23.08 53.9039 23.08 53.7101C23.08 53.5163 23.08 53.3226 23.08 53.1288C23.08 53.0631 23.0997 52.9482 23.0734 52.8891C22.8206 52.3078 22.5808 51.72 22.3641 51.1256C22.259 50.8333 22.1572 50.5377 22.0652 50.2421C22.0422 50.1666 22.0193 50.0944 21.9963 50.0188C21.9864 49.9827 21.9733 49.9433 21.9634 49.9072C21.947 49.8546 21.9536 49.8415 21.9109 49.8251C21.8551 49.8021 21.7335 49.8349 21.6744 49.8349L21.4084 49.8481C21.369 49.8481 21.4216 51.4901 21.4084 51.4901L21.4019 51.4934Z" fill="#0C1C2D"/>
<path d="M25.9844 1.37537C26.0074 1.2046 26.0336 1.03054 26.0566 0.859772C27.2389 0.902464 28.4179 0.971432 29.564 1.30312C29.5804 1.42463 29.5968 1.54942 29.61 1.67093C28.3785 1.85484 27.1995 1.40493 25.9844 1.37865V1.37537Z" fill="#0C1C2D"/>
<path d="M25.9843 2.1964L26.0205 1.93696C26.027 1.89098 26.0237 1.70707 26.0566 1.67752C26.0894 1.64796 26.2897 1.68737 26.3357 1.68737C26.4277 1.69065 26.5196 1.69394 26.6149 1.70051C26.9958 1.72021 27.3768 1.7432 27.7577 1.78261C28.1387 1.82202 28.4933 1.87456 28.8546 1.94681C29.0352 1.98294 29.2191 2.02563 29.3965 2.0716C29.4326 2.08146 29.5016 2.08802 29.5311 2.10773C29.5738 2.14057 29.5672 2.14714 29.5771 2.20953L29.6132 2.4854V0.843362C28.3915 1.01742 27.2027 0.587206 25.9876 0.551081C25.9909 0.551081 25.9581 2.19312 25.9876 2.19312C27.2027 2.22924 28.3915 2.65945 29.6132 2.4854C29.6559 2.47883 29.6329 0.987861 29.6132 0.843362L29.5804 0.597058C29.5771 0.570785 29.5804 0.495251 29.564 0.475547C29.5475 0.455842 29.4556 0.44599 29.4293 0.439422C29.2487 0.390161 29.0681 0.347468 28.8874 0.311344C28.5131 0.23581 28.1354 0.179983 27.7577 0.140574C27.3801 0.101165 27.0188 0.078177 26.651 0.0584727C26.559 0.0551886 26.4671 0.0486201 26.3718 0.0453361C26.3029 0.0453361 26.1551 0.00921187 26.0927 0.0354844C26.0434 0.0551887 26.0533 0.0650411 26.0434 0.130722L26.027 0.2588L25.9876 0.551081C25.9515 0.81709 25.9778 1.10609 25.981 1.3721C25.981 1.56586 25.981 1.75962 25.981 1.95338C25.981 2.02891 25.9975 2.12087 25.9876 2.19312L25.9843 2.1964Z" fill="#0C1C2D"/>
<path d="M39.9941 42.968C40.7659 43.5854 40.9794 44.0583 41.0221 44.8005C40.27 44.4326 40.1354 43.9269 39.9941 42.968Z" fill="#0C1C2D"/>
<path d="M39.9948 43.789C40.2937 44.0287 40.5827 44.3013 40.7699 44.6395C40.9275 44.9285 40.9932 45.2471 41.0195 45.5722V45.5427C41.0195 45.5591 41.0195 45.5755 41.0195 45.5919V43.9794C40.7075 43.8251 40.4382 43.6051 40.2773 43.2865C40.1032 42.9351 40.0474 42.5312 39.9916 42.1469C40.0014 42.2159 39.985 42.3243 39.985 42.3867C39.985 42.5804 39.985 42.7742 39.985 42.968C39.985 43.1617 39.985 43.3555 39.985 43.5492C39.985 43.6281 39.9784 43.7134 39.9916 43.789C40.0474 44.1732 40.1032 44.5771 40.2773 44.9285C40.4349 45.2471 40.7042 45.4671 41.0195 45.6215C41.0162 45.6215 41.026 45.3456 41.026 45.3817C41.026 45.2241 41.026 45.0665 41.026 44.9088C41.026 44.61 41.0392 44.3079 41.0195 44.009C40.9965 43.6675 40.9439 43.3325 40.7797 43.0271C40.5925 42.6757 40.2937 42.3965 39.9883 42.1469C39.9948 42.1535 39.9817 42.4162 39.9817 42.3867C39.9817 42.5804 39.9817 42.7742 39.9817 42.968C39.9817 43.1617 39.9817 43.3555 39.9817 43.5492C39.9817 43.5886 39.962 43.7693 39.9883 43.789H39.9948Z" fill="#0C1C2D"/>
<path d="M42.4075 47.1124C41.6916 46.6986 41.4913 46.3866 41.5537 45.8119C42.1415 45.9663 42.1744 46.4031 42.4075 47.1124Z" fill="#0C1C2D"/>
<path d="M42.4076 46.2914C42.1777 46.1568 41.938 46.009 41.764 45.8021C41.6326 45.6477 41.5603 45.4638 41.5439 45.2602V45.2898C41.5078 44.7085 41.5209 47.2537 41.5439 46.7348C41.5439 46.7118 41.5439 46.6888 41.5472 46.6658V46.6954C41.5472 46.6954 41.5472 46.6362 41.5505 46.633C41.5538 46.633 41.5932 46.6461 41.5998 46.6461C41.6359 46.6559 41.6687 46.6691 41.7016 46.6822C41.7607 46.7085 41.8198 46.738 41.8723 46.7775C41.9676 46.8497 42.0431 46.9449 42.0989 47.05C42.2467 47.3226 42.3091 47.6412 42.4076 47.9334C42.4076 47.9105 42.4109 47.8875 42.4076 47.8612C42.4076 47.8054 42.4076 47.7495 42.4076 47.6904C42.4076 47.4967 42.4076 47.3029 42.4076 47.1091C42.4076 46.9154 42.4076 46.7216 42.4076 46.5279V46.3998C42.4076 46.3637 42.4076 46.3243 42.4011 46.2881C42.319 46.0418 42.2598 45.789 42.1613 45.5525C42.0858 45.3686 41.9807 45.2011 41.8099 45.096C41.7705 45.0697 41.7245 45.05 41.6819 45.0336C41.6523 45.0205 41.6227 45.0106 41.5932 45.0008C41.5833 45.0008 41.5702 44.9909 41.5603 44.9909C41.5439 44.9811 41.5373 44.9844 41.5406 45.0041C41.5406 45.0139 41.5406 45.0238 41.5406 45.0369C41.5341 45.1157 41.5308 45.1945 41.5308 45.2701C41.5209 45.7824 41.5176 46.3013 41.5308 46.8136C41.5373 47.0205 41.5833 47.211 41.7048 47.3784C41.8789 47.6182 42.1449 47.7824 42.3978 47.9302C42.3912 47.9302 42.4043 47.6576 42.4043 47.6904C42.4043 47.4967 42.4043 47.3029 42.4043 47.1091C42.4043 46.9154 42.4043 46.7216 42.4043 46.5279V46.3998C42.4043 46.3637 42.4043 46.3243 42.3978 46.2881L42.4076 46.2914Z" fill="#0C1C2D"/>
<path d="M38.3755 39.9138C38.1456 39.7003 37.9058 39.385 38.2408 39.1946C38.474 39.0599 38.5364 39.4836 38.6316 39.6905C38.5462 39.766 38.4608 39.8382 38.3755 39.9138Z" fill="#0C1C2D"/>
<path d="M38.3754 39.0928C38.2473 38.9745 38.093 38.8202 38.0766 38.6363V38.6658C38.0766 38.5936 38.0766 38.656 38.0799 38.853V40.2093L38.0733 40.2389C38.0799 40.1634 38.1225 40.0977 38.1817 40.0517C38.2309 40.0156 38.2933 39.9729 38.359 39.9959C38.4083 40.0123 38.4444 40.0583 38.4674 40.1043C38.5002 40.1634 38.5265 40.229 38.5495 40.2947C38.5757 40.367 38.5987 40.4425 38.6283 40.5115V38.8694C38.5429 38.945 38.4575 39.0172 38.3721 39.0928C38.3721 39.1158 38.3689 39.1387 38.3721 39.165C38.3721 39.2208 38.3721 39.2767 38.3721 39.3358C38.3721 39.5295 38.3721 39.7233 38.3721 39.9171C38.3721 40.1108 38.3721 40.3046 38.3721 40.4983V40.6264C38.3721 40.6625 38.3721 40.702 38.3787 40.7381C38.4641 40.6625 38.5495 40.5903 38.6349 40.5148C38.6349 40.4918 38.6381 40.4688 38.6349 40.4425C38.6349 40.3867 38.6349 40.3309 38.6349 40.2717C38.6349 40.078 38.6349 39.8842 38.6349 39.6905C38.6349 39.4967 38.6349 39.3029 38.6349 39.1092V38.9811C38.6349 38.945 38.6349 38.9056 38.6283 38.8694C38.5823 38.7709 38.556 38.6626 38.5166 38.5607C38.4871 38.4852 38.4411 38.3736 38.3557 38.3506C38.313 38.3374 38.267 38.3571 38.2309 38.3768C38.1751 38.4097 38.1258 38.4524 38.0996 38.5115C38.0897 38.5345 38.0831 38.5607 38.0799 38.587C38.0733 38.633 38.0766 38.679 38.0733 38.7217C38.0667 39.096 38.0667 39.4704 38.0733 39.8448C38.0733 39.9729 38.0733 40.1043 38.0799 40.2323C38.0799 40.252 38.0799 40.2717 38.0831 40.2882C38.0864 40.3177 38.0963 40.3473 38.1094 40.3768C38.1652 40.5148 38.2736 40.6297 38.382 40.7282C38.382 40.7052 38.3853 40.6822 38.382 40.656C38.382 40.6001 38.382 40.5443 38.382 40.4852C38.382 40.2914 38.382 40.0977 38.382 39.9039C38.382 39.7102 38.382 39.5164 38.382 39.3227V39.1946C38.382 39.1584 38.382 39.119 38.3754 39.0829V39.0928Z" fill="#0C1C2D"/>
<path d="M38.6312 39.6904C38.8052 39.9203 38.8906 40.1535 38.6673 40.4031C38.5688 40.2389 38.4735 40.0779 38.375 39.9137L38.6312 39.6904Z" fill="#0C1C2D"/>
<path d="M38.631 40.5115C38.7131 40.6198 38.7886 40.7446 38.7985 40.8858V40.8563C38.7985 40.8563 38.7985 40.8694 38.7985 40.876V39.385C38.7985 39.3193 38.7985 39.3029 38.7985 39.3325V39.3029C38.7952 39.3653 38.7755 39.4244 38.7427 39.477C38.723 39.5098 38.7033 39.5394 38.6803 39.5656L38.6704 39.5755C38.6704 39.5755 38.6639 39.5821 38.6639 39.5755C38.6573 39.5755 38.654 39.5558 38.6507 39.5525L38.6179 39.5C38.5391 39.3653 38.457 39.2307 38.3781 39.0927V40.7348L38.6343 40.5115C38.6343 40.4885 38.6376 40.4655 38.6343 40.4392C38.6343 40.3834 38.6343 40.3275 38.6343 40.2684C38.6343 40.0747 38.6343 39.8809 38.6343 39.6871C38.6343 39.4934 38.6343 39.2996 38.6343 39.1059V38.9778C38.6343 38.9417 38.6343 38.9023 38.6277 38.8661L38.3716 39.0895C38.3716 39.1124 38.3683 39.1354 38.3716 39.1617C38.3716 39.2175 38.3716 39.2734 38.3716 39.3325C38.3716 39.5262 38.3716 39.72 38.3716 39.9138C38.3716 40.1075 38.3716 40.3013 38.3716 40.495V40.6231C38.3716 40.6592 38.3716 40.6986 38.3781 40.7348C38.4504 40.8596 38.5259 40.9811 38.5982 41.1059L38.654 41.2011L38.6671 41.2241C38.6671 41.2241 38.6803 41.211 38.6868 41.2044C38.6967 41.1913 38.7098 41.1781 38.7197 41.1617C38.7525 41.1157 38.7788 41.0632 38.7919 41.0073C38.8018 40.9745 38.8018 40.9417 38.8051 40.9055C38.8051 40.8497 38.8051 40.7939 38.8084 40.7381C38.8084 40.5246 38.8084 40.3078 38.8084 40.0944C38.8084 39.8218 38.8149 39.5459 38.8018 39.2734C38.8018 39.2405 38.7952 39.2077 38.7886 39.1748C38.7624 39.0632 38.7 38.9614 38.631 38.8727C38.631 38.8957 38.6277 38.9187 38.631 38.945C38.631 39.0008 38.631 39.0566 38.631 39.1157C38.631 39.3095 38.631 39.5032 38.631 39.697C38.631 39.8908 38.631 40.0845 38.631 40.2783V40.4064C38.631 40.4425 38.631 40.4819 38.6376 40.518L38.631 40.5115Z" fill="#0C1C2D"/>
<path d="M41.2548 45.165L41.2975 45.2898L41.1924 45.2832L41.2548 45.165Z" fill="#0C1C2D"/>
<path d="M41.254 45.986L41.2901 46.0944L41.2967 46.1108V44.4688L41.1916 44.4589V46.1009L41.2475 45.9991L41.254 45.986C41.254 45.963 41.2573 45.94 41.254 45.9137C41.254 45.8579 41.254 45.8021 41.254 45.743C41.254 45.5492 41.254 45.3555 41.254 45.1617C41.254 44.9679 41.254 44.7742 41.254 44.5804V44.4523C41.254 44.4162 41.254 44.3768 41.2475 44.3407L41.1916 44.4425L41.1851 44.4556C41.1851 44.4786 41.1818 44.5016 41.1851 44.5279C41.1851 44.5837 41.1851 44.6395 41.1851 44.6986C41.1851 44.8924 41.1851 45.0862 41.1851 45.2799C41.1851 45.4737 41.1851 45.6674 41.1851 45.8612V45.9893C41.1851 46.0254 41.185 46.0648 41.1916 46.1009L41.2967 46.1108C41.2967 46.0878 41.3 46.0648 41.2967 46.0385C41.2967 45.9827 41.2967 45.9269 41.2967 45.8678C41.2967 45.674 41.2967 45.4802 41.2967 45.2865C41.2967 45.0927 41.2967 44.899 41.2967 44.7052V44.5771C41.2967 44.541 41.2967 44.5016 41.2901 44.4655L41.254 44.3571L41.2475 44.3407C41.2475 44.3637 41.2442 44.3867 41.2475 44.4129C41.2475 44.4688 41.2475 44.5246 41.2475 44.5837C41.2475 44.7775 41.2475 44.9712 41.2475 45.165C41.2475 45.3587 41.2475 45.5525 41.2475 45.7463V45.8743C41.2475 45.9105 41.2474 45.9499 41.254 45.986Z" fill="#0C1C2D"/>
</g>
<defs>
<clipPath id="clip0_3_659">
<rect width="44" height="55" fill="white"/>
</clipPath>
</defs>
</svg>
